<svg width="28" height="29" viewBox="0 0 28 29" fill="none" xmlns="http://www.w3.org/2000/svg">
<path fill-rule="evenodd" clip-rule="evenodd" d="M14 26.1667C8.50032 26.1667 5.75046 26.1667 4.04192 24.4581C2.33337 22.7496 2.33337 19.9997 2.33337 14.5C2.33337 9.00029 2.33337 6.25043 4.04192 4.54189C5.75046 2.83334 8.50032 2.83334 14 2.83334C19.4998 2.83334 22.2496 2.83334 23.9582 4.54189C25.6667 6.25043 25.6667 9.00029 25.6667 14.5C25.6667 19.9997 25.6667 22.7496 23.9582 24.4581C22.2496 26.1667 19.4998 26.1667 14 26.1667ZM14 10.125C14.4833 10.125 14.875 10.5168 14.875 11V13.625H17.5C17.9833 13.625 18.375 14.0168 18.375 14.5C18.375 14.9833 17.9833 15.375 17.5 15.375H14.875L14.875 18C14.875 18.4833 14.4833 18.875 14 18.875C13.5168 18.875 13.125 18.4833 13.125 18V15.375H10.5C10.0168 15.375 9.62504 14.9833 9.62504 14.5C9.62504 14.0168 10.0168 13.625 10.5 13.625H13.125L13.125 11C13.125 10.5168 13.5168 10.125 14 10.125Z" fill="#00DAE8"/>
</svg>
