<svg width="25" height="25" viewBox="0 0 25 25" fill="none" xmlns="http://www.w3.org/2000/svg">
<path fill-rule="evenodd" clip-rule="evenodd" d="M12.5002 22.5C17.3364 22.5 21.2569 18.6162 21.2569 13.8253C21.2569 9.03446 17.3364 5.15069 12.5002 5.15069C7.66407 5.15069 3.74358 9.03446 3.74358 13.8253C3.74358 18.6162 7.66407 22.5 12.5002 22.5ZM12.5002 9.24705C12.9033 9.24705 13.23 9.5707 13.23 9.96994V13.5259L15.4486 15.7238C15.7336 16.0061 15.7336 16.4638 15.4486 16.7461C15.1637 17.0284 14.7016 17.0284 14.4167 16.7461L11.9843 14.3365C11.8474 14.2009 11.7705 14.0171 11.7705 13.8253V9.96994C11.7705 9.5707 12.0972 9.24705 12.5002 9.24705Z" fill="#4D4D4D"/>
<path fill-rule="evenodd" clip-rule="evenodd" d="M8.74074 2.83986C8.95434 3.17841 8.85044 3.6244 8.50869 3.83599L4.61681 6.24562C4.27506 6.45722 3.82486 6.3543 3.61126 6.01574C3.39766 5.67718 3.50156 5.2312 3.84331 5.0196L7.73519 2.60998C8.07694 2.39838 8.52714 2.5013 8.74074 2.83986Z" fill="#4D4D4D"/>
<path fill-rule="evenodd" clip-rule="evenodd" d="M16.2598 2.83985C16.4734 2.5013 16.9236 2.39838 17.2653 2.60998L21.1572 5.0196C21.4989 5.2312 21.6028 5.67719 21.3892 6.01574C21.1756 6.3543 20.7254 6.45722 20.3837 6.24562L16.4918 3.83599C16.1501 3.6244 16.0462 3.17841 16.2598 2.83985Z" fill="#4D4D4D"/>
</svg>
