<svg width="135" height="112" viewBox="0 0 135 112" fill="none" xmlns="http://www.w3.org/2000/svg">
<path d="M117.375 100.326C102.304 115.604 33.8844 115.155 20.8785 103.231C3.6234 87.4141 -7.67813 32.1423 8.49898 16.477C32.6602 -6.92025 119.05 -5.27293 131.012 20.611C138.459 36.6685 133.077 84.3913 117.377 100.329L117.375 100.326Z" fill="#00DAE8"/>
<path d="M101.349 67.3L82.1851 29.7C79.4832 24.35 74.0293 21 68.025 21C62.0207 21 56.5668 24.35 53.8649 29.7L34.7012 67.3C33.5504 69.5 33 72 33 74.5V75.15C33 83.9 40.1051 91 48.8613 91H87.1387C95.8949 91 103 83.9 103 75.15V74.5C103 72 102.4 69.55 101.249 67.3H101.349ZM73.0786 73C73.0786 75.75 70.827 78 68.0751 78C65.3231 78 63.0715 75.75 63.0715 73V71.35C63.0715 68.6 65.3231 66.35 68.0751 66.35C70.827 66.35 73.0786 68.6 73.0786 71.35V73ZM73.0786 54.7C73.0786 57.45 70.827 59.7 68.0751 59.7C65.3231 59.7 63.0715 57.45 63.0715 54.7V39C63.0715 36.25 65.3231 34 68.0751 34C70.827 34 73.0786 36.25 73.0786 39V54.7Z" fill="white"/>
</svg>
