<svg width="110" height="104" viewBox="0 0 110 104" fill="none" xmlns="http://www.w3.org/2000/svg">
<g clip-path="url(#clip0_1291_28951)">
<path d="M95.4183 91.5533C83.0954 104.023 27.1493 103.656 16.5145 93.9244C2.40524 81.0145 -6.83588 35.9016 6.39195 23.1156C26.1483 4.01867 96.7885 5.36322 106.57 26.4898C112.658 39.5959 108.258 78.5474 95.4205 91.5554L95.4183 91.5533Z" fill="#00DAE8"/>
<path d="M85.5049 26.6968H24.9254L30.2247 80.1203C30.5469 83.535 32.9564 86.9071 37.513 89.5236C47.2813 95.1558 63.132 95.1558 72.9003 89.5236C77.4355 86.9114 79.8664 83.5457 80.1886 80.1203L85.5049 26.6968Z" fill="#4A57C8"/>
<path d="M55.2034 32.6128C71.9612 32.6128 85.5433 29.881 85.5433 26.5047C85.5433 23.1284 71.9783 20.3966 55.2034 20.3966C38.4286 20.3966 24.8635 23.1284 24.8635 26.5047C24.8635 29.881 38.4627 32.6128 55.2034 32.6128Z" fill="#5F71E0"/>
<path d="M55.2035 31.582C47.5267 31.582 40.3536 30.9865 34.9882 29.9109C30.071 28.9164 27.3392 27.6486 27.3392 26.3425C27.3392 25.0364 30.071 23.7687 34.9882 22.7741C40.3472 21.6814 47.5224 21.103 55.2035 21.103C62.8845 21.103 70.0533 21.6985 75.4187 22.7741C80.3359 23.7687 83.0677 25.0364 83.0677 26.3425C83.0677 27.6486 80.3359 28.9164 75.4187 29.9109C70.0597 30.9865 62.8845 31.582 55.2035 31.582Z" fill="#343C7E"/>
<path d="M82.103 8.41523C81.7488 12.2675 81.1533 20.0637 80.131 28.6411C78.9124 29.0936 77.3331 29.5204 75.4208 29.9088C72.9942 30.3954 70.1984 30.7839 67.1444 31.0613C66.6748 31.104 66.1946 31.1488 65.7016 31.1872C64.4937 31.2811 63.2537 31.3622 61.9817 31.422C61.4418 31.4497 60.8954 31.4711 60.3362 31.4882C58.6651 31.5479 56.9492 31.5821 55.2056 31.5821C52.6979 31.5821 50.2457 31.5159 47.8895 31.3964C46.7904 31.3409 45.7212 31.2705 44.6711 31.183C44.6775 31.1766 44.6775 31.1723 44.6775 31.1659C44.8077 30.4616 44.923 29.8213 45.0169 29.2707C45.0446 29.1171 45.0724 28.9655 45.098 28.7948C45.3221 27.3585 45.5462 25.3737 45.7639 23.1669C45.83 22.5394 45.8898 21.8949 45.9495 21.2376C46.1139 19.4448 46.2718 17.5817 46.4084 15.7911C46.4404 15.392 46.4746 14.9929 46.5066 14.6044C46.6538 12.7135 46.7797 10.9549 46.8886 9.52289C46.959 8.54969 47.0252 7.73015 47.0743 7.11977C47.0849 7.00452 47.1127 6.89568 47.1511 6.7911C47.3304 6.29383 47.8063 5.95449 48.3591 5.97156L63.9793 6.49018L80.9057 7.05361C81.6271 7.08135 82.1841 7.69387 82.103 8.4131V8.41523Z" fill="url(#paint0_linear_1291_28951)"/>
<path opacity="0.2" d="M63.5525 26.6179C68.1474 26.7715 71.9997 23.169 72.1512 18.574C72.3049 13.9791 68.7023 10.129 64.1074 9.97532C59.5124 9.82166 55.6623 13.4242 55.5086 18.0192C55.355 22.6141 58.9575 26.4642 63.5525 26.6179Z" fill="#4751AB"/>
<g opacity="0.8">
<path d="M66.5959 24.0228L60.7076 23.8264C59.7792 23.7944 59.0429 23.009 59.0728 22.0806L59.1069 21.0776C59.1539 19.6668 60.3256 18.5699 61.7363 18.6168L65.9151 18.7555C67.3279 18.8025 68.4227 19.9742 68.3758 21.3849L68.3416 22.388C68.3096 23.3163 67.5242 24.0526 66.5959 24.0228Z" fill="url(#paint1_linear_1291_28951)"/>
<path d="M63.847 17.8122C65.2727 17.8591 66.4678 16.7429 66.5148 15.3173C66.5617 13.8916 65.4434 12.6965 64.0199 12.6495C62.5942 12.6025 61.3991 13.7187 61.3521 15.1444C61.3052 16.57 62.4235 17.7652 63.8492 17.8122H63.847Z" fill="url(#paint2_linear_1291_28951)"/>
</g>
<path d="M65.7016 31.1873C64.4937 31.2812 63.2537 31.3623 61.9817 31.422C61.4418 31.4498 60.8954 31.4711 60.3362 31.4882C58.6651 31.5479 56.9492 31.5821 55.2056 31.5821C52.6979 31.5821 50.2457 31.5159 47.8895 31.3964C48.0432 30.9376 48.485 30.6153 48.9886 30.6324L65.7016 31.1894V31.1873Z" fill="#ACD6E8"/>
<path d="M67.1443 31.0634C66.6748 31.1061 66.1946 31.1509 65.7016 31.1893C64.4937 31.2832 63.2537 31.3643 61.9817 31.4241C61.4417 31.4518 60.8954 31.4732 60.3362 31.4903C58.6651 31.55 56.9492 31.5842 55.2056 31.5842C52.6979 31.5842 50.2457 31.518 47.8895 31.3985C46.7904 31.343 45.7212 31.2726 44.6711 31.1851C44.6541 31.1851 44.6434 31.1851 44.6284 31.1787C42.1634 30.9866 39.8414 30.7262 37.7221 30.3911C36.766 30.2439 35.8526 30.086 34.9904 29.9109C33.9297 29.6975 32.9735 29.4692 32.122 29.2344C31.5436 23.662 29.4457 12.0562 28.8161 8.34263C28.7115 7.68103 29.1277 7.05784 29.7829 6.91698L61.6103 0.0298872C62.321 -0.123776 63.0083 0.335079 63.1064 1.05644C63.3199 2.42234 63.625 4.27483 63.9815 6.49227C64.1501 7.57858 64.3357 8.74813 64.5278 9.99451C64.6708 10.9122 64.8181 11.8747 64.9653 12.8629C65.1723 14.2501 65.3858 15.7035 65.5928 17.2017C65.6632 17.7161 65.7358 18.2283 65.8062 18.7533C66.0367 20.4692 66.2651 22.2278 66.4785 24.0141C66.5212 24.4132 66.5724 24.8059 66.6151 25.205L66.7132 26.1057C66.8925 27.8109 67.0291 29.4713 67.1443 31.0613V31.0634Z" fill="url(#paint3_linear_1291_28951)"/>
<path opacity="0.2" d="M49.5521 23.2308C54.0467 22.2598 56.9023 17.827 55.9312 13.3324C54.9601 8.83773 50.5274 5.98215 46.0327 6.95322C41.5381 7.92428 38.6825 12.357 39.6536 16.8517C40.6247 21.3463 45.0574 24.2019 49.5521 23.2308Z" fill="#4751AB"/>
<g opacity="0.8">
<path d="M51.8698 19.9719L46.1117 21.2161C45.2025 21.4124 44.2976 20.8298 44.1013 19.9206L43.89 18.9389C43.5912 17.5581 44.4598 16.2114 45.8407 15.9126L49.9277 15.029C51.3085 14.7302 52.6552 15.5989 52.954 16.9797L53.1653 17.9614C53.3616 18.8706 52.7768 19.7755 51.8698 19.9719Z" fill="url(#paint4_linear_1291_28951)"/>
<path d="M47.6889 14.6214C49.0825 14.3205 49.9703 12.944 49.6673 11.5503C49.3664 10.1567 47.9898 9.26885 46.5962 9.57191C45.2025 9.87497 44.3147 11.2494 44.6177 12.643C44.9187 14.0367 46.2952 14.9245 47.6889 14.6214Z" fill="url(#paint5_linear_1291_28951)"/>
</g>
<path d="M53.2613 29.3133L44.6776 31.1658L44.6285 31.1765C42.1635 30.9844 39.8414 30.724 37.7222 30.389L45.098 28.7926L52.7897 27.1321C53.3915 27.002 53.987 27.384 54.1129 27.9837C54.2431 28.5855 53.8611 29.181 53.2613 29.3112V29.3133Z" fill="#ACD6E8"/>
<path d="M61.9817 31.4241C61.4418 31.4519 60.8954 31.4732 60.3362 31.4903L61.2049 31.3046C61.478 31.2449 61.7512 31.294 61.9817 31.4241Z" fill="#ACD6E8"/>
<g opacity="0.5">
<g opacity="0.5">
<path d="M40.9491 82.8073C39.6216 82.2482 38.3432 81.5823 37.1246 80.814C36.6657 80.5237 36.2346 80.2399 35.8184 79.9283C35.1141 79.4097 34.5016 77.873 34.4034 76.5626L31.4049 38.9728C31.3067 37.6496 31.7165 37.3828 32.6769 37.7435C33.4473 38.0337 37.3102 38.896 38.9984 39.5896C39.6088 39.882 40.1317 40.328 40.5158 40.8851C40.9 41.4421 41.1305 42.0909 41.1838 42.7653L42.9424 81.2067C42.9851 82.5448 42.0909 83.2875 40.9491 82.8073Z" fill="#4751AB"/>
</g>
</g>
<g opacity="0.5">
<g opacity="0.5">
<path d="M67.5178 81.2067L69.2764 42.7653C69.3341 42.0909 69.5645 41.4442 69.9487 40.8872C70.3307 40.3302 70.8536 39.8841 71.4619 39.5896C73.1564 38.896 77.0129 38.0316 77.7834 37.7435C78.7502 37.3828 79.1557 37.6496 79.0618 38.9728L76.0568 76.5626C75.9629 77.873 75.3461 79.4097 74.6418 79.9283C74.2257 80.2399 73.7945 80.5237 73.3421 80.814C72.1149 81.5844 70.8237 82.2503 69.4856 82.8073C68.3544 83.2875 67.4581 82.5448 67.5178 81.2067Z" fill="#4751AB"/>
</g>
</g>
<g opacity="0.5">
<g opacity="0.5">
<path d="M59.8859 42.5583L59.2841 82.6942C59.2841 84.0879 58.2618 85.3278 57.0496 85.3876C55.8373 85.4474 54.6016 85.4474 53.3787 85.3876C52.1558 85.3278 51.1933 84.0879 51.1442 82.6942L50.5978 42.5583C50.5978 41.1647 51.5433 40.1424 52.7555 40.2149C54.4159 40.3195 56.0828 40.3195 57.7432 40.2149C58.9405 40.1445 59.9009 41.1647 59.8859 42.5583Z" fill="#4751AB"/>
</g>
</g>
<path d="M101.8 11.2324C99.2813 11.2324 97.2282 13.2855 97.2282 15.8038C97.2282 13.2855 95.175 11.2324 92.6567 11.2324C95.175 11.2324 97.2282 9.17926 97.2282 6.66089C97.2282 9.17926 99.2834 11.2324 101.8 11.2324Z" fill="#FEA13A"/>
<path d="M16.173 44.1674C13.0187 44.1674 10.4768 46.7114 10.4768 49.8636C10.4768 46.7092 7.935 44.1674 4.78064 44.1674C7.935 44.1674 10.4768 41.6234 10.4768 38.4712C10.4768 41.5999 13.0208 44.1674 16.173 44.1674Z" fill="#FEA13A"/>
<path d="M64.8052 97.226C61.064 97.226 58.0334 100.259 58.0334 103.998C58.0334 100.257 55.0007 97.226 51.2594 97.226C55.0007 97.226 58.0334 94.1933 58.0334 90.452C58.0334 94.1933 61.0661 97.226 64.8052 97.226Z" fill="#FEA13A"/>
<path d="M86.3245 93.1945C96.7352 93.1945 105.174 84.7559 105.174 74.3452C105.174 63.9345 96.7352 55.4958 86.3245 55.4958C75.9138 55.4958 67.4752 63.9345 67.4752 74.3452C67.4752 84.7559 75.9138 93.1945 86.3245 93.1945Z" fill="url(#paint6_linear_1291_28951)"/>
<path d="M78.1718 66.1968C76.9788 67.3962 76.9788 69.3426 78.1718 70.5421L82.0027 74.3943L78.2721 78.1462C77.0791 79.3457 77.0791 81.2921 78.2721 82.4915C79.4651 83.6909 81.4009 83.6909 82.5939 82.4915L86.3245 78.7396L90.0551 82.4915C91.2481 83.6909 93.1838 83.6909 94.3769 82.4915C95.5699 81.2921 95.5699 79.3457 94.3769 78.1462L90.6463 74.3943L94.4772 70.5421C95.6702 69.3426 95.6702 67.3962 94.4772 66.1968C93.2841 64.9974 91.3484 64.9974 90.1554 66.1968L86.3245 70.0491L82.4936 66.1968C81.3006 64.9974 79.3648 64.9974 78.1718 66.1968Z" fill="white"/>
</g>
<defs>
<linearGradient id="paint0_linear_1291_28951" x1="65.1873" y1="21.0476" x2="87.3767" y2="40.6909" gradientUnits="userSpaceOnUse">
<stop stop-color="#C9E9FE"/>
<stop offset="1" stop-color="white"/>
</linearGradient>
<linearGradient id="paint1_linear_1291_28951" x1="65.3025" y1="19.6199" x2="59.5082" y2="26.8719" gradientUnits="userSpaceOnUse">
<stop stop-color="#4A57CD"/>
<stop offset="0.84" stop-color="#4751AB"/>
</linearGradient>
<linearGradient id="paint2_linear_1291_28951" x1="64.3101" y1="14.5425" x2="61.8259" y2="19.082" gradientUnits="userSpaceOnUse">
<stop stop-color="#4A57CD"/>
<stop offset="0.84" stop-color="#4751AB"/>
</linearGradient>
<linearGradient id="paint3_linear_1291_28951" x1="44.1376" y1="8.66703" x2="65.4199" y2="47.8042" gradientUnits="userSpaceOnUse">
<stop stop-color="#C9E9FE"/>
<stop offset="1" stop-color="white"/>
</linearGradient>
<linearGradient id="paint4_linear_1291_28951" x1="49.5414" y1="16.0172" x2="45.6891" y2="24.4644" gradientUnits="userSpaceOnUse">
<stop stop-color="#4A57CD"/>
<stop offset="0.84" stop-color="#4751AB"/>
</linearGradient>
<linearGradient id="paint5_linear_1291_28951" x1="47.341" y1="11.3369" x2="46.037" y2="16.3438" gradientUnits="userSpaceOnUse">
<stop stop-color="#4A57CD"/>
<stop offset="0.84" stop-color="#4751AB"/>
</linearGradient>
<linearGradient id="paint6_linear_1291_28951" x1="83.55" y1="98.148" x2="89.942" y2="43.3245" gradientUnits="userSpaceOnUse">
<stop stop-color="#FF0017"/>
<stop offset="0.41" stop-color="#FF5060"/>
<stop offset="0.84" stop-color="#FF7783"/>
</linearGradient>
<clipPath id="clip0_1291_28951">
<rect width="109.271" height="104" fill="white"/>
</clipPath>
</defs>
</svg>
