<svg width="32" height="32" viewBox="0 0 32 32" fill="none" xmlns="http://www.w3.org/2000/svg">
<path d="M5.93353 10.8046C5.57434 11.263 4.96648 11.605 4.48295 11.605C4.4277 11.605 4.37244 11.5977 4.3379 11.5904C4.33099 11.5613 4.31718 11.474 4.31718 11.3867C4.31718 10.8046 4.60038 10.2225 4.90431 9.85863C5.29113 9.37838 5.94043 9.02183 6.47922 9C6.49303 9.06549 6.49994 9.14553 6.49994 9.22557C6.49994 9.80769 6.26509 10.3825 5.93353 10.8046ZM6.31344 11.7287C6.61737 11.7287 7.71566 11.7578 8.43403 12.8493C8.37187 12.9002 7.28049 13.5478 7.28049 14.9958C7.28049 16.6694 8.66889 17.2661 8.71033 17.2807C8.70343 17.317 8.48929 18.0884 7.97814 18.8815C7.52225 19.5728 7.03872 20.2713 6.31344 20.2713C5.58124 20.2713 5.39474 19.8202 4.55894 19.8202C3.73695 19.8202 3.44683 20.2859 2.78371 20.2859C2.11369 20.2859 1.65089 19.6383 1.11901 18.8524C0.497339 17.921 0 16.4802 0 15.1123C0 12.922 1.35387 11.7578 2.68701 11.7578C3.39157 11.7578 3.97871 12.2453 4.4277 12.2453C4.84905 12.2453 5.50526 11.7287 6.31344 11.7287Z" fill="white"/>
<path d="M9.78251 20.2058V9.70582H13.7612C15.7851 9.70582 17.1528 11.1102 17.1528 13.2131V13.2277C17.1528 15.3233 15.7851 16.7349 13.7612 16.7349H11.5646V20.2058H9.78251ZM13.326 11.2412H11.5646V15.2214H13.326C14.6039 15.2214 15.3499 14.4938 15.3499 13.2349V13.2204C15.3499 11.9615 14.6039 11.2412 13.326 11.2412Z" fill="white"/>
<path d="M20.0831 20.3368C18.6463 20.3368 17.6033 19.4054 17.6033 17.9574V17.9428C17.6033 16.5239 18.6325 15.6944 20.4699 15.578L22.4109 15.4543V14.7703C22.4109 13.9771 21.9205 13.5405 20.9949 13.5405C20.2074 13.5405 19.6963 13.8389 19.5236 14.3628L19.5167 14.3919H17.8934L17.9003 14.3264C18.0661 12.9875 19.2818 12.0998 21.0778 12.0998C23.0188 12.0998 24.1101 13.0894 24.1101 14.7703V20.2058H22.4109V19.1143H22.2935C21.879 19.8857 21.0778 20.3368 20.0831 20.3368ZM19.3025 17.8701C19.3025 18.5468 19.8482 18.947 20.608 18.947C21.6442 18.947 22.4109 18.2339 22.4109 17.2879V16.6476L20.7117 16.764C19.7515 16.8295 19.3025 17.2006 19.3025 17.8555V17.8701Z" fill="white"/>
<path d="M26.1079 23C25.9007 23 25.6589 22.9927 25.4517 22.9709V21.5811C25.5899 21.5956 25.7833 21.6029 25.9629 21.6029C26.6674 21.6029 27.0888 21.2973 27.2753 20.5769L27.3651 20.2131L24.6643 12.2526H26.5431L28.3045 18.4667H28.4357L30.1902 12.2526H32L29.2923 20.3732C28.643 22.3669 27.7795 23 26.1079 23Z" fill="white"/>
</svg>
