<svg width="26" height="24" viewBox="0 0 26 24" fill="none" xmlns="http://www.w3.org/2000/svg">
<path d="M2.33064 3.47279C2.49224 4.09226 3.13929 4.45981 3.77584 4.29375C4.41243 4.12768 4.79748 3.49089 4.63587 2.87141C4.47427 2.25194 3.82721 1.88438 3.19063 2.05045C2.55408 2.21651 2.16903 2.85331 2.33064 3.47279Z" fill="url(#paint0_linear_4044_5568)"/>
<path d="M2.33064 3.47279C2.49224 4.09226 3.13929 4.45981 3.77584 4.29375C4.41243 4.12768 4.79748 3.49089 4.63587 2.87141C4.47427 2.25194 3.82721 1.88438 3.19063 2.05045C2.55408 2.21651 2.16903 2.85331 2.33064 3.47279Z" fill="url(#paint1_radial_4044_5568)"/>
<path d="M2.33064 3.47279C2.49224 4.09226 3.13929 4.45981 3.77584 4.29375C4.41243 4.12768 4.79748 3.49089 4.63587 2.87141C4.47427 2.25194 3.82721 1.88438 3.19063 2.05045C2.55408 2.21651 2.16903 2.85331 2.33064 3.47279Z" fill="url(#paint2_radial_4044_5568)"/>
<path d="M4.45436 3.17688C4.29034 3.35493 3.91744 3.28797 3.62339 3.02846C3.32935 2.76896 3.22474 2.41367 3.38923 2.23743C3.55325 2.05938 3.92616 2.12635 4.2202 2.38585C4.51426 2.64535 4.61839 2.99883 4.45436 3.17688Z" fill="url(#paint3_radial_4044_5568)"/>
<path d="M2.33064 3.47279C2.49224 4.09226 3.13929 4.45981 3.77584 4.29375C4.41243 4.12768 4.79748 3.49089 4.63587 2.87141C4.47427 2.25194 3.82721 1.88438 3.19063 2.05045C2.55407 2.21651 2.16903 2.85331 2.33064 3.47279Z" fill="url(#paint4_radial_4044_5568)"/>
<path d="M2.78182 2.97012C2.86018 2.65405 3.22295 2.12659 3.87965 2.07121C3.66442 1.99982 3.42715 1.9883 3.19102 2.0499C2.55525 2.21575 2.16962 2.85351 2.33103 3.47224C2.40371 3.75084 2.57436 3.97877 2.79822 4.12905C2.96733 3.68883 2.63603 3.55304 2.78182 2.97012Z" fill="url(#paint5_linear_4044_5568)"/>
<path d="M4.64355 2.90778C4.64594 2.92454 4.64833 2.94131 4.64839 2.95675C4.64803 2.98583 4.6421 3.01636 4.63522 3.04327C4.61822 3.09988 4.58865 3.15397 4.55392 3.2036C4.48218 3.30154 4.38991 3.38165 4.29062 3.45006C4.2419 3.48402 4.18897 3.51715 4.13651 3.54437C4.08452 3.57338 4.02971 3.59928 3.97445 3.62336C3.91916 3.64744 3.86296 3.6679 3.80487 3.68885C3.7482 3.7075 3.68917 3.72483 3.63202 3.74167C3.5744 3.7567 3.51443 3.77041 3.45539 3.78002C3.39633 3.78963 3.33544 3.79972 3.27543 3.80571C3.21546 3.81169 3.1545 3.81407 3.09544 3.81595C3.03404 3.81651 2.974 3.81479 2.9149 3.80895C2.79485 3.79775 2.6752 3.77293 2.56475 3.72252C2.51021 3.69618 2.45846 3.66523 2.41551 3.62234C2.39403 3.60089 2.37627 3.57847 2.36174 3.55328C2.35378 3.53796 2.3463 3.52446 2.34205 3.50818C2.4775 3.90566 3.0658 4.09806 3.68299 3.93706C4.30019 3.77605 4.71953 3.32078 4.64355 2.90778Z" fill="url(#paint6_radial_4044_5568)"/>
<path d="M2.70798 6.56574C2.89307 7.27527 3.63419 7.69625 4.36328 7.50605C5.09241 7.31584 5.53343 6.58647 5.34833 5.87694C5.16323 5.16741 4.42212 4.74642 3.69299 4.93663C2.9639 5.12683 2.52288 5.85621 2.70798 6.56574Z" fill="url(#paint7_linear_4044_5568)"/>
<path d="M2.70798 6.56574C2.89307 7.27527 3.63419 7.69625 4.36328 7.50605C5.09241 7.31584 5.53343 6.58647 5.34833 5.87694C5.16323 5.16741 4.42212 4.74642 3.69299 4.93663C2.9639 5.12683 2.52288 5.85621 2.70798 6.56574Z" fill="url(#paint8_radial_4044_5568)"/>
<path d="M2.70798 6.56574C2.89307 7.27527 3.63419 7.69625 4.36328 7.50605C5.09241 7.31584 5.53343 6.58647 5.34833 5.87694C5.16323 5.16741 4.42212 4.74642 3.69299 4.93663C2.9639 5.12683 2.52288 5.85621 2.70798 6.56574Z" fill="url(#paint9_radial_4044_5568)"/>
<path d="M5.13995 6.22722C4.95208 6.43115 4.52497 6.35445 4.18818 6.05723C3.85139 5.76 3.73158 5.35305 3.91998 5.1512C4.10785 4.94727 4.53496 5.02397 4.87175 5.32119C5.20856 5.61841 5.32782 6.02329 5.13995 6.22722Z" fill="url(#paint10_radial_4044_5568)"/>
<path d="M2.70798 6.56574C2.89307 7.27527 3.63419 7.69625 4.36328 7.50605C5.09241 7.31584 5.53343 6.58647 5.34833 5.87694C5.16323 5.16741 4.42212 4.74642 3.69299 4.93663C2.9639 5.12683 2.52288 5.85621 2.70798 6.56574Z" fill="url(#paint11_radial_4044_5568)"/>
<path d="M3.22458 5.99027C3.31432 5.62825 3.72983 5.02411 4.482 4.96068C4.23549 4.87892 3.96372 4.86572 3.69326 4.93627C2.96507 5.12624 2.52338 5.85671 2.70825 6.56538C2.7915 6.88449 2.98696 7.14555 3.24336 7.31768C3.43706 6.81346 3.05759 6.65794 3.22458 5.99027Z" fill="url(#paint12_linear_4044_5568)"/>
<path d="M5.35645 5.91876C5.35918 5.93797 5.36192 5.95717 5.36199 5.97486C5.36157 6.00816 5.35478 6.04313 5.3469 6.07396C5.32743 6.13879 5.29356 6.20074 5.25379 6.25759C5.17161 6.36977 5.06592 6.46152 4.9522 6.53988C4.8964 6.57878 4.83578 6.61673 4.77569 6.64789C4.71615 6.68113 4.65336 6.71079 4.59007 6.73837C4.52674 6.76595 4.46237 6.78938 4.39584 6.81338C4.33093 6.83474 4.26331 6.85459 4.19786 6.87388C4.13187 6.8911 4.06317 6.9068 3.99556 6.9178C3.92791 6.92881 3.85817 6.94037 3.78944 6.94723C3.72074 6.95409 3.65093 6.95681 3.58327 6.95896C3.51295 6.9596 3.44418 6.95763 3.37649 6.95094C3.23899 6.93812 3.10194 6.90969 2.97544 6.85195C2.91297 6.82177 2.85369 6.78633 2.8045 6.7372C2.7799 6.71263 2.75955 6.68696 2.74291 6.6581C2.7338 6.64056 2.72523 6.62509 2.72036 6.60644C2.87551 7.06171 3.54932 7.28209 4.25624 7.09767C4.96316 6.91326 5.44346 6.39181 5.35645 5.91876Z" fill="url(#paint13_radial_4044_5568)"/>
<path d="M5.56164 4.24697C5.79487 5.14101 6.72871 5.67147 7.6474 5.43181C8.56613 5.19214 9.12184 4.2731 8.88861 3.37906C8.65538 2.48502 7.72154 1.95454 6.8028 2.19422C5.88411 2.43388 5.32841 3.35293 5.56164 4.24697Z" fill="url(#paint14_linear_4044_5568)"/>
<path d="M5.56164 4.24697C5.79487 5.14101 6.72871 5.67147 7.6474 5.43181C8.56613 5.19214 9.12184 4.2731 8.88861 3.37906C8.65538 2.48502 7.72154 1.95454 6.8028 2.19422C5.88411 2.43388 5.32841 3.35293 5.56164 4.24697Z" fill="url(#paint15_radial_4044_5568)"/>
<path d="M5.56164 4.24697C5.79487 5.14101 6.72871 5.67147 7.6474 5.43181C8.56613 5.19214 9.12184 4.2731 8.88861 3.37906C8.65538 2.48502 7.72154 1.95454 6.8028 2.19422C5.88411 2.43388 5.32841 3.35293 5.56164 4.24697Z" fill="url(#paint16_radial_4044_5568)"/>
<path d="M8.62609 3.82119C8.38937 4.07815 7.85119 3.98151 7.42682 3.60699C7.00245 3.23247 6.85148 2.7197 7.08888 2.46535C7.32559 2.20839 7.86377 2.30503 8.28814 2.67955C8.71254 3.05407 8.86282 3.56423 8.62609 3.82119Z" fill="url(#paint17_radial_4044_5568)"/>
<path d="M5.56164 4.24697C5.79487 5.14101 6.72871 5.67147 7.6474 5.43181C8.56613 5.19214 9.12184 4.2731 8.88861 3.37906C8.65538 2.48502 7.72154 1.95454 6.8028 2.19422C5.88411 2.43388 5.32841 3.35293 5.56164 4.24697Z" fill="url(#paint18_radial_4044_5568)"/>
<path d="M6.21299 3.52194C6.32608 3.06577 6.84963 2.30453 7.7974 2.22461C7.48678 2.12158 7.14434 2.10495 6.80356 2.19385C5.88599 2.43322 5.32945 3.35365 5.5624 4.2466C5.66729 4.64869 5.91358 4.97764 6.23665 5.19454C6.48072 4.55919 6.00258 4.36323 6.21299 3.52194Z" fill="url(#paint19_linear_4044_5568)"/>
<path d="M8.89941 3.43256C8.90286 3.45675 8.90631 3.48095 8.90639 3.50324C8.90588 3.5452 8.89731 3.58927 8.88739 3.62811C8.86285 3.70981 8.82017 3.78786 8.77006 3.8595C8.66652 4.00085 8.53334 4.11646 8.39005 4.21519C8.31974 4.26421 8.24335 4.31203 8.16764 4.3513C8.09261 4.39318 8.0135 4.43055 7.93375 4.4653C7.85395 4.50006 7.77284 4.52958 7.68901 4.55982C7.60721 4.58673 7.52202 4.61175 7.43954 4.63605C7.35639 4.65774 7.26983 4.67754 7.18463 4.6914C7.09939 4.70526 7.01152 4.71982 6.92491 4.72847C6.83835 4.73711 6.75038 4.74054 6.66513 4.74326C6.57653 4.74406 6.48988 4.74157 6.40458 4.73315C6.23132 4.71699 6.05864 4.68117 5.89924 4.60842C5.82052 4.57039 5.74583 4.52574 5.68384 4.46382C5.65285 4.43287 5.62721 4.40052 5.60624 4.36416C5.59476 4.34206 5.58396 4.32257 5.57783 4.29907C5.77331 4.87273 6.62236 5.15041 7.51311 4.91804C8.40386 4.68566 9.00906 4.02861 8.89941 3.43256Z" fill="url(#paint20_radial_4044_5568)"/>
<path d="M22.7299 6.48084C17.4691 1.24029 12.6417 1.57023 10.6725 3.2865C9.11713 4.6421 9.18654 7.59759 7.76777 9.09558C6.74314 8.57986 5.72728 8.44822 4.77695 8.55373C1.19567 8.95132 -0.517012 13.4084 1.29789 16.5213C2.63806 18.8199 4.75481 20.3443 6.36518 21.4414C10.0447 23.9479 12.9615 24 14.4176 24C16.9113 24 32.7046 16.4171 22.7299 6.48084Z" fill="#005C77"/>
<rect x="7.49268" y="9" width="11" height="5" fill="white"/>
<g clip-path="url(#clip0_4044_5568)">
<path fill-rule="evenodd" clip-rule="evenodd" d="M9.33552 7.81013V6.79747C9.33552 4.70127 10.9772 3 13 3C15.0228 3 16.6645 4.70127 16.6645 6.79747V7.81013C19.2834 7.82025 20.6808 7.93165 21.4626 8.92405C22.342 10.038 22.0196 11.719 21.3648 15.081L20.7785 18.119C20.329 20.4582 20.1043 21.6228 19.2932 22.3114C18.4821 23 17.329 23 15.0326 23H10.9674C8.67103 23 7.51794 23 6.70686 22.3114C5.89579 21.6228 5.67103 20.4582 5.22152 18.119L4.6352 15.081C3.98048 11.719 3.658 10.038 4.53748 8.92405C5.31924 7.93165 6.71663 7.83038 9.33552 7.81013ZM10.8013 6.79747C10.8013 5.54177 11.7883 4.51899 13 4.51899C14.2117 4.51899 15.1987 5.54177 15.1987 6.79747V7.81013H10.8013V6.79747ZM15.9316 11.8608C16.4691 11.8608 16.9088 11.4051 16.9088 10.8481C16.9088 10.2911 16.4691 9.83544 15.9316 9.83544C15.3942 9.83544 14.9544 10.2911 14.9544 10.8481C14.9544 11.4051 15.3942 11.8608 15.9316 11.8608ZM11.0456 10.8481C11.0456 11.4051 10.6059 11.8608 10.0684 11.8608C9.53096 11.8608 9.09123 11.4051 9.09123 10.8481C9.09123 10.2911 9.53096 9.83544 10.0684 9.83544C10.6059 9.83544 11.0456 10.2911 11.0456 10.8481Z" fill="#00DAE8"/>
<path fill-rule="evenodd" clip-rule="evenodd" d="M16.6646 7.79999C19.2835 7.81011 20.6809 7.92151 21.4627 8.91391C22.3422 10.0278 22.0197 11.7088 21.365 15.0709L20.7786 18.1088C20.3291 20.4481 20.1044 21.6126 19.2933 22.3013C18.4822 22.9899 17.3291 22.9899 15.0327 22.9899C15.0327 22.9899 18.6288 23.3443 19.4203 18.1797C19.8601 15.2937 20.4757 13.2481 20.6418 11.7696C20.7884 10.4633 20.0262 9.21771 18.8536 8.72151L16.6744 7.79999H16.6646Z" fill="#00737A" fill-opacity="0.4"/>
</g>
<defs>
<linearGradient id="paint0_linear_4044_5568" x1="4.83972" y1="1.75271" x2="-0.504444" y2="7.62386" gradientUnits="userSpaceOnUse">
<stop stop-color="#003C61" stop-opacity="0"/>
<stop offset="1" stop-color="#003C61" stop-opacity="0.7"/>
</linearGradient>
<radialGradient id="paint1_radial_4044_5568" cx="0" cy="0" r="1" gradientUnits="userSpaceOnUse" gradientTransform="translate(4.39316 2.60729) rotate(75.379) scale(2.71387 2.78878)">
<stop offset="0.5839" stop-color="#003C61" stop-opacity="0"/>
<stop offset="0.6244" stop-color="#003C61" stop-opacity="0.0730316"/>
<stop offset="0.6809" stop-color="#003C61" stop-opacity="0.1749"/>
<stop offset="0.7469" stop-color="#003C61" stop-opacity="0.2938"/>
<stop offset="0.82" stop-color="#003C61" stop-opacity="0.4256"/>
<stop offset="0.899" stop-color="#003C61" stop-opacity="0.568"/>
<stop offset="0.9818" stop-color="#003C61" stop-opacity="0.7172"/>
<stop offset="1" stop-color="#003C61" stop-opacity="0.75"/>
</radialGradient>
<radialGradient id="paint2_radial_4044_5568" cx="0" cy="0" r="1" gradientUnits="userSpaceOnUse" gradientTransform="translate(3.52325 3.40199) rotate(75.379) scale(3.01356 3.09676)">
<stop stop-color="#003C61" stop-opacity="0.2"/>
<stop offset="0.1913" stop-color="#003C61" stop-opacity="0.64"/>
<stop offset="0.458" stop-color="#003C61" stop-opacity="0.74"/>
<stop offset="0.7676" stop-color="#003C61" stop-opacity="0.88"/>
<stop offset="1" stop-color="#003C61" stop-opacity="0.85"/>
</radialGradient>
<radialGradient id="paint3_radial_4044_5568" cx="0" cy="0" r="1" gradientUnits="userSpaceOnUse" gradientTransform="translate(3.9227 2.70742) rotate(41.4093) scale(0.588582 0.395486)">
<stop stop-color="white"/>
<stop offset="1" stop-color="white" stop-opacity="0"/>
</radialGradient>
<radialGradient id="paint4_radial_4044_5568" cx="0" cy="0" r="1" gradientUnits="userSpaceOnUse" gradientTransform="translate(3.52325 3.40199) rotate(75.379) scale(3.01356 3.09676)">
<stop stop-color="#003C61" stop-opacity="0"/>
<stop offset="0.1913" stop-color="#003C61" stop-opacity="0.1435"/>
<stop offset="0.458" stop-color="#003C61" stop-opacity="0.3435"/>
<stop offset="0.7676" stop-color="#003C61" stop-opacity="0.5757"/>
<stop offset="1" stop-color="#003C61" stop-opacity="0.75"/>
</radialGradient>
<linearGradient id="paint5_linear_4044_5568" x1="3.80628" y1="3.14484" x2="1.14722" y2="2.77177" gradientUnits="userSpaceOnUse">
<stop stop-color="#003C61" stop-opacity="0"/>
<stop offset="1" stop-color="#003C61" stop-opacity="0.75"/>
</linearGradient>
<radialGradient id="paint6_radial_4044_5568" cx="0" cy="0" r="1" gradientUnits="userSpaceOnUse" gradientTransform="translate(4.20292 3.57503) rotate(73.8968) scale(0.860809 0.370365)">
<stop stop-color="white"/>
<stop offset="1" stop-color="white" stop-opacity="0"/>
</radialGradient>
<linearGradient id="paint7_linear_4044_5568" x1="5.58182" y1="4.5956" x2="-0.539248" y2="11.3203" gradientUnits="userSpaceOnUse">
<stop stop-color="#003C61" stop-opacity="0"/>
<stop offset="1" stop-color="#003C61" stop-opacity="0.7"/>
</linearGradient>
<radialGradient id="paint8_radial_4044_5568" cx="0" cy="0" r="1" gradientUnits="userSpaceOnUse" gradientTransform="translate(5.07034 5.57442) rotate(75.379) scale(3.10839 3.1942)">
<stop offset="0.5839" stop-color="#003C61" stop-opacity="0"/>
<stop offset="0.6244" stop-color="#003C61" stop-opacity="0.0730316"/>
<stop offset="0.6809" stop-color="#003C61" stop-opacity="0.1749"/>
<stop offset="0.7469" stop-color="#003C61" stop-opacity="0.2938"/>
<stop offset="0.82" stop-color="#003C61" stop-opacity="0.4256"/>
<stop offset="0.899" stop-color="#003C61" stop-opacity="0.568"/>
<stop offset="0.9818" stop-color="#003C61" stop-opacity="0.7172"/>
<stop offset="1" stop-color="#003C61" stop-opacity="0.75"/>
</radialGradient>
<radialGradient id="paint9_radial_4044_5568" cx="0" cy="0" r="1" gradientUnits="userSpaceOnUse" gradientTransform="translate(4.07287 6.48542) rotate(75.379) scale(3.45168 3.54696)">
<stop stop-color="#003C61" stop-opacity="0"/>
<stop offset="0.1913" stop-color="#003C61" stop-opacity="0.1435"/>
<stop offset="0.458" stop-color="#003C61" stop-opacity="0.3435"/>
<stop offset="0.7676" stop-color="#003C61" stop-opacity="0.5757"/>
<stop offset="1" stop-color="#003C61" stop-opacity="0.75"/>
</radialGradient>
<radialGradient id="paint10_radial_4044_5568" cx="0" cy="0" r="1" gradientUnits="userSpaceOnUse" gradientTransform="translate(4.531 5.68951) rotate(41.4093) scale(0.674146 0.452978)">
<stop stop-color="white"/>
<stop offset="1" stop-color="white" stop-opacity="0"/>
</radialGradient>
<radialGradient id="paint11_radial_4044_5568" cx="0" cy="0" r="1" gradientUnits="userSpaceOnUse" gradientTransform="translate(4.07396 6.48465) rotate(75.379) scale(3.45165 3.54695)">
<stop stop-color="#003C61" stop-opacity="0.2"/>
<stop offset="0.1913" stop-color="#003C61" stop-opacity="0.64"/>
<stop offset="0.458" stop-color="#003C61" stop-opacity="0.74"/>
<stop offset="0.7676" stop-color="#003C61" stop-opacity="0.88"/>
<stop offset="1" stop-color="#003C61" stop-opacity="0.85"/>
</radialGradient>
<linearGradient id="paint12_linear_4044_5568" x1="4.39796" y1="6.19039" x2="1.35234" y2="5.76308" gradientUnits="userSpaceOnUse">
<stop stop-color="#003C61" stop-opacity="0"/>
<stop offset="1" stop-color="#003C61" stop-opacity="0.75"/>
</linearGradient>
<radialGradient id="paint13_radial_4044_5568" cx="0" cy="0" r="1" gradientUnits="userSpaceOnUse" gradientTransform="translate(4.85176 6.68302) rotate(73.8968) scale(0.985947 0.424206)">
<stop stop-color="white"/>
<stop offset="1" stop-color="white" stop-opacity="0"/>
</radialGradient>
<linearGradient id="paint14_linear_4044_5568" x1="9.18282" y1="1.76451" x2="1.46999" y2="10.2379" gradientUnits="userSpaceOnUse">
<stop stop-color="#003C61" stop-opacity="0"/>
<stop offset="1" stop-color="#003C61" stop-opacity="0.7"/>
</linearGradient>
<radialGradient id="paint15_radial_4044_5568" cx="0" cy="0" r="1" gradientUnits="userSpaceOnUse" gradientTransform="translate(8.53833 2.99787) rotate(75.379) scale(3.91672 4.02483)">
<stop offset="0.5839" stop-color="#003C61" stop-opacity="0"/>
<stop offset="0.6244" stop-color="#003C61" stop-opacity="0.0730316"/>
<stop offset="0.6809" stop-color="#003C61" stop-opacity="0.1749"/>
<stop offset="0.7469" stop-color="#003C61" stop-opacity="0.2938"/>
<stop offset="0.82" stop-color="#003C61" stop-opacity="0.4256"/>
<stop offset="0.899" stop-color="#003C61" stop-opacity="0.568"/>
<stop offset="0.9818" stop-color="#003C61" stop-opacity="0.7172"/>
<stop offset="1" stop-color="#003C61" stop-opacity="0.75"/>
</radialGradient>
<radialGradient id="paint16_radial_4044_5568" cx="0" cy="0" r="1" gradientUnits="userSpaceOnUse" gradientTransform="translate(7.28284 4.1448) rotate(75.379) scale(4.34924 4.46932)">
<stop stop-color="#003C61" stop-opacity="0.2"/>
<stop offset="0.1913" stop-color="#003C61" stop-opacity="0.64"/>
<stop offset="0.458" stop-color="#003C61" stop-opacity="0.74"/>
<stop offset="0.7676" stop-color="#003C61" stop-opacity="0.88"/>
<stop offset="1" stop-color="#003C61" stop-opacity="0.85"/>
</radialGradient>
<radialGradient id="paint17_radial_4044_5568" cx="0" cy="0" r="1" gradientUnits="userSpaceOnUse" gradientTransform="translate(7.85878 3.14365) rotate(41.4093) scale(0.849455 0.570774)">
<stop stop-color="white"/>
<stop offset="1" stop-color="white" stop-opacity="0"/>
</radialGradient>
<radialGradient id="paint18_radial_4044_5568" cx="0" cy="0" r="1" gradientUnits="userSpaceOnUse" gradientTransform="translate(7.28284 4.1448) rotate(75.379) scale(4.34924 4.46932)">
<stop stop-color="#003C61" stop-opacity="0"/>
<stop offset="0.1913" stop-color="#003C61" stop-opacity="0.1435"/>
<stop offset="0.458" stop-color="#003C61" stop-opacity="0.3435"/>
<stop offset="0.7676" stop-color="#003C61" stop-opacity="0.5757"/>
<stop offset="1" stop-color="#003C61" stop-opacity="0.75"/>
</radialGradient>
<linearGradient id="paint19_linear_4044_5568" x1="7.69151" y1="3.7741" x2="3.85389" y2="3.23567" gradientUnits="userSpaceOnUse">
<stop stop-color="#003C61" stop-opacity="0"/>
<stop offset="1" stop-color="#003C61" stop-opacity="0.75"/>
</linearGradient>
<radialGradient id="paint20_radial_4044_5568" cx="0" cy="0" r="1" gradientUnits="userSpaceOnUse" gradientTransform="translate(8.26348 4.39555) rotate(73.8968) scale(1.24234 0.534519)">
<stop stop-color="white"/>
<stop offset="1" stop-color="white" stop-opacity="0"/>
</radialGradient>
<clipPath id="clip0_4044_5568">
<rect width="18" height="20" fill="white" transform="translate(4 3)"/>
</clipPath>
</defs>
</svg>
