<svg width="26" height="24" viewBox="0 0 26 24" fill="none" xmlns="http://www.w3.org/2000/svg">
<rect x="7.49268" y="9" width="11" height="5" fill="white"/>
<g clip-path="url(#clip0_4044_36079)">
<path fill-rule="evenodd" clip-rule="evenodd" d="M9.33552 7.81013V6.79747C9.33552 4.70127 10.9772 3 13 3C15.0228 3 16.6645 4.70127 16.6645 6.79747V7.81013C19.2834 7.82025 20.6808 7.93165 21.4626 8.92405C22.342 10.038 22.0196 11.719 21.3648 15.081L20.7785 18.119C20.329 20.4582 20.1043 21.6228 19.2932 22.3114C18.4821 23 17.329 23 15.0326 23H10.9674C8.67103 23 7.51794 23 6.70686 22.3114C5.89579 21.6228 5.67103 20.4582 5.22152 18.119L4.6352 15.081C3.98048 11.719 3.658 10.038 4.53748 8.92405C5.31924 7.93165 6.71663 7.83038 9.33552 7.81013ZM10.8013 6.79747C10.8013 5.54177 11.7883 4.51899 13 4.51899C14.2117 4.51899 15.1987 5.54177 15.1987 6.79747V7.81013H10.8013V6.79747ZM15.9316 11.8608C16.4691 11.8608 16.9088 11.4051 16.9088 10.8481C16.9088 10.2911 16.4691 9.83544 15.9316 9.83544C15.3942 9.83544 14.9544 10.2911 14.9544 10.8481C14.9544 11.4051 15.3942 11.8608 15.9316 11.8608ZM11.0456 10.8481C11.0456 11.4051 10.6059 11.8608 10.0684 11.8608C9.53096 11.8608 9.09123 11.4051 9.09123 10.8481C9.09123 10.2911 9.53096 9.83544 10.0684 9.83544C10.6059 9.83544 11.0456 10.2911 11.0456 10.8481Z" fill="#949D9E"/>
<path fill-rule="evenodd" clip-rule="evenodd" d="M16.6646 7.7998C19.2835 7.80993 20.6809 7.92132 21.4627 8.91373C22.3422 10.0277 22.0197 11.7087 21.365 15.0707L20.7786 18.1087C20.3291 20.4479 20.1044 21.6125 19.2933 22.3011C18.4822 22.9897 17.3291 22.9897 15.0327 22.9897C15.0327 22.9897 18.6288 23.3441 19.4203 18.1796C19.8601 15.2935 20.4757 13.2479 20.6418 11.7694C20.7884 10.4631 20.0262 9.21753 18.8536 8.72132L16.6744 7.7998H16.6646Z" fill="#798586"/>
</g>
<defs>
<clipPath id="clip0_4044_36079">
<rect width="18" height="20" fill="white" transform="translate(4 3)"/>
</clipPath>
</defs>
</svg>
