<svg width="32" height="32" viewBox="0 0 32 32" fill="none" xmlns="http://www.w3.org/2000/svg">
<mask id="mask0_4055_41467" style="mask-type:luminance" maskUnits="userSpaceOnUse" x="5" y="4" width="22" height="24">
<path d="M26.6 4H5V28H26.6V4Z" fill="white"/>
</mask>
<g mask="url(#mask0_4055_41467)">
<path d="M11.4199 25.89C12.4299 27.17 14.0099 28 15.7999 28C17.5899 28 19.1699 27.17 20.1799 25.89C17.2799 26.29 14.3399 26.29 11.4199 25.89Z" fill="#F1F1F1"/>
<path d="M23.9002 12.4V13.24C23.9002 14.26 24.1902 15.24 24.7302 16.08L26.0602 18.14C27.2702 20.02 26.3502 22.59 24.2402 23.19C18.7202 24.75 12.8902 24.75 7.37016 23.19C5.26016 22.59 4.33016 20.02 5.55016 18.14L6.88016 16.08C7.42016 15.24 7.71016 14.24 7.71016 13.24V12.4C7.70016 7.76 11.3202 4 15.8002 4C20.2802 4 23.9002 7.76 23.9002 12.4Z" fill="white"/>
<path d="M15.8003 3.99999C20.2803 3.99999 23.9003 7.75999 23.9003 12.4V13.26C23.9003 14.27 24.1903 15.25 24.7303 16.09L26.0603 18.15C27.2703 20.03 26.3503 22.6 24.2403 23.2C24.2403 23.2 27.4903 21.17 22.9703 16.47C22.5403 16.01 22.2103 15.46 22.0903 14.85C21.9503 14.15 21.8603 13.12 22.0203 11.65C22.3703 8.40999 15.8003 3.98999 15.8003 3.98999V3.99999Z" fill="#F1F1F1"/>
</g>
<path d="M12 7.50024C10.7498 8.49048 9.92018 10.2 9.68018 12.29Z" fill="#00CCBC"/>
<path d="M12 7.50024C10.7498 8.49048 9.92018 10.2 9.68018 12.29" stroke="#F9F9F9" stroke-linecap="round"/>
</svg>
