<svg width="24" height="25" viewBox="0 0 24 25" fill="none" xmlns="http://www.w3.org/2000/svg">
<g clip-path="url(#clip0_745_10352)">
<path fill-rule="evenodd" clip-rule="evenodd" d="M12.7765 2.54582C12.5217 2.51555 12.2626 2.5 12 2.5C8.27256 2.5 5.25087 5.63401 5.25087 9.5V10.2041C5.25087 11.0491 5.00972 11.8752 4.5578 12.5782L3.45036 14.3012C2.43882 15.8749 3.21105 18.0139 4.97036 18.5116C9.57274 19.8134 14.4273 19.8134 19.0296 18.5116C20.789 18.0139 21.5612 15.8749 20.5496 14.3012L19.4422 12.5782C19.2135 12.2224 19.0387 11.835 18.9219 11.4296C18.6214 11.476 18.3135 11.5 18 11.5C14.6863 11.5 12 8.81371 12 5.5C12 4.426 12.2822 3.41791 12.7765 2.54582ZM8.35179 20.7418C9.19288 21.811 10.5142 22.5 12 22.5C13.4858 22.5 14.8071 21.811 15.6482 20.7418C13.2264 21.07 10.7736 21.07 8.35179 20.7418Z" fill="white"/>
<path d="M23 5.5C23 8.26142 20.7614 10.5 18 10.5C15.2386 10.5 13 8.26142 13 5.5C13 2.73858 15.2386 0.5 18 0.5C20.7614 0.5 23 2.73858 23 5.5Z" fill="#F7192D"/>
</g>
<defs>
<clipPath id="clip0_745_10352">
<rect y="0.5" width="24" height="24" rx="5" fill="white"/>
</clipPath>
</defs>
</svg>
