<svg width="20" height="21" viewBox="0 0 20 21" fill="none" xmlns="http://www.w3.org/2000/svg">
<path d="M14.1667 12.1663C14.6269 12.1663 15 11.7932 15 11.333C15 10.8728 14.6269 10.4997 14.1667 10.4997C13.7065 10.4997 13.3334 10.8728 13.3334 11.333C13.3334 11.7932 13.7065 12.1663 14.1667 12.1663Z" fill="#8E8E93"/>
<path d="M14.1667 15.4997C14.6269 15.4997 15 15.1266 15 14.6663C15 14.2061 14.6269 13.833 14.1667 13.833C13.7065 13.833 13.3334 14.2061 13.3334 14.6663C13.3334 15.1266 13.7065 15.4997 14.1667 15.4997Z" fill="#8E8E93"/>
<path d="M10.8334 11.333C10.8334 11.7932 10.4603 12.1663 10 12.1663C9.53978 12.1663 9.16669 11.7932 9.16669 11.333C9.16669 10.8728 9.53978 10.4997 10 10.4997C10.4603 10.4997 10.8334 10.8728 10.8334 11.333Z" fill="#8E8E93"/>
<path d="M10.8334 14.6663C10.8334 15.1266 10.4603 15.4997 10 15.4997C9.53978 15.4997 9.16669 15.1266 9.16669 14.6663C9.16669 14.2061 9.53978 13.833 10 13.833C10.4603 13.833 10.8334 14.2061 10.8334 14.6663Z" fill="#8E8E93"/>
<path d="M5.83335 12.1663C6.29359 12.1663 6.66669 11.7932 6.66669 11.333C6.66669 10.8728 6.29359 10.4997 5.83335 10.4997C5.37312 10.4997 5.00002 10.8728 5.00002 11.333C5.00002 11.7932 5.37312 12.1663 5.83335 12.1663Z" fill="#8E8E93"/>
<path d="M5.83335 15.4997C6.29359 15.4997 6.66669 15.1266 6.66669 14.6663C6.66669 14.2061 6.29359 13.833 5.83335 13.833C5.37312 13.833 5.00002 14.2061 5.00002 14.6663C5.00002 15.1266 5.37312 15.4997 5.83335 15.4997Z" fill="#8E8E93"/>
<path fill-rule="evenodd" clip-rule="evenodd" d="M5.83335 1.95801C6.17853 1.95801 6.45835 2.23783 6.45835 2.58301V3.21861C7.01002 3.208 7.61779 3.208 8.28624 3.20801H11.7137C12.3822 3.208 12.99 3.208 13.5417 3.21861V2.58301C13.5417 2.23783 13.8215 1.95801 14.1667 1.95801C14.5119 1.95801 14.7917 2.23783 14.7917 2.58301V3.27225C15.0083 3.28876 15.2134 3.30952 15.4075 3.33562C16.3846 3.46698 17.1753 3.74374 17.799 4.36738C18.4226 4.99101 18.6994 5.7818 18.8307 6.75882C18.9584 7.70816 18.9584 8.92118 18.9584 10.4526V12.2134C18.9584 13.7448 18.9584 14.9579 18.8307 15.9072C18.6994 16.8842 18.4226 17.675 17.799 18.2986C17.1753 18.9223 16.3846 19.199 15.4075 19.3304C14.4582 19.458 13.2452 19.458 11.7137 19.458H8.28635C6.75489 19.458 5.54184 19.458 4.5925 19.3304C3.61548 19.199 2.82469 18.9223 2.20106 18.2986C1.57742 17.675 1.30066 16.8842 1.1693 15.9072C1.04166 14.9578 1.04167 13.7448 1.04169 12.2134V10.4527C1.04167 8.92119 1.04166 7.70817 1.1693 6.75882C1.30066 5.7818 1.57742 4.99101 2.20106 4.36738C2.82469 3.74374 3.61548 3.46698 4.5925 3.33562C4.78661 3.30952 4.99174 3.28876 5.20835 3.27225V2.58301C5.20835 2.23783 5.48818 1.95801 5.83335 1.95801ZM4.75906 4.57447C3.92065 4.68719 3.43761 4.89859 3.08494 5.25126C2.73227 5.60393 2.52087 6.08697 2.40815 6.92538C2.38906 7.06737 2.3731 7.21685 2.35976 7.37467H17.6403C17.6269 7.21685 17.611 7.06737 17.5919 6.92538C17.4792 6.08697 17.2678 5.60393 16.9151 5.25126C16.5624 4.89859 16.0794 4.68719 15.241 4.57447C14.3846 4.45933 13.2557 4.45801 11.6667 4.45801H8.33335C6.74434 4.45801 5.61545 4.45933 4.75906 4.57447ZM2.29169 10.4997C2.29169 9.788 2.29195 9.16861 2.30259 8.62467H17.6974C17.7081 9.16861 17.7084 9.788 17.7084 10.4997V12.1663C17.7084 13.7554 17.707 14.8842 17.5919 15.7406C17.4792 16.579 17.2678 17.0621 16.9151 17.4148C16.5624 17.7674 16.0794 17.9788 15.241 18.0915C14.3846 18.2067 13.2557 18.208 11.6667 18.208H8.33335C6.74434 18.208 5.61545 18.2067 4.75906 18.0915C3.92065 17.9788 3.43761 17.7674 3.08494 17.4148C2.73227 17.0621 2.52087 16.579 2.40815 15.7406C2.29301 14.8842 2.29169 13.7554 2.29169 12.1663V10.4997Z" fill="#8E8E93"/>
</svg>
