<svg width="164" height="163" viewBox="0 0 164 163" fill="none" xmlns="http://www.w3.org/2000/svg">
<path d="M115.958 95.0834C119.709 95.0834 122.75 92.0427 122.75 88.2917C122.75 84.5408 119.709 81.5001 115.958 81.5001C112.207 81.5001 109.167 84.5408 109.167 88.2917C109.167 92.0427 112.207 95.0834 115.958 95.0834Z" fill="#F17000"/>
<path d="M115.958 122.25C119.709 122.25 122.75 119.209 122.75 115.458C122.75 111.707 119.709 108.667 115.958 108.667C112.207 108.667 109.167 111.707 109.167 115.458C109.167 119.209 112.207 122.25 115.958 122.25Z" fill="#F17000"/>
<path d="M88.7916 88.2917C88.7916 92.0427 85.7509 95.0834 82 95.0834C78.249 95.0834 75.2083 92.0427 75.2083 88.2917C75.2083 84.5408 78.249 81.5001 82 81.5001C85.7509 81.5001 88.7916 84.5408 88.7916 88.2917Z" fill="#F17000"/>
<path d="M88.7916 115.458C88.7916 119.209 85.7509 122.25 82 122.25C78.249 122.25 75.2083 119.209 75.2083 115.458C75.2083 111.707 78.249 108.667 82 108.667C85.7509 108.667 88.7916 111.707 88.7916 115.458Z" fill="#F17000"/>
<path d="M48.0417 95.0834C51.7926 95.0834 54.8333 92.0427 54.8333 88.2917C54.8333 84.5408 51.7926 81.5001 48.0417 81.5001C44.2907 81.5001 41.25 84.5408 41.25 88.2917C41.25 92.0427 44.2907 95.0834 48.0417 95.0834Z" fill="#F17000"/>
<path d="M48.0417 122.25C51.7926 122.25 54.8333 119.209 54.8333 115.458C54.8333 111.707 51.7926 108.667 48.0417 108.667C44.2907 108.667 41.25 111.707 41.25 115.458C41.25 119.209 44.2907 122.25 48.0417 122.25Z" fill="#F17000"/>
<path fill-rule="evenodd" clip-rule="evenodd" d="M48.0417 11.8855C50.8549 11.8855 53.1354 14.166 53.1354 16.9792V22.1594C57.6315 22.0729 62.5848 22.0729 68.0326 22.073H95.9665C101.414 22.0729 106.368 22.0729 110.865 22.1594V16.9792C110.865 14.166 113.145 11.8855 115.958 11.8855C118.772 11.8855 121.052 14.166 121.052 16.9792V22.5965C122.818 22.7311 124.489 22.9003 126.071 23.113C134.034 24.1836 140.479 26.4392 145.562 31.5219C150.644 36.6045 152.9 43.0494 153.97 51.0121C155.011 58.7492 155.01 68.6353 155.01 81.1166V95.4665C155.01 107.948 155.011 117.834 153.97 125.571C152.9 133.534 150.644 139.979 145.562 145.062C140.479 150.144 134.034 152.4 126.071 153.47C118.334 154.511 108.448 154.511 95.9668 154.51H68.0335C55.5522 154.511 45.6658 154.511 37.9287 153.47C29.966 152.4 23.5211 150.144 18.4384 145.062C13.3558 139.979 11.1002 133.534 10.0296 125.571C8.98937 117.834 8.98946 107.948 8.98957 95.4666V81.1169C8.98946 68.6355 8.98937 58.7493 10.0296 51.0121C11.1002 43.0494 13.3558 36.6045 18.4384 31.5219C23.5211 26.4392 29.966 24.1836 37.9287 23.113C39.5107 22.9003 41.1825 22.7311 42.9479 22.5965V16.9792C42.9479 14.166 45.2285 11.8855 48.0417 11.8855ZM39.2862 33.2097C32.4531 34.1284 28.5164 35.8512 25.6421 38.7255C22.7678 41.5998 21.0449 45.5366 20.1263 52.3696C19.9707 53.5268 19.8406 54.7451 19.7318 56.0313H144.268C144.159 54.7451 144.029 53.5268 143.874 52.3696C142.955 45.5366 141.232 41.5998 138.358 38.7255C135.484 35.8512 131.547 34.1284 124.714 33.2097C117.734 32.2713 108.534 32.2605 95.5833 32.2605H68.4167C55.4662 32.2605 46.2657 32.2713 39.2862 33.2097ZM19.1771 81.5001C19.1771 75.6999 19.1792 70.6519 19.2659 66.2188H144.734C144.821 70.6519 144.823 75.6999 144.823 81.5001V95.0834C144.823 108.034 144.812 117.234 143.874 124.214C142.955 131.047 141.232 134.984 138.358 137.858C135.484 140.732 131.547 142.455 124.714 143.374C117.734 144.312 108.534 144.323 95.5833 144.323H68.4167C55.4662 144.323 46.2657 144.312 39.2862 143.374C32.4531 142.455 28.5164 140.732 25.6421 137.858C22.7678 134.984 21.0449 131.047 20.1263 124.214C19.1879 117.234 19.1771 108.034 19.1771 95.0834V81.5001Z" fill="#F17000"/>
</svg>
