<svg width="32" height="32" viewBox="0 0 32 32" fill="none" xmlns="http://www.w3.org/2000/svg">
<path d="M0 12.8C0 8.31958 0 6.07937 0.871948 4.36808C1.63893 2.86278 2.86278 1.63893 4.36808 0.871948C6.07937 0 8.31958 0 12.8 0H19.2C23.6804 0 25.9206 0 27.6319 0.871948C29.1372 1.63893 30.3611 2.86278 31.1281 4.36808C32 6.07937 32 8.31958 32 12.8V19.2C32 23.6804 32 25.9206 31.1281 27.6319C30.3611 29.1372 29.1372 30.3611 27.6319 31.1281C25.9206 32 23.6804 32 19.2 32H12.8C8.31958 32 6.07937 32 4.36808 31.1281C2.86278 30.3611 1.63893 29.1372 0.871948 27.6319C0 25.9206 0 23.6804 0 19.2V12.8Z" fill="#0096FF"/>
<path d="M18.9635 18.1231L18.5839 18.5227C18.5839 18.5227 17.6818 19.4725 15.2193 16.8799C12.7568 14.2874 13.6589 13.3376 13.6589 13.3376L13.8979 13.0859C14.4867 12.466 14.5422 11.4708 14.0285 10.7443L12.9777 9.25801C12.3419 8.35875 11.1133 8.23996 10.3845 9.0072L9.07654 10.3843C8.71519 10.7647 8.47304 11.2579 8.50241 11.8049C8.57753 13.2045 9.1756 16.2159 12.5128 19.7293C16.0518 23.4552 19.3724 23.6033 20.7302 23.4692C21.1597 23.4269 21.5333 23.1952 21.8343 22.8783L23.0181 21.632C23.8171 20.7908 23.5918 19.3485 22.5694 18.76L20.9774 17.8436C20.306 17.4572 19.4881 17.5707 18.9635 18.1231Z" fill="white"/>
<path d="M17.0494 7.56673C17.1046 7.22599 17.4267 6.99484 17.7674 7.05001C17.7885 7.05404 17.8564 7.06673 17.8919 7.07465C17.963 7.09048 18.0622 7.11486 18.1859 7.15089C18.4332 7.22292 18.7787 7.34159 19.1934 7.53171C20.0236 7.91233 21.1285 8.57817 22.275 9.72467C23.4215 10.8712 24.0873 11.976 24.468 12.8062C24.6581 13.2209 24.7767 13.5664 24.8488 13.8137C24.8848 13.9374 24.9092 14.0366 24.925 14.1077C24.9329 14.1433 24.9387 14.1718 24.9428 14.1929L24.9475 14.2189C25.0027 14.5597 24.7737 14.8951 24.4329 14.9502C24.0932 15.0053 23.7731 14.7752 23.7166 14.4361C23.7148 14.427 23.71 14.4025 23.7049 14.3794C23.6946 14.3333 23.6768 14.2601 23.6486 14.1633C23.5922 13.9697 23.4943 13.6819 23.3317 13.3272C23.0068 12.6186 22.4227 11.6401 21.3911 10.6086C20.3595 9.577 19.3811 8.99284 18.6725 8.66798C18.3177 8.50535 18.03 8.40741 17.8363 8.35101C17.7396 8.32282 17.6179 8.2949 17.5717 8.28462C17.2326 8.2281 16.9944 7.9065 17.0494 7.56673Z" fill="#F9FBFB"/>
<path fill-rule="evenodd" clip-rule="evenodd" d="M17.238 10.4413C17.3328 10.1094 17.6787 9.9172 18.0106 10.012L17.8389 10.613C18.0106 10.012 18.0106 10.012 18.0106 10.012L18.0118 10.0124L18.0131 10.0127L18.0159 10.0136L18.0223 10.0155L18.0388 10.0206C18.0514 10.0246 18.0671 10.0299 18.0858 10.0365C18.1232 10.0498 18.1727 10.0687 18.2333 10.0947C18.3547 10.1467 18.5206 10.2271 18.7244 10.3477C19.1323 10.5891 19.6891 10.99 20.3432 11.6442C20.9974 12.2983 21.3984 12.8551 21.6398 13.263C21.7604 13.4668 21.8407 13.6327 21.8927 13.7541C21.9187 13.8148 21.9376 13.8642 21.9509 13.9016C21.9575 13.9204 21.9628 13.936 21.9668 13.9486L21.9719 13.9651L21.9739 13.9716L21.9747 13.9743L21.975 13.9756C21.975 13.9756 21.9754 13.9768 21.3744 14.1485L21.9754 13.9768C22.0702 14.3087 21.878 14.6546 21.5461 14.7495C21.2171 14.8435 20.8742 14.6554 20.776 14.3286L20.7729 14.3197C20.7684 14.3071 20.7592 14.2825 20.7438 14.2465C20.713 14.1745 20.6571 14.0568 20.564 13.8997C20.3782 13.5857 20.0427 13.1114 19.4594 12.5281C18.8761 11.9448 18.4017 11.6092 18.0877 11.4234C17.9306 11.3304 17.8129 11.2744 17.7409 11.2436C17.7049 11.2282 17.6803 11.219 17.6678 11.2145L17.6588 11.2115C17.3321 11.1132 17.1439 10.7704 17.238 10.4413Z" fill="#F9FBFB"/>
</svg>
