<svg width="32" height="32" viewBox="0 0 32 32" fill="none" xmlns="http://www.w3.org/2000/svg">
<path d="M0 12.8C0 8.31958 0 6.07937 0.871948 4.36808C1.63893 2.86278 2.86278 1.63893 4.36808 0.871948C6.07937 0 8.31958 0 12.8 0H19.2C23.6804 0 25.9206 0 27.6319 0.871948C29.1372 1.63893 30.3611 2.86278 31.1281 4.36808C32 6.07937 32 8.31958 32 12.8V19.2C32 23.6804 32 25.9206 31.1281 27.6319C30.3611 29.1372 29.1372 30.3611 27.6319 31.1281C25.9206 32 23.6804 32 19.2 32H12.8C8.31958 32 6.07937 32 4.36808 31.1281C2.86278 30.3611 1.63893 29.1372 0.871948 27.6319C0 25.9206 0 23.6804 0 19.2V12.8Z" fill="#34A853"/>
<path d="M18.3334 14.6665H13.6666C13.3 14.6665 13 14.9665 13 15.3331V19.3331C13 19.6997 13.3 19.9999 13.6666 19.9999H14.3332V21.3333L16.3332 19.9999H18.3332C18.6998 19.9999 19 19.6997 19 19.3333V15.3333C19 14.9667 18.6998 14.6665 18.3334 14.6665Z" fill="white"/>
<path d="M12.936 11.6027L13.643 12.3097C14.9452 11.0077 17.0554 11.0077 18.357 12.3097L19.0646 11.6027C17.3718 9.9101 14.6288 9.9101 12.936 11.6027Z" fill="white"/>
<path d="M22.6666 14.6666C22.6666 10.9844 19.683 8 16 8C12.318 8 9.3334 10.9844 9.3334 14.6666C8.597 14.6666 8 15.2636 8 16V20C8 20.7364 8.597 21.3334 9.3334 21.3334H11.3334C11.7016 21.3334 12 21.0352 12 20.6666V17.3334C12 16.9668 11.8336 16.4166 11.6302 16.112L10.6668 14.6668C10.6668 11.7208 13.0544 9.3334 16.0002 9.3334C18.9468 9.3334 21.3336 11.7208 21.3336 14.6668L20.37 16.112C20.1666 16.4166 20 16.9668 20 17.3334V20.853C19.0228 21.963 17.5952 22.6666 16 22.6666H14.6666V24H16C18.1796 24 20.108 22.9498 21.3242 21.3334H22.6666C23.403 21.3334 24 20.7364 24 20V16C24 15.2636 23.403 14.6666 22.6666 14.6666Z" fill="white"/>
</svg>
