<svg width="28" height="28" viewBox="0 0 28 28" fill="none" xmlns="http://www.w3.org/2000/svg">
<path d="M17.2668 12.1332H10.7333C10.22 12.1332 9.80005 12.5532 9.80005 13.0665V18.6665C9.80005 19.1797 10.22 19.6 10.7333 19.6H11.6665V21.4668L14.4665 19.6H17.2665C17.7798 19.6 18.2 19.1797 18.2 18.6668V13.0668C18.2 12.5535 17.7798 12.1332 17.2668 12.1332Z" fill="white"/>
<path d="M9.71008 7.84393L10.6999 8.83373C12.523 7.01093 15.4772 7.01093 17.2995 8.83373L18.2901 7.84393C15.9202 5.47429 12.08 5.47429 9.71008 7.84393Z" fill="white"/>
<path d="M23.3333 12.1332C23.3333 6.97816 19.1562 2.8 14 2.8C8.84525 2.8 4.66681 6.97816 4.66681 12.1332C3.63585 12.1332 2.80005 12.969 2.80005 14V19.6C2.80005 20.631 3.63585 21.4668 4.66681 21.4668H7.46681C7.98229 21.4668 8.40005 21.0493 8.40005 20.5332V15.8668C8.40005 15.3535 8.16709 14.5832 7.88233 14.1568L6.53357 12.1335C6.53357 8.00912 9.87621 4.66676 14.0003 4.66676C18.1256 4.66676 21.4671 8.00912 21.4671 12.1335L20.118 14.1568C19.8333 14.5832 19.6 15.3535 19.6 15.8668V20.7942C18.232 22.3482 16.2333 23.3332 14 23.3332H12.1333V25.2H14C17.0515 25.2 19.7513 23.7297 21.4539 21.4668H23.3333C24.3643 21.4668 25.2001 20.631 25.2001 19.6V14C25.2001 12.969 24.3643 12.1332 23.3333 12.1332Z" fill="white"/>
</svg>
