<svg width="32" height="32" viewBox="0 0 32 32" fill="none" xmlns="http://www.w3.org/2000/svg">
<path d="M0 12.8C0 8.31958 0 6.07937 0.871948 4.36808C1.63893 2.86278 2.86278 1.63893 4.36808 0.871948C6.07937 0 8.31958 0 12.8 0H19.2C23.6804 0 25.9206 0 27.6319 0.871948C29.1372 1.63893 30.3611 2.86278 31.1281 4.36808C32 6.07937 32 8.31958 32 12.8V19.2C32 23.6804 32 25.9206 31.1281 27.6319C30.3611 29.1372 29.1372 30.3611 27.6319 31.1281C25.9206 32 23.6804 32 19.2 32H12.8C8.31958 32 6.07937 32 4.36808 31.1281C2.86278 30.3611 1.63893 29.1372 0.871948 27.6319C0 25.9206 0 23.6804 0 19.2V12.8Z" fill="#171717"/>
<path fill-rule="evenodd" clip-rule="evenodd" d="M14.1482 23.5H17.8519C20.4527 23.5 21.7532 23.5 22.6873 22.8872C23.0917 22.6219 23.439 22.2809 23.7092 21.8839C24.3334 20.9667 24.3334 19.6899 24.3334 17.1364C24.3334 14.5828 24.3334 13.306 23.7092 12.3888C23.439 11.9918 23.0917 11.6509 22.6873 11.3856C22.0871 10.9918 21.3356 10.851 20.185 10.8007C19.636 10.8007 19.1633 10.3922 19.0556 9.86364C18.8941 9.07074 18.185 8.5 17.3614 8.5H14.6386C13.8151 8.5 13.106 9.07074 12.9445 9.86364C12.8368 10.3922 12.3641 10.8007 11.815 10.8007C10.6645 10.851 9.91298 10.9918 9.31272 11.3856C8.90832 11.6509 8.56109 11.9918 8.29087 12.3888C7.66669 13.306 7.66669 14.5828 7.66669 17.1364C7.66669 19.6899 7.66669 20.9667 8.29087 21.8839C8.56109 22.2809 8.90832 22.6219 9.31272 22.8872C10.2469 23.5 11.5473 23.5 14.1482 23.5ZM16 13.7273C14.0824 13.7273 12.5278 15.2536 12.5278 17.1364C12.5278 19.0192 14.0824 20.5455 16 20.5455C17.9177 20.5455 19.4722 19.0192 19.4722 17.1364C19.4722 15.2536 17.9177 13.7273 16 13.7273ZM16 15.0909C14.8494 15.0909 13.9167 16.0067 13.9167 17.1364C13.9167 18.266 14.8494 19.1818 16 19.1818C17.1506 19.1818 18.0834 18.266 18.0834 17.1364C18.0834 16.0067 17.1506 15.0909 16 15.0909ZM19.9352 14.4091C19.9352 14.0325 20.2461 13.7273 20.6297 13.7273H21.5556C21.9391 13.7273 22.25 14.0325 22.25 14.4091C22.25 14.7856 21.9391 15.0909 21.5556 15.0909H20.6297C20.2461 15.0909 19.9352 14.7856 19.9352 14.4091Z" fill="white"/>
</svg>
