<svg width="135" height="113" viewBox="0 0 135 113" fill="none" xmlns="http://www.w3.org/2000/svg">
<path d="M117.438 100.783C102.271 116.131 33.4145 115.679 20.3255 103.701C2.9603 87.8123 -8.41339 32.2888 7.86701 16.5521C32.1825 -6.95179 119.124 -5.29695 131.163 20.7049C138.657 36.8356 133.24 84.7759 117.441 100.786L117.438 100.783Z" fill="#00DAE8"/>
<path d="M36.9107 91.906L36.7955 91.8878C38.387 81.7218 35.4071 72.9627 32.6242 67.4052C29.608 61.3809 26.1703 57.7153 26.137 57.6789L26.2218 57.6001C26.2552 57.6365 29.705 61.3142 32.7273 67.3507C35.5193 72.9233 38.5113 81.7097 36.9107 91.906Z" fill="#DAE4FE"/>
<path d="M33.9036 69.8286L33.7885 69.8498C33.1488 66.3449 35.0586 62.0791 35.0798 62.0366L35.1859 62.0851C35.1678 62.1276 33.2731 66.3631 33.9036 69.8286Z" fill="#DAE4FE"/>
<path d="M37.1623 81.4645L37.0471 81.4494C37.0562 81.3888 37.9596 75.3674 40.3211 72.0293L40.415 72.096C38.0687 75.4129 37.1714 81.4069 37.1623 81.4676V81.4645Z" fill="#DAE4FE"/>
<path d="M38.5687 75.9191H38.4535C38.4322 73.4117 37.35 71.0044 37.3379 70.9802L37.444 70.9316C37.4561 70.9559 38.5474 73.3844 38.5687 75.9191Z" fill="#DAE4FE"/>
<path d="M37.8352 78.4966L37.7412 78.4298C37.7412 78.4298 38.3202 77.6294 39.1902 76.7866C39.9966 76.0043 41.2304 75.0159 42.5309 74.7461L42.5551 74.8613C40.1057 75.3646 37.8564 78.4693 37.8352 78.4996V78.4966Z" fill="#DAE4FE"/>
<path d="M38.393 56.024C34.7947 55.4206 34.8614 62.5668 34.8614 62.5668C34.8614 62.5668 41.9914 56.6273 38.393 56.024ZM37.6928 56.3969C37.6018 56.4727 37.4897 56.5909 37.3502 56.7274C37.2138 56.8638 37.0683 57.0396 36.9258 57.2276C36.7803 57.4156 36.6378 57.6278 36.5075 57.8431C36.4438 57.9522 36.3771 58.0614 36.3195 58.1705C36.2619 58.2827 36.2074 58.3919 36.1528 58.501C36.1043 58.6102 36.0558 58.7163 36.0043 58.8163C35.9558 58.9164 35.9194 59.0164 35.883 59.1074C35.8072 59.2893 35.7466 59.4439 35.7072 59.55C35.6587 59.6592 35.6314 59.7198 35.6314 59.7198C35.6314 59.7198 35.6314 59.6531 35.6314 59.5349C35.6435 59.4197 35.6284 59.2438 35.6708 59.0468C35.692 58.9467 35.7072 58.8376 35.7314 58.7223C35.7587 58.6102 35.7921 58.4889 35.8315 58.3676C35.8739 58.2463 35.9254 58.1251 35.98 57.9977C36.0376 57.8764 36.1073 57.7582 36.171 57.6339C36.3226 57.4035 36.4832 57.1761 36.6681 56.9942C36.844 56.8032 37.0471 56.6667 37.2138 56.5485C37.3836 56.4302 37.5473 56.3696 37.6564 56.3241C37.7595 56.2908 37.8231 56.2726 37.8353 56.2726C37.8231 56.2817 37.7686 56.3211 37.6958 56.3908L37.6928 56.3969Z" fill="#DAE4FE"/>
<path d="M29.4777 54.6992C26.0613 55.9817 29.7021 62.1303 29.7021 62.1303C29.7021 62.1303 32.8972 53.4167 29.4777 54.6992ZM29.0594 55.3753C29.017 55.4844 28.9806 55.6451 28.9291 55.8331C28.8805 56.0211 28.8411 56.2424 28.8139 56.4789C28.7805 56.7154 28.7654 56.9701 28.7593 57.2217C28.7593 57.349 28.7593 57.4764 28.7593 57.6007C28.7654 57.725 28.7744 57.8493 28.7805 57.9706C28.7957 58.0888 28.8048 58.2071 28.8108 58.3192C28.8199 58.4314 28.8381 58.5345 28.8533 58.6315C28.8775 58.8256 28.9048 58.9893 28.923 59.1045C28.9351 59.2228 28.9442 59.2895 28.9442 59.2895C28.9442 59.2895 28.9109 59.2318 28.8502 59.1288C28.8017 59.0226 28.7017 58.8801 28.6411 58.6861C28.6107 58.5891 28.5653 58.486 28.5319 58.3769C28.4986 58.2647 28.4683 58.1434 28.441 58.0191C28.4167 57.8917 28.4016 57.7614 28.3834 57.6249C28.3743 57.4915 28.3713 57.3521 28.3652 57.2156C28.3804 56.9397 28.4046 56.6638 28.4743 56.4122C28.5319 56.1605 28.638 55.9392 28.7229 55.7543C28.8108 55.5693 28.923 55.4329 28.9927 55.3389C29.0624 55.257 29.1109 55.2116 29.12 55.2055C29.114 55.2207 29.0867 55.2813 29.0594 55.3783V55.3753Z" fill="#DAE4FE"/>
<path d="M28.9926 61.2636C28.9926 61.2636 22.9085 57.5162 21.5686 60.9119C20.2257 64.3076 28.9926 61.2636 28.9926 61.2636ZM22.0809 60.5602C22.0809 60.5602 22.1355 60.5026 22.2173 60.4329C22.3144 60.3631 22.4508 60.254 22.6387 60.1691C22.8267 60.0872 23.048 59.9841 23.2996 59.9326C23.5512 59.8689 23.827 59.8477 24.1029 59.8356C24.2393 59.8447 24.3788 59.8477 24.5121 59.8598C24.6455 59.878 24.7789 59.8962 24.9032 59.9235C25.0275 59.9508 25.1457 59.9872 25.2579 60.0205C25.37 60.0569 25.4701 60.1024 25.5671 60.1357C25.7611 60.1994 25.9005 60.3025 26.0066 60.354C26.1067 60.4147 26.1643 60.4511 26.1643 60.4511C26.1643 60.4511 26.0976 60.442 25.9794 60.4268C25.8672 60.4056 25.7005 60.3783 25.5095 60.348C25.4125 60.3328 25.3094 60.3116 25.1973 60.2995C25.0851 60.2904 24.9699 60.2813 24.8517 60.2631C24.7304 60.254 24.6092 60.2449 24.4818 60.2358C24.3575 60.2297 24.2302 60.2297 24.1029 60.2267C23.8483 60.2267 23.5967 60.2388 23.3602 60.2691C23.1237 60.2934 22.8994 60.3267 22.7115 60.3753C22.5235 60.4238 22.3629 60.4571 22.2537 60.4965C22.1567 60.5238 22.0961 60.5481 22.0809 60.5541V60.5602Z" fill="#DAE4FE"/>
<path d="M32.8152 67.6423C32.8152 67.6423 28.1498 62.2304 25.8459 65.0592C23.539 67.891 32.8152 67.6423 32.8152 67.6423ZM26.437 64.8833C26.437 64.8833 26.5067 64.8469 26.6037 64.8045C26.7159 64.7681 26.8796 64.7044 27.0857 64.6802C27.2889 64.659 27.5314 64.6286 27.789 64.6559C28.0467 64.6711 28.3195 64.7347 28.5833 64.8075C28.7106 64.856 28.8409 64.9015 28.9652 64.953C29.0865 65.0137 29.2078 65.0683 29.3199 65.1319C29.429 65.1956 29.5321 65.2653 29.6291 65.332C29.7231 65.4018 29.808 65.4745 29.8898 65.5352C30.0535 65.6564 30.1566 65.7959 30.2415 65.8747C30.3203 65.9657 30.3627 66.0142 30.3627 66.0142C30.3627 66.0142 30.3021 65.9869 30.193 65.9354C30.0899 65.8808 29.9444 65.805 29.7686 65.7201C29.6807 65.6746 29.5867 65.6261 29.4866 65.5806C29.3836 65.5382 29.2744 65.4927 29.1653 65.4412C29.0531 65.3957 28.938 65.3502 28.8228 65.3047C28.7076 65.2593 28.5833 65.2229 28.465 65.1835C28.2225 65.1077 27.977 65.044 27.7436 64.9985C27.5101 64.95 27.2858 64.9136 27.0948 64.9015C26.9008 64.8924 26.7371 64.8742 26.6219 64.8803C26.5219 64.8772 26.4552 64.8803 26.44 64.8833H26.437Z" fill="#DAE4FE"/>
<path d="M35.9922 76.9744C35.9922 76.9744 31.3268 71.5624 29.0229 74.3912C26.716 77.223 35.9922 76.9744 35.9922 76.9744ZM29.614 74.2153C29.614 74.2153 29.6837 74.179 29.7807 74.1365C29.8929 74.1001 30.0566 74.0365 30.2627 74.0122C30.4659 73.991 30.7084 73.9607 30.966 73.9879C31.2237 74.0031 31.4965 74.0668 31.7603 74.1395C31.8876 74.1881 32.0179 74.2335 32.1422 74.2851C32.2635 74.3457 32.3848 74.4003 32.4969 74.464C32.606 74.5276 32.7091 74.5974 32.8061 74.6641C32.9001 74.7338 32.985 74.8066 33.0668 74.8672C33.2305 74.9885 33.3336 75.1279 33.4185 75.2068C33.4973 75.2977 33.5397 75.3462 33.5397 75.3462C33.5397 75.3462 33.4791 75.319 33.37 75.2674C33.2669 75.2128 33.1214 75.137 32.9456 75.0521C32.8577 75.0067 32.7637 74.9582 32.6636 74.9127C32.5606 74.8702 32.4514 74.8248 32.3423 74.7732C32.2302 74.7277 32.115 74.6823 31.9998 74.6368C31.8846 74.5913 31.7603 74.5549 31.6421 74.5155C31.3995 74.4397 31.154 74.376 30.9206 74.3306C30.6871 74.282 30.4628 74.2457 30.2718 74.2335C30.0778 74.2244 29.9141 74.2062 29.7989 74.2123C29.6989 74.2093 29.6322 74.2123 29.617 74.2153H29.614Z" fill="#DAE4FE"/>
<path d="M36.6894 64.6831C33.4336 66.3294 37.7201 72.0445 37.7201 72.0445C37.7201 72.0445 39.9482 63.0337 36.6894 64.6831ZM36.3468 65.4016C36.3165 65.5138 36.2983 65.6775 36.268 65.8686C36.2407 66.0596 36.2256 66.287 36.2225 66.5234C36.2165 66.763 36.2286 67.0146 36.2498 67.2693C36.265 67.3936 36.2741 67.5209 36.2923 67.6452C36.3135 67.7696 36.3347 67.8908 36.3529 68.0091C36.3802 68.1273 36.4014 68.2395 36.4196 68.3517C36.4408 68.4608 36.4711 68.5639 36.4954 68.6579C36.5408 68.8489 36.5833 69.0096 36.6166 69.1187C36.6439 69.237 36.6591 69.3007 36.6591 69.3007C36.6591 69.3007 36.6196 69.2461 36.5469 69.1521C36.4863 69.052 36.3711 68.9217 36.2892 68.7337C36.2468 68.6427 36.1922 68.5427 36.1467 68.4366C36.1013 68.3274 36.0588 68.2122 36.0194 68.0909C35.98 67.9666 35.9527 67.8393 35.9194 67.7059C35.8951 67.5725 35.88 67.436 35.8588 67.2996C35.8436 67.0237 35.8375 66.7448 35.88 66.4901C35.9103 66.2324 35.9891 66.002 36.0558 65.811C36.1225 65.6169 36.2195 65.4714 36.2801 65.3683C36.3408 65.2804 36.3832 65.2288 36.3923 65.2197C36.3862 65.2349 36.368 65.2986 36.3498 65.3956L36.3468 65.4016Z" fill="#DAE4FE"/>
<path d="M45.1653 67.1296C41.8671 65.5681 39.9846 72.4627 39.9846 72.4627C39.9846 72.4627 48.4636 68.691 45.1653 67.1296ZM44.3863 67.2963C44.2802 67.3418 44.1377 67.4267 43.9679 67.5207C43.7982 67.6147 43.6132 67.742 43.4223 67.8875C43.2313 68.03 43.0373 68.1938 42.8524 68.3666C42.7614 68.4545 42.6674 68.5424 42.5826 68.6304C42.4977 68.7213 42.4128 68.8153 42.331 68.9032C42.2552 68.9972 42.1763 69.0821 42.1006 69.167C42.0278 69.2519 41.9641 69.3368 41.9035 69.4156C41.7823 69.5702 41.6822 69.7006 41.6125 69.7946C41.5367 69.8886 41.4943 69.9401 41.4943 69.9401C41.4943 69.9401 41.5125 69.8765 41.5428 69.7613C41.5852 69.6521 41.6186 69.4823 41.7156 69.3004C41.7641 69.2125 41.8065 69.1094 41.8611 69.0063C41.9187 68.9063 41.9823 68.8001 42.0551 68.694C42.1278 68.5879 42.2127 68.4848 42.2976 68.3787C42.3885 68.2787 42.4856 68.1816 42.5795 68.0816C42.7887 67.9027 43.0039 67.7269 43.2313 67.6025C43.4526 67.4691 43.683 67.3903 43.877 67.3236C44.071 67.2569 44.2468 67.2448 44.365 67.2266C44.4711 67.2205 44.5378 67.2236 44.55 67.2266C44.5348 67.2327 44.4742 67.2539 44.3832 67.3024L44.3863 67.2963Z" fill="#DAE4FE"/>
<path d="M49.0366 72.8023C46.8964 69.8462 41.9309 74.9823 41.9309 74.9823C41.9309 74.9823 51.1798 75.7615 49.0366 72.8023ZM48.2727 72.578C48.1545 72.5659 47.9908 72.575 47.7967 72.5719C47.6027 72.5719 47.3784 72.5962 47.1419 72.6295C46.9055 72.6598 46.6569 72.7114 46.4114 72.772C46.2901 72.8054 46.1658 72.8357 46.0476 72.8751C45.9294 72.9145 45.8111 72.9539 45.696 72.9934C45.5838 73.0388 45.4747 73.0782 45.3686 73.1146C45.2655 73.154 45.1685 73.1965 45.0775 73.2389C44.8957 73.3147 44.7441 73.3814 44.641 73.4299C44.5289 73.4754 44.4682 73.4997 44.4682 73.4997C44.4682 73.4997 44.5167 73.4512 44.5986 73.3663C44.6895 73.2905 44.7986 73.1571 44.9714 73.0479C45.0563 72.9934 45.1442 72.9236 45.2412 72.8599C45.3413 72.7993 45.4474 72.7387 45.5626 72.678C45.6778 72.6204 45.8021 72.5719 45.9263 72.5204C46.0537 72.4749 46.187 72.4385 46.3174 72.3961C46.5872 72.3385 46.86 72.29 47.1207 72.29C47.3784 72.2778 47.6179 72.3233 47.821 72.3567C48.0241 72.393 48.1817 72.4658 48.2939 72.5083C48.3909 72.5568 48.4485 72.5901 48.4576 72.5962C48.4424 72.5962 48.3757 72.584 48.2757 72.581L48.2727 72.578Z" fill="#DAE4FE"/>
<path d="M41.9216 79.9884C38.484 78.7605 37.2957 85.8066 37.2957 85.8066C37.2957 85.8066 45.3623 81.2163 41.9216 79.9884ZM41.1638 80.234C41.0607 80.2916 40.9303 80.3886 40.7697 80.4978C40.612 80.6099 40.4393 80.7555 40.2634 80.9162C40.0846 81.0769 39.9088 81.2588 39.742 81.4467C39.6602 81.5438 39.5753 81.6378 39.4995 81.7378C39.4237 81.8379 39.351 81.9379 39.2782 82.0319C39.2115 82.132 39.1448 82.2259 39.0751 82.3169C39.0114 82.4079 38.9569 82.4988 38.9053 82.5837C38.7992 82.7474 38.7113 82.8899 38.6537 82.99C38.587 83.09 38.5507 83.1446 38.5507 83.1446C38.5507 83.1446 38.5628 83.0779 38.581 82.9627C38.6113 82.8505 38.6265 82.6777 38.7053 82.4897C38.7447 82.3957 38.778 82.2896 38.8205 82.1805C38.869 82.0744 38.9205 81.9622 38.9811 81.85C39.0448 81.7378 39.1175 81.6287 39.1903 81.5135C39.2691 81.4043 39.357 81.2982 39.4419 81.189C39.6329 80.9889 39.8299 80.7919 40.0452 80.6463C40.2513 80.4917 40.4756 80.3916 40.6606 80.3037C40.8485 80.2188 41.0213 80.1885 41.1365 80.1612C41.2426 80.1461 41.3093 80.14 41.3214 80.143C41.3062 80.1491 41.2487 80.1794 41.1638 80.234Z" fill="#DAE4FE"/>
<path d="M37.3655 84.5906C37.3655 84.5906 35.8801 77.6021 32.497 78.9725C29.1139 80.3429 37.3655 84.5906 37.3655 84.5906ZM33.1063 79.0999C33.1063 79.0999 33.1851 79.0999 33.2912 79.112C33.4064 79.1332 33.5792 79.1575 33.7702 79.2363C33.9581 79.3151 34.1855 79.4061 34.3977 79.5516C34.619 79.6881 34.8221 79.876 35.0222 80.067C35.1101 80.1732 35.204 80.2732 35.2859 80.3793C35.3647 80.4915 35.4435 80.5976 35.5102 80.7068C35.5739 80.8159 35.6315 80.9251 35.686 81.0312C35.7345 81.1373 35.774 81.2434 35.8164 81.3344C35.9043 81.5193 35.9255 81.6921 35.9619 81.8013C35.9862 81.9165 36.0013 81.9832 36.0013 81.9832C36.0013 81.9832 35.9619 81.9286 35.8922 81.8316C35.8285 81.7346 35.7345 81.5981 35.6224 81.4375C35.5678 81.3556 35.5102 81.2677 35.4405 81.1797C35.3708 81.0918 35.298 81.0009 35.2283 80.9038C35.1525 80.8098 35.0737 80.7159 34.9949 80.6188C34.913 80.5249 34.8251 80.4309 34.7402 80.3399C34.5644 80.158 34.3795 79.9821 34.1976 79.8305C34.0157 79.6759 33.8369 79.5365 33.6732 79.4334C33.5095 79.3303 33.3731 79.2393 33.267 79.1848C33.179 79.1332 33.1184 79.1059 33.1063 79.0999Z" fill="#DAE4FE"/>
<path d="M22.4782 52.107C20.3046 55.0388 26.701 58.2253 26.701 58.2253C26.701 58.2253 24.6517 49.1721 22.4782 52.107ZM22.4933 52.9013C22.5176 53.0165 22.5752 53.1712 22.6328 53.3561C22.6934 53.5411 22.7813 53.7472 22.8874 53.9625C22.9874 54.1778 23.1117 54.3991 23.2451 54.6174C23.3148 54.7235 23.3815 54.8327 23.4513 54.9327C23.524 55.0358 23.5998 55.1328 23.6695 55.2329C23.7453 55.3238 23.8181 55.4178 23.8817 55.5088C23.9514 55.5967 24.0212 55.6755 24.0879 55.7483C24.2152 55.8968 24.3243 56.0212 24.4031 56.106C24.4789 56.2 24.5214 56.2516 24.5214 56.2516C24.5214 56.2516 24.4607 56.2213 24.3546 56.1667C24.2576 56.103 24.0939 56.0393 23.9363 55.909C23.8575 55.8453 23.7665 55.7816 23.6756 55.7089C23.5877 55.6331 23.4967 55.5482 23.4058 55.4572C23.3148 55.3632 23.233 55.2632 23.1451 55.1571C23.0632 55.0509 22.9874 54.9357 22.9086 54.8236C22.7722 54.584 22.6419 54.3385 22.5661 54.0898C22.4782 53.8473 22.4478 53.6047 22.4175 53.4016C22.3902 53.1985 22.4115 53.0226 22.4175 52.9044C22.4327 52.7982 22.4478 52.7315 22.4509 52.7224C22.4509 52.7376 22.463 52.8043 22.4933 52.9013Z" fill="#DAE4FE"/>
<path d="M34.3703 98.0159C29.329 92.2431 35.2039 88.6382 35.2039 88.6382V87.7984L39.3813 87.7832V88.623C39.3813 88.623 45.2835 92.1885 40.2816 97.9946L34.3703 98.0159Z" fill="#192351"/>
<path d="M28.9927 64.3438C40.5867 64.3438 49.9854 54.9436 49.9854 43.3479C49.9854 31.7522 40.5867 22.3521 28.9927 22.3521C17.3988 22.3521 8 31.7522 8 43.3479C8 54.9436 17.3988 64.3438 28.9927 64.3438Z" fill="#FF3B30"/>
<path d="M40.2694 32.0757C39.0508 30.8569 37.0743 30.8569 35.8526 32.0757L28.9955 38.9339L22.1384 32.0757C20.9198 30.8569 18.9402 30.8569 17.7216 32.0757C16.503 33.2946 16.503 35.2744 17.7216 36.4932L24.5787 43.3514L17.7277 50.2034C16.509 51.4223 16.509 53.4021 17.7277 54.6209C18.337 55.2303 19.1373 55.5365 19.9345 55.5365C20.7318 55.5365 21.5321 55.2303 22.1414 54.6209L28.9925 47.7688L35.8435 54.6209C36.4528 55.2303 37.2531 55.5365 38.0504 55.5365C38.8477 55.5365 39.648 55.2303 40.2573 54.6209C41.4759 53.4021 41.4759 51.4223 40.2573 50.2034L33.4063 43.3514L40.2634 36.4932C41.482 35.2744 41.482 33.2946 40.2634 32.0757H40.2694Z" fill="white"/>
<path d="M42.9525 23.292H99.0189V94.3626C99.0189 95.0539 98.4581 95.6148 97.767 95.6148H44.2014C43.5103 95.6148 42.9495 95.0539 42.9495 94.3626V23.292H42.9525Z" fill="#89B2F9"/>
<path d="M97.2274 95.6147H44.7441L45.1625 97.9432H96.8091L97.2274 95.6147Z" fill="#89B2F9"/>
<path d="M97.2274 95.6147H44.7441" stroke="#4B6FDD" stroke-width="0.74" stroke-miterlimit="10"/>
<path d="M92.8501 17.1099H49.1246C48.391 17.1099 47.6968 17.4403 47.2361 18.0103L42.9526 23.2919H99.0191L94.7357 18.0103C94.2749 17.4403 93.5807 17.1099 92.8471 17.1099H92.8501Z" fill="#4B6FDD"/>
<path d="M70.9843 77.969C80.7684 77.969 88.7 70.0362 88.7 60.2506C88.7 50.465 80.7684 42.5322 70.9843 42.5322C61.2002 42.5322 53.2686 50.465 53.2686 60.2506C53.2686 70.0362 61.2002 77.969 70.9843 77.969Z" fill="#192351"/>
<path d="M70.9844 74.8003C79.019 74.8003 85.5323 68.286 85.5323 60.2503C85.5323 52.2145 79.019 45.7002 70.9844 45.7002C62.9498 45.7002 56.4365 52.2145 56.4365 60.2503C56.4365 68.286 62.9498 74.8003 70.9844 74.8003Z" fill="#4B6FDD"/>
<path d="M70.9842 73.2756C78.1767 73.2756 84.0073 67.4441 84.0073 60.2506C84.0073 53.0571 78.1767 47.2256 70.9842 47.2256C63.7918 47.2256 57.9612 53.0571 57.9612 60.2506C57.9612 67.4441 63.7918 73.2756 70.9842 73.2756Z" fill="white"/>
<path d="M43.1921 35.0308L71.1056 35.9919L99.0191 35.0308" stroke="#4B6FDD" stroke-width="0.74" stroke-miterlimit="10"/>
<path d="M43.1921 36.3682L71.1056 37.3293L99.0191 36.3682" stroke="#4B6FDD" stroke-width="0.74" stroke-miterlimit="10"/>
<path d="M43.1921 87.0947L71.1056 88.0558L99.0191 87.0947" stroke="#4B6FDD" stroke-width="0.74" stroke-miterlimit="10"/>
<path d="M60.2925 23.3706V35.5012" stroke="#4B6FDD" stroke-width="0.74" stroke-miterlimit="10"/>
<path d="M70.9844 31.7844C72.2216 31.7844 73.2246 30.7812 73.2246 29.5438C73.2246 28.3064 72.2216 27.3032 70.9844 27.3032C69.7471 27.3032 68.7441 28.3064 68.7441 29.5438C68.7441 30.7812 69.7471 31.7844 70.9844 31.7844Z" fill="#192351"/>
<path d="M79.2086 27.5856C79.8214 27.5856 80.3181 27.0887 80.3181 26.4759C80.3181 25.863 79.8214 25.3662 79.2086 25.3662C78.5959 25.3662 78.0991 25.863 78.0991 26.4759C78.0991 27.0887 78.5959 27.5856 79.2086 27.5856Z" fill="#192351"/>
<path d="M83.8258 27.5856C84.4386 27.5856 84.9353 27.0887 84.9353 26.4759C84.9353 25.863 84.4386 25.3662 83.8258 25.3662C83.2131 25.3662 82.7163 25.863 82.7163 26.4759C82.7163 27.0887 83.2131 27.5856 83.8258 27.5856Z" fill="#4B6FDD"/>
<path d="M88.4457 27.5856C89.0585 27.5856 89.5552 27.0887 89.5552 26.4759C89.5552 25.863 89.0585 25.3662 88.4457 25.3662C87.8329 25.3662 87.3362 25.863 87.3362 26.4759C87.3362 27.0887 87.8329 27.5856 88.4457 27.5856Z" fill="#192351"/>
<path d="M93.0621 27.5856C93.6749 27.5856 94.1717 27.0887 94.1717 26.4759C94.1717 25.863 93.6749 25.3662 93.0621 25.3662C92.4494 25.3662 91.9526 25.863 91.9526 26.4759C91.9526 27.0887 92.4494 27.5856 93.0621 27.5856Z" fill="#4B6FDD"/>
<path d="M94.114 30.1313H78.1565C77.9389 30.1313 77.7625 30.3078 77.7625 30.5255V32.3901C77.7625 32.6078 77.9389 32.7843 78.1565 32.7843H94.114C94.3317 32.7843 94.5081 32.6078 94.5081 32.3901V30.5255C94.5081 30.3078 94.3317 30.1313 94.114 30.1313Z" fill="#4B6FDD"/>
<path d="M90.7888 30.9531H81.4823C81.2027 30.9531 80.9761 31.1791 80.9761 31.4579C80.9761 31.7367 81.2027 31.9627 81.4823 31.9627H90.7888C91.0684 31.9627 91.2951 31.7367 91.2951 31.4579C91.2951 31.1791 91.0684 30.9531 90.7888 30.9531Z" fill="white"/>
<path d="M55.7302 26.4751H47.1451C46.601 26.4751 46.1599 26.9163 46.1599 27.4605V31.0927C46.1599 31.6369 46.601 32.078 47.1451 32.078H55.7302C56.2743 32.078 56.7154 31.6369 56.7154 31.0927V27.4605C56.7154 26.9163 56.2743 26.4751 55.7302 26.4751Z" stroke="#4B6FDD" stroke-width="0.74" stroke-miterlimit="10"/>
<path d="M127.415 97.4083L14.9915 98.311L15.005 99.9997L127.428 99.097L127.415 97.4083Z" fill="#192351"/>
<path d="M37.4344 15.1822L36.3477 14.0952L31.4025 19.0411L32.4893 20.1281L37.4344 15.1822Z" fill="#FF3B30"/>
<path d="M36.349 20.126L37.4358 19.0391L32.4906 14.0931L31.4038 15.1801L36.349 20.126Z" fill="#FF3B30"/>
<path d="M45.2591 12.7461L44.5132 12L41.1242 15.3895L41.8702 16.1355L45.2591 12.7461Z" fill="#FF3B30"/>
<path d="M44.5143 16.1362L45.2603 15.3901L41.8713 12.0007L41.1253 12.7467L44.5143 16.1362Z" fill="#FF3B30"/>
<path d="M100.447 62.3516C99.0221 63.5552 97.6216 64.7862 96.2332 66.0292C93.1593 68.7731 89.6398 71.5564 87.7331 75.2947C86.2113 78.2751 85.217 81.8072 85.9112 85.1544C86.8176 89.5264 88.1029 95.281 90.0976 97.1092C92.0044 98.8586 94.6751 99.7257 103.566 99.183C107.334 98.9526 112.106 99.0617 113.752 95.5235C116.914 88.726 119.678 82.356 115.783 74.658C113.634 70.4164 110.975 68.6124 108.72 67.0389C108.283 66.7357 107.822 65.9959 107.425 65.6957C106.143 64.7255 105.097 64.1192 104.236 62.4486L100.447 62.3516Z" fill="#192351"/>
<path d="M102.008 89.2443C105.613 89.2443 108.535 86.3218 108.535 82.7166C108.535 79.1115 105.613 76.189 102.008 76.189C98.4035 76.189 95.4814 79.1115 95.4814 82.7166C95.4814 86.3218 98.4035 89.2443 102.008 89.2443Z" fill="white"/>
<path d="M101.478 86.8004V85.8483C100.808 85.818 100.156 85.6391 99.7773 85.4178L100.077 84.2475C100.499 84.4779 101.087 84.6871 101.739 84.6871C102.309 84.6871 102.7 84.4658 102.7 84.0656C102.7 83.6654 102.378 83.444 101.639 83.1954C100.569 82.8346 99.838 82.3344 99.838 81.3642C99.838 80.4849 100.459 79.7936 101.53 79.5814V78.6294H102.512V79.5117C103.182 79.542 103.633 79.6815 103.964 79.8422L103.673 80.9731C103.412 80.8639 102.951 80.6335 102.233 80.6335C101.581 80.6335 101.372 80.9124 101.372 81.1944C101.372 81.5249 101.724 81.7341 102.572 82.0554C103.764 82.4769 104.243 83.0256 104.243 83.9261C104.243 84.8266 103.612 85.5785 102.46 85.7786V86.8004H101.478Z" fill="#34C759"/>
<path d="M104.236 62.4483C104.236 62.4483 105.631 58.5705 105.44 58.3764C105.249 58.1824 103.927 58.8555 103.927 58.8555C103.927 58.8555 103.051 57.6579 102.311 57.6033C101.571 57.5487 100.692 58.7918 100.692 58.7918C100.692 58.7918 99.8284 57.6518 98.8432 57.7003C97.861 57.7488 100.444 62.3543 100.444 62.3543L104.233 62.4513L104.236 62.4483Z" fill="#192351"/>
<path d="M103.93 58.8555L103.312 61.3871" stroke="#89B2F9" stroke-width="0.83" stroke-linecap="round" stroke-linejoin="round"/>
<path d="M100.696 58.7886L101.211 61.0898" stroke="#89B2F9" stroke-width="0.83" stroke-linecap="round" stroke-linejoin="round"/>
<path d="M100.083 61.6752C100.083 61.6752 104.197 61.5751 104.46 61.8237C104.724 62.0723 105.006 62.703 104.676 63.0486C104.345 63.3943 99.8466 63.2609 99.6951 62.994C99.5435 62.7272 100.083 61.6752 100.083 61.6752Z" fill="#4B6FDD"/>
<path d="M97.1941 60.6958L100.144 62.0571L98.4734 63.0152" stroke="#4B6FDD" stroke-width="1.03" stroke-miterlimit="10"/>
<path d="M87.7056 88.7896C87.7056 88.7896 92.0769 90.4904 96.5665 89.2322" stroke="#89B2F9" stroke-width="0.83" stroke-linecap="round" stroke-linejoin="round"/>
<path d="M95.1814 91.2639C95.1814 91.2639 98.0097 91.0699 99.7316 90.1846" stroke="#89B2F9" stroke-width="0.83" stroke-linecap="round" stroke-linejoin="round"/>
<path d="M108.535 67.0264C108.535 67.0264 105.522 66.0319 102.672 65.9258" stroke="#89B2F9" stroke-width="0.83" stroke-linecap="round" stroke-linejoin="round"/>
<g clip-path="url(#clip0_2065_4983)">
<path d="M66.5151 59.9918V58.2926C66.5151 58.1477 66.6021 58.0493 66.7334 58.0493C66.8648 58.0493 66.9535 58.1477 66.9535 58.2926V59.7662H67.7142C67.8425 59.7662 67.9343 59.8619 67.9343 60.0003C67.9343 60.1387 67.8431 60.2331 67.7142 60.2331H66.7334C66.6021 60.2331 66.5151 60.1347 66.5151 59.9911" fill="black"/>
<path d="M68.1812 60.0633C68.1812 60.0259 68.1878 59.9695 68.2128 59.9052L68.7715 58.4225C68.8658 58.1687 68.9764 58.0493 69.1905 58.0493C69.4045 58.0493 69.517 58.1687 69.6112 58.4225L70.17 59.9052C70.1937 59.9695 70.2016 60.0259 70.2016 60.0633C70.2016 60.1813 70.1062 60.2843 69.9943 60.2843C69.8824 60.2843 69.8088 60.2292 69.776 60.1321L69.6532 59.7891H68.7308L68.6074 60.1321C68.5739 60.2292 68.501 60.2843 68.3891 60.2843C68.2772 60.2843 68.1818 60.1813 68.1818 60.0633M69.4921 59.3412L69.1905 58.4966L68.8889 59.3412H69.4921Z" fill="black"/>
<path d="M70.6715 59.3878V58.2926C70.6715 58.1497 70.7627 58.0493 70.894 58.0493C71.0254 58.0493 71.1099 58.149 71.1099 58.2926V59.3425C71.1099 59.6153 71.2728 59.8022 71.5203 59.8022C71.7678 59.8022 71.9326 59.616 71.9326 59.3425V58.2926C71.9326 58.1497 72.0183 58.0493 72.1484 58.0493C72.2785 58.0493 72.3697 58.149 72.3697 58.2926V59.3878C72.3697 59.9249 72.0365 60.2784 71.5203 60.2784C71.0041 60.2784 70.6709 59.9249 70.6709 59.3878" fill="black"/>
<path d="M72.9225 60.0265V58.3346C72.9225 58.1601 73.0179 58.05 73.1687 58.05C73.2751 58.05 73.3378 58.0978 73.4454 58.2559L74.2224 59.4403V58.2926C74.2224 58.1497 74.3112 58.0493 74.4407 58.0493C74.5702 58.0493 74.6608 58.149 74.6608 58.2926V59.9826C74.6608 60.1557 74.5642 60.2692 74.4201 60.2692C74.3191 60.2692 74.2474 60.2187 74.1501 60.0783L73.3603 58.9091V60.0265C73.3603 60.1695 73.2715 60.2698 73.1402 60.2698C73.0088 60.2698 72.9219 60.1701 72.9219 60.0265" fill="black"/>
<path d="M75.0579 59.9564V58.2926C75.0579 58.1477 75.1448 58.0493 75.2761 58.0493H75.9164C76.4958 58.0493 76.8832 58.4894 76.8832 59.1235C76.8832 59.7577 76.4958 60.1977 75.9164 60.1977H75.2761C75.1448 60.1977 75.0579 60.0993 75.0579 59.9564ZM75.9152 59.7367C76.2168 59.7367 76.4186 59.4803 76.4186 59.1235C76.4186 58.7668 76.2168 58.5103 75.9152 58.5103H75.4962V59.7367H75.9152Z" fill="black"/>
<path d="M77.2559 59.9905V58.2926C77.2559 58.1477 77.3428 58.0493 77.4741 58.0493H78.1174C78.5449 58.0493 78.8544 58.3385 78.8544 58.7595C78.8544 59.0369 78.7218 59.256 78.5102 59.374L78.8118 59.8482C78.8574 59.9183 78.8714 59.978 78.8714 60.0318C78.8714 60.1393 78.7704 60.2318 78.6586 60.2318C78.5826 60.2318 78.5187 60.1944 78.4786 60.1288L78.0676 59.4698H77.6942V59.9905C77.6942 60.1334 77.6073 60.2338 77.4741 60.2338C77.341 60.2338 77.2559 60.1341 77.2559 59.9905ZM78.1338 59.0225C78.2889 59.0225 78.3977 58.9182 78.3977 58.7602C78.3977 58.6021 78.2883 58.4992 78.1338 58.4992H77.6942V59.0225H78.1338Z" fill="black"/>
<path d="M79.1438 58.257C79.1438 58.1423 79.2307 58.0498 79.3511 58.0498C79.4606 58.0498 79.5159 58.1292 79.5682 58.2124L80.0303 58.9332L80.4924 58.2124C80.5447 58.1292 80.5988 58.0498 80.7095 58.0498C80.8286 58.0498 80.9156 58.1423 80.9156 58.257C80.9156 58.3049 80.9016 58.3449 80.8809 58.3764L80.2492 59.3535V60.0264C80.2492 60.1713 80.1622 60.2697 80.0291 60.2697C79.8959 60.2697 79.8108 60.1713 79.8108 60.0264V59.3548L79.1803 58.3764C79.1596 58.3449 79.1444 58.3049 79.1444 58.257" fill="black"/>
<path d="M66.5151 62.6661V60.9669C66.5151 60.822 66.6021 60.7236 66.7334 60.7236C66.8648 60.7236 66.9535 60.822 66.9535 60.9669V62.4405H67.7142C67.8431 62.4405 67.9343 62.5362 67.9343 62.6746C67.9343 62.813 67.8431 62.9074 67.7142 62.9074H66.7334C66.6021 62.9074 66.5151 62.8091 66.5151 62.6654" fill="black"/>
<path d="M68.2017 61.7887C68.2017 61.1323 68.6261 60.6699 69.2347 60.6699C69.8433 60.6699 70.2677 61.1323 70.2677 61.7887C70.2677 62.4452 69.8433 62.9075 69.2347 62.9075C68.6261 62.9075 68.2017 62.4452 68.2017 61.7887ZM69.2347 62.432C69.5734 62.432 69.8172 62.1664 69.8172 61.7894C69.8172 61.4123 69.574 61.1467 69.2347 61.1467C68.8954 61.1467 68.654 61.4123 68.654 61.7894C68.654 62.1664 68.896 62.432 69.2347 62.432Z" fill="black"/>
<path d="M70.5742 61.7905C70.5742 61.1295 70.9865 60.6704 71.5769 60.6704C71.9131 60.6704 72.1703 60.778 72.3569 61.0121C72.4244 61.0973 72.4664 61.2016 72.4664 61.2849C72.4664 61.4101 72.374 61.5164 72.2591 61.5164C72.1952 61.5164 72.1247 61.4869 72.0627 61.4108C71.9453 61.2377 71.7957 61.1465 71.5829 61.1465C71.2552 61.1465 71.0272 61.4134 71.0272 61.7912C71.0272 62.1689 71.2552 62.4325 71.5829 62.4325C71.7957 62.4325 71.9441 62.3387 72.0627 62.1682C72.1277 62.0922 72.197 62.0627 72.2621 62.0627C72.377 62.0627 72.4682 62.1669 72.4682 62.2942C72.4682 62.3715 72.4281 62.4758 72.363 62.5584C72.1751 62.7939 71.9161 62.9093 71.5775 62.9093C70.9871 62.9093 70.5748 62.4529 70.5748 61.7918" fill="black"/>
<path d="M72.9187 62.6641V60.9308C72.9187 60.7859 73.0075 60.6875 73.14 60.6875C73.2726 60.6875 73.3583 60.7859 73.3583 60.9308V61.6436L74.2436 60.7754C74.2934 60.7275 74.347 60.698 74.429 60.698C74.5202 60.698 74.6102 60.7891 74.6102 60.8829C74.6102 60.9695 74.5829 61.0351 74.4929 61.1229L73.9493 61.6522L74.5719 62.5027C74.6425 62.5998 74.6662 62.649 74.6662 62.7159C74.6662 62.8201 74.5683 62.9067 74.4558 62.9067C74.3907 62.9067 74.3038 62.8706 74.2527 62.7991L73.6374 61.9565L73.3595 62.228V62.6634C73.3595 62.8083 73.2707 62.9067 73.1412 62.9067C73.0117 62.9067 72.9199 62.8083 72.9199 62.6634" fill="black"/>
<path d="M75.2305 62.6639V61.0021C75.2305 60.8572 75.3174 60.7588 75.4488 60.7588H76.4848C76.6137 60.7588 76.7049 60.8545 76.7049 60.9916C76.7049 61.1287 76.6137 61.2257 76.4848 61.2257H75.6689V61.6048H76.4076C76.528 61.6048 76.6149 61.6972 76.6149 61.8238C76.6149 61.9504 76.525 62.0415 76.4076 62.0415H75.6689V62.4396H76.4891C76.6174 62.4396 76.7104 62.5353 76.7104 62.6737C76.7104 62.8121 76.618 62.9065 76.4891 62.9065H75.4488C75.3174 62.9065 75.2305 62.8081 75.2305 62.6632" fill="black"/>
<path d="M77.2559 62.6648V60.9669C77.2559 60.822 77.3428 60.7236 77.4741 60.7236H78.1174C78.5449 60.7236 78.8544 61.0128 78.8544 61.4339C78.8544 61.7113 78.7218 61.9303 78.5102 62.0483L78.8118 62.5225C78.8574 62.5926 78.8714 62.6523 78.8714 62.7061C78.8714 62.8136 78.7704 62.9061 78.6586 62.9061C78.5826 62.9061 78.5187 62.8687 78.4786 62.8031L78.0676 62.1441H77.6942V62.6648C77.6942 62.8077 77.6073 62.9081 77.4741 62.9081C77.341 62.9081 77.2559 62.8084 77.2559 62.6648ZM78.1338 61.6962C78.2889 61.6962 78.3977 61.5919 78.3977 61.4339C78.3977 61.2758 78.2883 61.1729 78.1338 61.1729H77.6942V61.6962H78.1338Z" fill="black"/>
<path d="M64.477 61.3637C64.3566 61.3637 64.2587 61.4693 64.2587 61.5992V62.4445H62.4942V61.3251C62.5489 61.2923 62.6438 61.2372 62.7526 61.1749C62.9855 61.0404 63.3041 60.8568 63.5114 60.7243C63.9151 60.4666 64.1942 60.2791 64.3876 60.0384C64.6849 59.6685 64.7725 59.2468 64.6399 58.8193C64.5444 58.5097 64.3316 58.2382 64.0562 58.0736C63.8002 57.9208 63.4913 57.8585 63.1855 57.8985C62.8481 57.9431 62.5483 58.1058 62.3422 58.3563C62.1166 58.6304 62.0242 58.999 62.088 59.3695C62.1099 59.4974 62.2242 59.5813 62.3428 59.5577C62.4613 59.5341 62.5392 59.4108 62.5173 59.2836C62.4778 59.054 62.5313 58.8357 62.6681 58.6691C62.8018 58.5065 63.0092 58.3963 63.2378 58.3661C63.453 58.3379 63.6683 58.3799 63.8446 58.4855C64.0252 58.5937 64.1644 58.7694 64.2258 58.9681C64.3085 59.237 64.2538 59.4862 64.0574 59.7302C63.9188 59.9026 63.675 60.0909 63.3114 60.306C62.8614 60.5722 62.1719 60.9808 62.1671 60.984C62.0996 61.026 62.0576 61.1041 62.0576 61.188V62.6799C62.0576 62.8098 62.1555 62.9153 62.2759 62.9153H64.477C64.5973 62.9153 64.6952 62.8098 64.6952 62.6799V61.5992C64.6952 61.4693 64.5973 61.3637 64.477 61.3637Z" fill="#00DAE8"/>
<path d="M63.3752 62.3308C63.5041 62.3308 63.591 62.2357 63.591 62.0941V61.8652C63.6919 61.7891 63.7515 61.6665 63.7515 61.534C63.7515 61.311 63.5831 61.1294 63.3764 61.1294C63.1696 61.1294 63.0012 61.311 63.0012 61.534C63.0012 61.6665 63.0608 61.7898 63.1617 61.8652V62.0941C63.1617 62.2357 63.2475 62.3308 63.3758 62.3308" fill="#00DAE8"/>
</g>
<defs>
<clipPath id="clip0_2065_4983">
<rect width="18.8573" height="5.02861" fill="white" transform="translate(62.0576 57.8872)"/>
</clipPath>
</defs>
</svg>
