<svg width="24" height="24" viewBox="0 0 24 24" fill="none" xmlns="http://www.w3.org/2000/svg">
<path d="M7.2502 9.00002C7.2502 8.58581 7.58599 8.25002 8.0002 8.25002H11.0002C11.4144 8.25002 11.7502 8.58581 11.7502 9.00002C11.7502 9.41423 11.4144 9.75002 11.0002 9.75002H8.0002C7.58599 9.75002 7.2502 9.41423 7.2502 9.00002Z" fill="#798586"/>
<path fill-rule="evenodd" clip-rule="evenodd" d="M1.28869 2.76285C1.41968 2.36989 1.84442 2.15752 2.23737 2.28851L2.54176 2.38997C3.16813 2.59873 3.69746 2.77516 4.1137 2.96879C4.55613 3.17462 4.94002 3.42971 5.23112 3.83359C5.52222 4.23746 5.64282 4.68232 5.69817 5.16714C5.70129 5.1944 5.70421 5.22203 5.70696 5.25002L16.511 5.25002C17.4869 5.24998 18.3034 5.24995 18.9278 5.34239C19.5793 5.43883 20.2076 5.66051 20.6038 6.26142C21 6.86232 20.9563 7.52713 20.7883 8.16387C20.6273 8.77422 20.3057 9.52465 19.9212 10.4216L19.4544 11.5109C19.2778 11.923 19.1224 12.2855 18.961 12.5726C18.7862 12.8832 18.5728 13.1654 18.2497 13.3784C17.9266 13.5914 17.5832 13.6765 17.2288 13.7147C16.9014 13.7501 16.507 13.75 16.0587 13.75H6.15378C6.22758 13.884 6.31252 13.9943 6.40921 14.091C6.68598 14.3678 7.07455 14.5482 7.80832 14.6469C8.56367 14.7484 9.56479 14.75 11.0002 14.75H19.0002C19.4144 14.75 19.7502 15.0858 19.7502 15.5C19.7502 15.9142 19.4144 16.25 19.0002 16.25H10.9453C9.57776 16.25 8.47541 16.2501 7.60845 16.1335C6.70834 16.0125 5.95047 15.7536 5.34855 15.1517C4.74664 14.5498 4.48774 13.7919 4.36673 12.8918C4.25017 12.0248 4.25018 10.9225 4.2502 9.5549L4.2502 6.88306C4.2502 6.17006 4.24907 5.69829 4.20785 5.33729C4.16883 4.99544 4.10068 4.83055 4.01426 4.71065C3.92784 4.59075 3.79296 4.47395 3.481 4.32883C3.15155 4.17557 2.70435 4.02531 2.02794 3.79984L1.76303 3.71153C1.37008 3.58055 1.15771 3.15581 1.28869 2.76285ZM5.80693 12.25H16.022C16.5179 12.25 16.8305 12.249 17.0678 12.2234C17.287 12.1997 17.3713 12.1609 17.424 12.1262C17.4766 12.0914 17.5455 12.0293 17.6537 11.8371C17.7707 11.629 17.8948 11.3421 18.0901 10.8863L18.5187 9.88634C18.9332 8.91914 19.2087 8.27134 19.3379 7.78127C19.4636 7.30504 19.3999 7.16051 19.3515 7.08715C19.3032 7.01379 19.1954 6.89834 18.7082 6.82622C18.2068 6.752 17.5029 6.75002 16.4506 6.75002H5.7502C5.75021 6.78026 5.75021 6.81072 5.7502 6.84141L5.7502 9.50002C5.7502 10.672 5.75127 11.5545 5.80693 12.25Z" fill="#798586"/>
<path fill-rule="evenodd" clip-rule="evenodd" d="M7.5002 21.75C6.25756 21.75 5.2502 20.7427 5.2502 19.5C5.2502 18.2574 6.25756 17.25 7.5002 17.25C8.74284 17.25 9.7502 18.2574 9.7502 19.5C9.7502 20.7427 8.74284 21.75 7.5002 21.75ZM6.7502 19.5C6.7502 19.9142 7.08599 20.25 7.5002 20.25C7.91442 20.25 8.2502 19.9142 8.2502 19.5C8.2502 19.0858 7.91442 18.75 7.5002 18.75C7.08599 18.75 6.7502 19.0858 6.7502 19.5Z" fill="#798586"/>
<path fill-rule="evenodd" clip-rule="evenodd" d="M14.2502 19.5001C14.2502 20.7427 15.2576 21.7501 16.5002 21.7501C17.7428 21.7501 18.7502 20.7427 18.7502 19.5001C18.7502 18.2575 17.7428 17.2501 16.5002 17.2501C15.2576 17.2501 14.2502 18.2575 14.2502 19.5001ZM16.5002 20.2501C16.086 20.2501 15.7502 19.9143 15.7502 19.5001C15.7502 19.0859 16.086 18.7501 16.5002 18.7501C16.9144 18.7501 17.2502 19.0859 17.2502 19.5001C17.2502 19.9143 16.9144 20.2501 16.5002 20.2501Z" fill="#798586"/>
</svg>
