<svg width="25" height="25" viewBox="0 0 25 25" fill="none" xmlns="http://www.w3.org/2000/svg">
<path d="M16.5303 10.5303C16.8232 10.2374 16.8232 9.76256 16.5303 9.46967C16.2374 9.17678 15.7626 9.17678 15.4697 9.46967L11 13.9393L9.53033 12.4697C9.23744 12.1768 8.76256 12.1768 8.46967 12.4697C8.17678 12.7626 8.17678 13.2374 8.46967 13.5303L10.4697 15.5303C10.7626 15.8232 11.2374 15.8232 11.5303 15.5303L16.5303 10.5303Z" fill="#34C759"/>
<path fill-rule="evenodd" clip-rule="evenodd" d="M12.5 1.75C6.56294 1.75 1.75 6.56294 1.75 12.5C1.75 18.4371 6.56294 23.25 12.5 23.25C18.4371 23.25 23.25 18.4371 23.25 12.5C23.25 6.56294 18.4371 1.75 12.5 1.75ZM3.25 12.5C3.25 7.39137 7.39137 3.25 12.5 3.25C17.6086 3.25 21.75 7.39137 21.75 12.5C21.75 17.6086 17.6086 21.75 12.5 21.75C7.39137 21.75 3.25 17.6086 3.25 12.5Z" fill="#34C759"/>
</svg>
