<svg width="25" height="25" viewBox="0 0 25 25" fill="none" xmlns="http://www.w3.org/2000/svg">
<path d="M10.5303 9.46965C10.2374 9.17676 9.76253 9.17676 9.46964 9.46965C9.17675 9.76255 9.17675 10.2374 9.46964 10.5303L11.4393 12.5L9.46966 14.4697C9.17677 14.7625 9.17677 15.2374 9.46966 15.5303C9.76255 15.8232 10.2374 15.8232 10.5303 15.5303L12.5 13.5607L14.4696 15.5303C14.7625 15.8232 15.2374 15.8232 15.5303 15.5303C15.8232 15.2374 15.8232 14.7625 15.5303 14.4696L13.5606 12.5L15.5303 10.5303C15.8232 10.2374 15.8232 9.76257 15.5303 9.46968C15.2374 9.17678 14.7625 9.17678 14.4696 9.46968L12.5 11.4393L10.5303 9.46965Z" fill="#FF3B30"/>
<path fill-rule="evenodd" clip-rule="evenodd" d="M12.5 1.75C6.56294 1.75 1.75 6.56294 1.75 12.5C1.75 18.4371 6.56294 23.25 12.5 23.25C18.4371 23.25 23.25 18.4371 23.25 12.5C23.25 6.56294 18.4371 1.75 12.5 1.75ZM3.25 12.5C3.25 7.39137 7.39137 3.25 12.5 3.25C17.6086 3.25 21.75 7.39137 21.75 12.5C21.75 17.6086 17.6086 21.75 12.5 21.75C7.39137 21.75 3.25 17.6086 3.25 12.5Z" fill="#FF3B30"/>
</svg>
