<svg width="24" height="24" viewBox="0 0 24 24" fill="none" xmlns="http://www.w3.org/2000/svg">
<path fill-rule="evenodd" clip-rule="evenodd" d="M19.0418 14.6023C19.8598 13.7992 21.186 13.7992 22.0039 14.6023C22.8219 15.4054 22.8219 16.7075 22.0039 17.5106L17.761 21.6765C17.5185 21.9146 17.3758 22.0547 17.2171 22.1762C17.03 22.3195 16.8275 22.4424 16.6133 22.5426C16.4316 22.6277 16.2401 22.6903 15.9148 22.7968L14.4248 23.2844L14.066 23.4019C13.775 23.4971 13.4541 23.4227 13.2372 23.2098C13.0203 22.9968 12.9446 22.6818 13.0416 22.3961L13.6579 20.5808C13.7663 20.2614 13.8301 20.0735 13.9167 19.895C14.0188 19.6847 14.1439 19.4859 14.2899 19.3022C14.4137 19.1463 14.5564 19.0062 14.7988 18.7682L19.0418 14.6023ZM14.4093 22.5951L15.6804 22.1791C16.0342 22.0633 16.1846 22.0134 16.3246 21.9479C16.4949 21.8683 16.6557 21.7706 16.8044 21.6568C16.9267 21.5631 17.0394 21.4533 17.3031 21.1944L20.6891 17.8699C20.3363 17.7477 19.8819 17.5213 19.4564 17.1036C19.031 16.6858 18.8003 16.2396 18.6759 15.8933L15.2899 19.2177C15.0261 19.4767 14.9143 19.5873 14.8189 19.7074C14.703 19.8534 14.6035 20.0113 14.5224 20.1784C14.4557 20.3159 14.4049 20.4636 14.287 20.811L13.8633 22.059L14.4093 22.5951ZM19.2202 15.3589C19.2355 15.4357 19.2613 15.5402 19.3045 15.6623C19.4016 15.9372 19.5851 16.2982 19.9309 16.6377C20.2766 16.9772 20.6444 17.1574 20.9244 17.2528C21.0487 17.2951 21.1551 17.3205 21.2334 17.3355L21.5295 17.0448C22.0854 16.499 22.0854 15.614 21.5295 15.0682C20.9735 14.5223 20.0722 14.5223 19.5163 15.0682L19.2202 15.3589Z" fill="white" stroke="white" stroke-width="0.5"/>
<path fill-rule="evenodd" clip-rule="evenodd" d="M9.90433 2C8.59993 2 7.46141 2.90302 7.20079 4.17931C7.14062 4.47394 6.87305 4.69007 6.59479 4.69007H6.57878L6.56279 4.69076C5.19199 4.75056 4.13909 4.91837 3.26004 5.49364C2.70619 5.85609 2.22977 6.32242 1.85855 6.86657C1.39667 7.54359 1.19296 8.32061 1.09535 9.26039C0.999985 10.1786 0.999992 11.3295 1 12.7872V12.7872V12.8702V12.8702C0.999992 14.3279 0.999985 15.4788 1.09535 16.397C1.19296 17.3367 1.39667 18.1138 1.85855 18.7908C2.22977 19.3349 2.70619 19.8013 3.26004 20.1637C3.94714 20.6134 4.73487 20.8116 5.69029 20.9068C6.62572 21 7.7991 21 9.2892 21H13.6804L14.2099 19.5383C14.0363 19.5384 13.8566 19.5385 13.6705 19.5385H9.32946C7.79026 19.5385 6.69001 19.5376 5.8359 19.4525C4.99336 19.3686 4.47151 19.2085 4.0637 18.9417C3.66953 18.6837 3.33199 18.3528 3.06978 17.9685C2.80005 17.5731 2.63796 17.0675 2.55267 16.2463C2.46604 15.4123 2.46512 14.337 2.46512 12.8287C2.46512 11.3203 2.46604 10.2451 2.55267 9.41101C2.63796 8.58983 2.80005 8.08424 3.06978 7.68886C3.33199 7.30451 3.66953 6.97363 4.06369 6.71568C4.58989 6.37133 5.29545 6.20991 6.6127 6.15153C7.61354 6.14284 8.44531 5.40694 8.63642 4.47104C8.75442 3.89317 9.27812 3.46154 9.90433 3.46154H13.0957C13.7219 3.46154 14.2456 3.89317 14.3636 4.47104C14.5547 5.40694 15.3865 6.14284 16.3873 6.15153C17.7045 6.20991 18.4101 6.37133 18.9363 6.71568C19.3305 6.97363 19.668 7.30451 19.9302 7.68886C20.2 8.08424 20.362 8.58983 20.4473 9.41101C20.534 10.2451 20.5349 11.3203 20.5349 12.8287C20.5349 13.359 20.5348 13.8357 20.5309 14.2673L21.9932 14.5329C22 14.028 22 13.4755 22 12.8702V12.7872C22 11.3295 22 10.1786 21.9046 9.26039C21.807 8.32061 21.6033 7.54359 21.1415 6.86657C20.7702 6.32242 20.2938 5.85609 19.74 5.49364C18.8609 4.91837 17.808 4.75056 16.4372 4.69076L16.4212 4.69007H16.4052C16.127 4.69007 15.8594 4.47394 15.7992 4.17931C15.5386 2.90302 14.4001 2 13.0957 2H9.90433ZM9.30233 12.4744C9.30233 11.2636 10.2863 10.2821 11.5 10.2821C12.7137 10.2821 13.6977 11.2636 13.6977 12.4744C13.6977 13.6851 12.7137 14.6667 11.5 14.6667C10.2863 14.6667 9.30233 13.6851 9.30233 12.4744ZM11.5 8.82051C9.4771 8.82051 7.83721 10.4564 7.83721 12.4744C7.83721 14.4923 9.4771 16.1282 11.5 16.1282C13.5229 16.1282 15.1628 14.4923 15.1628 12.4744C15.1628 10.4564 13.5229 8.82051 11.5 8.82051ZM17.3605 8.82051C16.9559 8.82051 16.6279 9.14769 16.6279 9.55128C16.6279 9.95487 16.9559 10.2821 17.3605 10.2821H18.3372C18.7418 10.2821 19.0698 9.95487 19.0698 9.55128C19.0698 9.14769 18.7418 8.82051 18.3372 8.82051H17.3605Z" fill="white"/>
</svg>
