<svg width="32" height="32" viewBox="0 0 32 32" fill="none" xmlns="http://www.w3.org/2000/svg">
<path d="M0 12.8C0 8.31958 0 6.07937 0.871948 4.36808C1.63893 2.86278 2.86278 1.63893 4.36808 0.871948C6.07937 0 8.31958 0 12.8 0H19.2C23.6804 0 25.9206 0 27.6319 0.871948C29.1372 1.63893 30.3611 2.86278 31.1281 4.36808C32 6.07937 32 8.31958 32 12.8V19.2C32 23.6804 32 25.9206 31.1281 27.6319C30.3611 29.1372 29.1372 30.3611 27.6319 31.1281C25.9206 32 23.6804 32 19.2 32H12.8C8.31958 32 6.07937 32 4.36808 31.1281C2.86278 30.3611 1.63893 29.1372 0.871948 27.6319C0 25.9206 0 23.6804 0 19.2V12.8Z" fill="#0096FF"/>
<path fill-rule="evenodd" clip-rule="evenodd" d="M8.64281 10.3097C7.6665 11.286 7.6665 12.8573 7.6665 16C7.6665 19.1427 7.6665 20.7141 8.64281 21.6904C9.61913 22.6667 11.1905 22.6667 14.3332 22.6667H17.6665C20.8092 22.6667 22.3805 22.6667 23.3569 21.6904C24.3332 20.7141 24.3332 19.1427 24.3332 16C24.3332 12.8573 24.3332 11.286 23.3569 10.3097C22.3805 9.33337 20.8092 9.33337 17.6665 9.33337H14.3332C11.1905 9.33337 9.61913 9.33337 8.64281 10.3097ZM21.48 12.2666C21.701 12.5318 21.6651 12.9259 21.4 13.1468L19.5696 14.6722C18.8309 15.2877 18.2322 15.7866 17.7039 16.1265C17.1534 16.4805 16.6174 16.7041 15.9998 16.7041C15.3823 16.7041 14.8462 16.4805 14.2958 16.1265C13.7674 15.7866 13.1688 15.2877 12.4301 14.6722L10.5997 13.1468C10.3345 12.9259 10.2987 12.5318 10.5197 12.2666C10.7407 12.0014 11.1348 11.9656 11.4 12.1866L13.199 13.6858C13.9765 14.3337 14.5163 14.7821 14.972 15.0751C15.4131 15.3589 15.7123 15.4541 15.9998 15.4541C16.2874 15.4541 16.5866 15.3589 17.0277 15.0751C17.4834 14.7821 18.0232 14.3337 18.8006 13.6858L20.5997 12.1866C20.8649 11.9656 21.259 12.0014 21.48 12.2666Z" fill="white"/>
</svg>
