<svg width="24" height="25" viewBox="0 0 24 25" fill="none" xmlns="http://www.w3.org/2000/svg">
<path fill-rule="evenodd" clip-rule="evenodd" d="M12 1.75C6.06294 1.75 1.25 6.56294 1.25 12.5C1.25 18.4371 6.06294 23.25 12 23.25C17.9371 23.25 22.75 18.4371 22.75 12.5C22.75 6.56294 17.9371 1.75 12 1.75ZM2.75 12.5C2.75 7.39137 6.89137 3.25 12 3.25C14.2845 3.25 16.3756 4.07817 17.9894 5.45066C17.9827 5.45685 17.9762 5.46319 17.9697 5.46967L4.96969 18.4694C4.96317 18.476 4.95679 18.4826 4.95056 18.4893C3.57813 16.8755 2.75 14.7845 2.75 12.5ZM6.0105 19.5492C7.62432 20.9218 9.71544 21.75 12 21.75C17.1086 21.75 21.25 17.6086 21.25 12.5C21.25 10.2155 20.4218 8.12442 19.0493 6.51062C19.0431 6.51728 19.0368 6.52386 19.0303 6.53034L6.03034 19.5301C6.02382 19.5366 6.0172 19.543 6.0105 19.5492Z" fill="#8E8E93"/>
</svg>
