<svg width="24" height="24" viewBox="0 0 24 24" fill="none" xmlns="http://www.w3.org/2000/svg">
<rect x="1.36133" y="1.54883" width="21.8887" height="20.8008" rx="5.25" fill="#00DAE8" stroke="#00DAE8" stroke-width="1.5"/>
<path d="M8.51477 12.9546L12.4298 7.73457C12.5698 7.69457 12.7298 7.66457 12.9098 7.64457C13.0898 7.61457 13.2498 7.59957 13.3898 7.59957C13.6098 7.59957 13.8148 7.62957 14.0048 7.68957C14.2048 7.73957 14.3648 7.83957 14.4848 7.98957C14.6148 8.13957 14.6798 8.35957 14.6798 8.64957V13.2846H16.0298C16.0698 13.3646 16.1098 13.4696 16.1498 13.5996C16.1998 13.7296 16.2248 13.8746 16.2248 14.0346C16.2248 14.2946 16.1648 14.4896 16.0448 14.6196C15.9248 14.7396 15.7598 14.7996 15.5498 14.7996H14.6798V16.8246C14.6098 16.8346 14.4948 16.8546 14.3348 16.8846C14.1748 16.9146 14.0198 16.9296 13.8698 16.9296C13.5498 16.9296 13.3048 16.8796 13.1348 16.7796C12.9648 16.6796 12.8798 16.4696 12.8798 16.1496V14.7996H8.91977C8.75977 14.7196 8.61977 14.5896 8.49977 14.4096C8.37977 14.2196 8.31977 14.0046 8.31977 13.7646C8.31977 13.6246 8.33477 13.4846 8.36477 13.3446C8.39477 13.1946 8.44477 13.0646 8.51477 12.9546ZM12.9548 13.2846L12.9698 9.47457H12.9248L10.2998 13.2846H12.9548Z" fill="white"/>
</svg>
