<svg width="32" height="32" viewBox="0 0 32 32" fill="none" xmlns="http://www.w3.org/2000/svg">
<path d="M0 12.8C0 8.31958 0 6.07937 0.871948 4.36808C1.63893 2.86278 2.86278 1.63893 4.36808 0.871948C6.07937 0 8.31958 0 12.8 0H19.2C23.6804 0 25.9206 0 27.6319 0.871948C29.1372 1.63893 30.3611 2.86278 31.1281 4.36808C32 6.07937 32 8.31958 32 12.8V19.2C32 23.6804 32 25.9206 31.1281 27.6319C30.3611 29.1372 29.1372 30.3611 27.6319 31.1281C25.9206 32 23.6804 32 19.2 32H12.8C8.31958 32 6.07937 32 4.36808 31.1281C2.86278 30.3611 1.63893 29.1372 0.871948 27.6319C0 25.9206 0 23.6804 0 19.2V12.8Z" fill="#00737A"/>
<path d="M21 12.6667C21 13.5872 20.2538 14.3334 19.3334 14.3334C18.4129 14.3334 17.6667 13.5872 17.6667 12.6667C17.6667 11.7463 18.4129 11.0001 19.3334 11.0001C20.2538 11.0001 21 11.7463 21 12.6667Z" fill="white"/>
<path fill-rule="evenodd" clip-rule="evenodd" d="M16.0478 7.04175H15.9522C14.0286 7.04174 12.521 7.04173 11.3448 7.19987C10.1408 7.36174 9.19081 7.69952 8.44513 8.4452C7.69946 9.19087 7.36168 10.1409 7.19981 11.3448C7.04167 12.5211 7.04168 14.0286 7.04169 15.9523V16.0479C7.04168 17.9715 7.04167 19.4791 7.19981 20.6553C7.36168 21.8593 7.69946 22.8093 8.44513 23.555C9.19081 24.3006 10.1408 24.6384 11.3448 24.8003C12.521 24.9584 14.0285 24.9584 15.9522 24.9584H16.0478C17.9715 24.9584 19.479 24.9584 20.6553 24.8003C21.8592 24.6384 22.8092 24.3006 23.5549 23.555C24.3006 22.8093 24.6384 21.8593 24.8002 20.6553C24.9584 19.4791 24.9584 17.9716 24.9584 16.0479V15.9523C24.9584 14.0286 24.9584 12.5211 24.8002 11.3448C24.6384 10.1409 24.3006 9.19087 23.5549 8.4452C22.8092 7.69952 21.8592 7.36174 20.6553 7.19987C19.479 7.04173 17.9715 7.04174 16.0478 7.04175ZM9.32902 9.32908C9.80373 8.85437 10.446 8.58195 11.5113 8.43872C12.5947 8.29308 14.0182 8.29175 16 8.29175C17.9819 8.29175 19.4054 8.29308 20.4887 8.43872C21.554 8.58195 22.1963 8.85437 22.671 9.32908C23.1457 9.80379 23.4181 10.4461 23.5614 11.5114C23.707 12.5947 23.7084 14.0182 23.7084 16.0001C23.7084 16.3753 23.7083 16.7305 23.7072 17.0671L23.5222 17.0415C21.1524 16.7134 18.9838 17.9453 17.8795 19.8022C16.4549 16.1981 12.6904 13.7401 8.48397 14.3441L8.29583 14.3713C8.3053 13.2 8.33642 12.2719 8.43866 11.5114C8.58189 10.4461 8.8543 9.80379 9.32902 9.32908Z" fill="white"/>
</svg>
