<svg width="32" height="33" viewBox="0 0 32 33" fill="none" xmlns="http://www.w3.org/2000/svg">
<path d="M10.5 8.79004H11.5V23.79H10.5V8.79004ZM4.5 12.79H7.5V13.79H4.5V12.79ZM14.5 12.79H27.5V13.79H14.5V12.79Z" fill="white"/>
<path d="M8.99999 15.2901C8.60471 15.2895 8.21844 15.1719 7.88993 14.952C7.56142 14.7322 7.30538 14.42 7.15413 14.0548C7.00287 13.6896 6.96316 13.2878 7.04002 12.9C7.11688 12.5123 7.30686 12.156 7.586 11.8761C8.341 11.1201 9.65899 11.1201 10.414 11.8761L11.475 12.9371C11.5687 13.0308 11.6214 13.158 11.6214 13.2906C11.6214 13.4232 11.5687 13.5503 11.475 13.6441L10.414 14.7051C10.037 15.0821 9.53399 15.2901 8.99999 15.2901ZM8.99999 12.2901C8.80224 12.2901 8.60895 12.3488 8.44454 12.4587C8.28013 12.5686 8.15199 12.7247 8.07632 12.9074C8.00065 13.0901 7.98084 13.2912 8.01941 13.4851C8.05798 13.6791 8.15319 13.8572 8.293 13.9971C8.4836 14.1787 8.73675 14.2799 8.99999 14.2799C9.26324 14.2799 9.51639 14.1787 9.70699 13.9971L10.414 13.2901L9.70699 12.5831C9.61439 12.4899 9.50422 12.416 9.38286 12.3657C9.2615 12.3154 9.13136 12.2897 8.99999 12.2901Z" fill="white"/>
<path d="M13.0001 15.2901C12.7373 15.2909 12.477 15.2395 12.2343 15.1389C11.9916 15.0383 11.7712 14.8905 11.5861 14.7041L10.5251 13.6431C10.4313 13.5493 10.3787 13.4222 10.3787 13.2896C10.3787 13.157 10.4313 13.0299 10.5251 12.9361L11.5861 11.8751C12.3411 11.1191 13.6591 11.1191 14.4141 11.8751C14.6935 12.1549 14.8838 12.5113 14.9609 12.8992C15.0379 13.2872 14.9983 13.6892 14.847 14.0546C14.6957 14.42 14.4395 14.7324 14.1108 14.9523C13.7821 15.1722 13.3955 15.2897 13.0001 15.2901ZM11.5861 13.2901L12.2931 13.9971C12.4837 14.1787 12.7368 14.28 13.0001 14.28C13.2633 14.28 13.5165 14.1787 13.7071 13.9971C13.8945 13.8096 13.9998 13.5553 13.9998 13.2901C13.9998 13.0249 13.8945 12.7706 13.7071 12.5831C13.5165 12.4015 13.2633 12.3002 13.0001 12.3002C12.7368 12.3002 12.4837 12.4015 12.2931 12.5831L11.5861 13.2901Z" fill="white"/>
<path d="M13.5 17.2902C13.3715 17.2902 13.248 17.2408 13.155 17.1522L10.655 14.7742C10.6074 14.729 10.5691 14.6748 10.5425 14.6148C10.5158 14.5548 10.5012 14.4901 10.4996 14.4244C10.4979 14.3588 10.5092 14.2934 10.5327 14.2322C10.5563 14.1709 10.5917 14.1148 10.637 14.0672C10.7283 13.9711 10.8542 13.9152 10.9867 13.9118C11.0524 13.9101 11.1177 13.9214 11.179 13.945C11.2403 13.9685 11.2964 14.004 11.344 14.0492L13.844 16.4272C13.9166 16.496 13.9669 16.585 13.9884 16.6828C14.0099 16.7805 14.0016 16.8824 13.9646 16.9753C13.9275 17.0683 13.8635 17.148 13.7806 17.2041C13.6978 17.2602 13.6 17.2902 13.5 17.2902Z" fill="white"/>
<path d="M8.49996 17.2902C8.39965 17.291 8.30144 17.2615 8.21817 17.2056C8.1349 17.1497 8.07045 17.0699 8.03327 16.9768C7.9961 16.8836 7.98792 16.7814 8.00981 16.6835C8.0317 16.5856 8.08264 16.4966 8.15596 16.4282L10.656 14.0502C10.7521 13.9588 10.8806 13.9094 11.0132 13.9128C11.1458 13.9161 11.2716 13.972 11.363 14.0682C11.4543 14.1643 11.5038 14.2928 11.5004 14.4254C11.497 14.558 11.4411 14.6838 11.345 14.7752L8.84496 17.1532C8.75163 17.2412 8.62822 17.2902 8.49996 17.2902Z" fill="white"/>
<path d="M25.5 24.29H6.5C5.8372 24.2892 5.20178 24.0256 4.73311 23.5569C4.26444 23.0883 4.00079 22.4528 4 21.79V10.79C4 9.41104 5.122 8.29004 6.5 8.29004H25.5C26.878 8.29004 28 9.41104 28 10.79V21.79C28 23.169 26.878 24.29 25.5 24.29ZM6.5 9.29004C5.673 9.29004 5 9.96304 5 10.79V21.79C5 22.617 5.673 23.29 6.5 23.29H25.5C26.327 23.29 27 22.617 27 21.79V10.79C27 9.96304 26.327 9.29004 25.5 9.29004H6.5Z" fill="white"/>
<path d="M25.5 20.29H23.5C23.3674 20.29 23.2402 20.2374 23.1464 20.1436C23.0527 20.0498 23 19.9226 23 19.79C23 19.6574 23.0527 19.5303 23.1464 19.4365C23.2402 19.3427 23.3674 19.29 23.5 19.29H25.5C25.6326 19.29 25.7598 19.3427 25.8536 19.4365C25.9473 19.5303 26 19.6574 26 19.79C26 19.9226 25.9473 20.0498 25.8536 20.1436C25.7598 20.2374 25.6326 20.29 25.5 20.29ZM25.5 22.29H21.5C21.3674 22.29 21.2402 22.2374 21.1464 22.1436C21.0527 22.0498 21 21.9226 21 21.79C21 21.6574 21.0527 21.5303 21.1464 21.4365C21.2402 21.3427 21.3674 21.29 21.5 21.29H25.5C25.6326 21.29 25.7598 21.3427 25.8536 21.4365C25.9473 21.5303 26 21.6574 26 21.79C26 21.9226 25.9473 22.0498 25.8536 22.1436C25.7598 22.2374 25.6326 22.29 25.5 22.29Z" fill="white"/>
</svg>
