<svg width="20" height="21" viewBox="0 0 20 21" fill="none" xmlns="http://www.w3.org/2000/svg">
<path fill-rule="evenodd" clip-rule="evenodd" d="M9.37502 2.16699C9.37502 1.82181 9.65484 1.54199 10 1.54199C14.9476 1.54199 18.9584 5.55277 18.9584 10.5003C18.9584 15.4479 14.9476 19.4587 10 19.4587C5.05247 19.4587 1.04169 15.4479 1.04169 10.5003C1.04169 10.1551 1.32151 9.87533 1.66669 9.87533C2.01187 9.87533 2.29169 10.1551 2.29169 10.5003C2.29169 14.7575 5.74283 18.2087 10 18.2087C14.2572 18.2087 17.7084 14.7575 17.7084 10.5003C17.7084 6.24313 14.2572 2.79199 10 2.79199C9.65484 2.79199 9.37502 2.51217 9.37502 2.16699ZM10 7.37533C10.3452 7.37533 10.625 7.65515 10.625 8.00033V10.7087H13.3334C13.6785 10.7087 13.9584 10.9885 13.9584 11.3337C13.9584 11.6788 13.6785 11.9587 13.3334 11.9587H10C9.65484 11.9587 9.37502 11.6788 9.37502 11.3337V8.00033C9.37502 7.65515 9.65484 7.37533 10 7.37533Z" fill="#8E8E93"/>
<path fill-rule="evenodd" clip-rule="evenodd" d="M7.583 2.49828C7.70731 2.82029 7.54703 3.18211 7.22501 3.30642C7.10715 3.35191 6.99068 3.40023 6.87569 3.45128C6.5602 3.59134 6.19091 3.44912 6.05085 3.13364C5.91079 2.81815 6.05301 2.44886 6.36849 2.3088C6.50225 2.24942 6.63774 2.19322 6.77486 2.14029C7.09688 2.01598 7.45869 2.17626 7.583 2.49828ZM4.70644 4.03388C4.94449 4.28384 4.93484 4.67945 4.68488 4.9175C4.59349 5.00454 4.50423 5.0938 4.41719 5.18519C4.17914 5.43515 3.78353 5.4448 3.53357 5.20675C3.28362 4.96869 3.27396 4.57308 3.51202 4.32313C3.61307 4.21701 3.71671 4.11338 3.82282 4.01232C4.07278 3.77427 4.46839 3.78392 4.70644 4.03388ZM2.63333 6.55116C2.94882 6.69121 3.09103 7.06051 2.95097 7.37599C2.89992 7.49099 2.85161 7.60745 2.80611 7.72532C2.68181 8.04733 2.31999 8.20761 1.99797 8.08331C1.67595 7.959 1.51567 7.59718 1.63998 7.27516C1.69291 7.13804 1.74912 7.00255 1.8085 6.8688C1.94855 6.55331 2.31784 6.4111 2.63333 6.55116Z" fill="#8E8E93"/>
</svg>
