<svg width="24" height="25" viewBox="0 0 24 25" fill="none" xmlns="http://www.w3.org/2000/svg">
<path fill-rule="evenodd" clip-rule="evenodd" d="M8.13602 2.1026C8.35556 2.45386 8.24877 2.91657 7.89752 3.1361L3.8975 5.6361C3.54624 5.85563 3.08353 5.74885 2.864 5.3976C2.64447 5.04634 2.75125 4.58363 3.1025 4.3641L7.10253 1.8641C7.45378 1.64457 7.91649 1.75135 8.13602 2.1026ZM15.864 2.1026C16.0835 1.75135 16.5462 1.64457 16.8975 1.8641L20.8975 4.3641C21.2488 4.58363 21.3555 5.04635 21.136 5.3976C20.9165 5.74885 20.4538 5.85563 20.1025 5.6361L16.1025 3.1361C15.7512 2.91657 15.6445 2.45385 15.864 2.1026ZM12 5.2501C7.44365 5.2501 3.75 8.94375 3.75 13.5001C3.75 18.0564 7.44365 21.7501 12 21.7501C16.5563 21.7501 20.25 18.0564 20.25 13.5001C20.25 8.94375 16.5563 5.2501 12 5.2501ZM2.25 13.5001C2.25 8.11532 6.61522 3.7501 12 3.7501C17.3848 3.7501 21.75 8.11532 21.75 13.5001C21.75 18.8849 17.3848 23.2501 12 23.2501C6.61522 23.2501 2.25 18.8849 2.25 13.5001ZM8.25 13.5001C8.25 13.0859 8.58579 12.7501 9 12.7501H15C15.4142 12.7501 15.75 13.0859 15.75 13.5001C15.75 13.9143 15.4142 14.2501 15 14.2501H9C8.58579 14.2501 8.25 13.9143 8.25 13.5001Z" fill="#FF3B30"/>
</svg>
