<svg width="27" height="24" viewBox="0 0 27 24" fill="none" xmlns="http://www.w3.org/2000/svg">
<path d="M2.03278 3.47254C2.19439 4.09202 2.84144 4.45957 3.47799 4.29351C4.11458 4.12744 4.49962 3.49065 4.33802 2.87117C4.17642 2.25169 3.52936 1.88413 2.89278 2.0502C2.25622 2.21626 1.87118 2.85307 2.03278 3.47254Z" fill="url(#paint0_linear_4044_3247)"/>
<path d="M2.03278 3.47254C2.19439 4.09202 2.84144 4.45957 3.47799 4.29351C4.11458 4.12744 4.49962 3.49065 4.33802 2.87117C4.17642 2.25169 3.52936 1.88413 2.89278 2.0502C2.25622 2.21626 1.87118 2.85307 2.03278 3.47254Z" fill="url(#paint1_radial_4044_3247)"/>
<path d="M2.03278 3.47254C2.19439 4.09202 2.84144 4.45957 3.47799 4.29351C4.11458 4.12744 4.49962 3.49065 4.33802 2.87117C4.17642 2.25169 3.52936 1.88413 2.89278 2.0502C2.25622 2.21626 1.87118 2.85307 2.03278 3.47254Z" fill="url(#paint2_radial_4044_3247)"/>
<path d="M4.15651 3.17688C3.99249 3.35493 3.61958 3.28797 3.32554 3.02846C3.0315 2.76896 2.92689 2.41367 3.09138 2.23743C3.2554 2.05938 3.62831 2.12635 3.92235 2.38585C4.21641 2.64535 4.32054 2.99883 4.15651 3.17688Z" fill="url(#paint3_radial_4044_3247)"/>
<path d="M2.03278 3.47254C2.19439 4.09202 2.84144 4.45957 3.47799 4.29351C4.11458 4.12744 4.49962 3.49065 4.33802 2.87117C4.17642 2.25169 3.52936 1.88413 2.89278 2.0502C2.25622 2.21626 1.87118 2.85307 2.03278 3.47254Z" fill="url(#paint4_radial_4044_3247)"/>
<path d="M2.48397 2.96988C2.56233 2.6538 2.92509 2.12634 3.5818 2.07096C3.36657 1.99958 3.1293 1.98805 2.89317 2.04965C2.2574 2.21551 1.87177 2.85327 2.03318 3.47199C2.10586 3.7506 2.27651 3.97852 2.50036 4.12881C2.66948 3.68858 2.33818 3.5528 2.48397 2.96988Z" fill="url(#paint5_linear_4044_3247)"/>
<path d="M4.3457 2.90771C4.34809 2.92448 4.35048 2.94125 4.35054 2.95669C4.35018 2.98577 4.34425 3.0163 4.33737 3.04321C4.32037 3.09982 4.2908 3.15391 4.25607 3.20354C4.18433 3.30148 4.09205 3.38159 3.99277 3.45C3.94405 3.48396 3.89112 3.51709 3.83866 3.5443C3.78667 3.57332 3.73186 3.59922 3.6766 3.62329C3.62131 3.64738 3.56511 3.66784 3.50702 3.68879C3.45035 3.70744 3.39131 3.72477 3.33417 3.74161C3.27655 3.75664 3.21658 3.77035 3.15754 3.77996C3.09848 3.78957 3.03759 3.79965 2.97758 3.80565C2.9176 3.81163 2.85665 3.81401 2.79758 3.81589C2.73619 3.81645 2.67615 3.81472 2.61705 3.80889C2.497 3.79769 2.37735 3.77287 2.2669 3.72246C2.21236 3.69611 2.16061 3.66517 2.11765 3.62227C2.09618 3.60083 2.07841 3.57841 2.06388 3.55322C2.05593 3.5379 2.04844 3.5244 2.0442 3.50811C2.17965 3.9056 2.76794 4.098 3.38514 3.93699C4.00234 3.77599 4.42167 3.32072 4.3457 2.90771Z" fill="url(#paint6_radial_4044_3247)"/>
<path d="M2.41013 6.5658C2.59522 7.27533 3.33634 7.69631 4.06543 7.50611C4.79456 7.3159 5.23558 6.58653 5.05048 5.877C4.86538 5.16747 4.12426 4.74648 3.39514 4.93669C2.66605 5.12689 2.22503 5.85627 2.41013 6.5658Z" fill="url(#paint7_linear_4044_3247)"/>
<path d="M2.41013 6.5658C2.59522 7.27533 3.33634 7.69631 4.06543 7.50611C4.79456 7.3159 5.23558 6.58653 5.05048 5.877C4.86538 5.16747 4.12426 4.74648 3.39514 4.93669C2.66605 5.12689 2.22503 5.85627 2.41013 6.5658Z" fill="url(#paint8_radial_4044_3247)"/>
<path d="M2.41013 6.5658C2.59522 7.27533 3.33634 7.69631 4.06543 7.50611C4.79456 7.3159 5.23558 6.58653 5.05048 5.877C4.86538 5.16747 4.12426 4.74648 3.39514 4.93669C2.66605 5.12689 2.22503 5.85627 2.41013 6.5658Z" fill="url(#paint9_radial_4044_3247)"/>
<path d="M4.84209 6.2274C4.65423 6.43133 4.22712 6.35464 3.89033 6.05741C3.55354 5.76018 3.43373 5.35324 3.62213 5.15138C3.80999 4.94745 4.23711 5.02415 4.5739 5.32137C4.9107 5.6186 5.02997 6.02347 4.84209 6.2274Z" fill="url(#paint10_radial_4044_3247)"/>
<path d="M2.41013 6.5658C2.59522 7.27533 3.33634 7.69631 4.06543 7.50611C4.79456 7.3159 5.23558 6.58653 5.05048 5.877C4.86538 5.16747 4.12426 4.74648 3.39514 4.93669C2.66605 5.12689 2.22503 5.85627 2.41013 6.5658Z" fill="url(#paint11_radial_4044_3247)"/>
<path d="M2.92673 5.99021C3.01647 5.62819 3.43198 5.02405 4.18415 4.96062C3.93764 4.87886 3.66587 4.86566 3.39541 4.93621C2.66722 5.12618 2.22553 5.85665 2.4104 6.56532C2.49365 6.88443 2.68911 7.14549 2.9455 7.31762C3.1392 6.8134 2.75974 6.65787 2.92673 5.99021Z" fill="url(#paint12_linear_4044_3247)"/>
<path d="M5.05859 5.91895C5.06133 5.93815 5.06406 5.95735 5.06413 5.97504C5.06372 6.00834 5.05693 6.04332 5.04905 6.07414C5.02957 6.13898 4.99571 6.20093 4.95593 6.25778C4.87376 6.36995 4.76807 6.46171 4.65435 6.54006C4.59855 6.57897 4.53793 6.61691 4.47784 6.64808C4.4183 6.68131 4.35551 6.71097 4.29222 6.73855C4.22889 6.76614 4.16452 6.78957 4.09799 6.81357C4.03308 6.83493 3.96546 6.85478 3.90001 6.87406C3.83402 6.89128 3.76532 6.90699 3.69771 6.91799C3.63005 6.92899 3.56032 6.94055 3.49158 6.94741C3.42289 6.95427 3.35307 6.95699 3.28542 6.95915C3.2151 6.95978 3.14633 6.95781 3.07864 6.95112C2.94113 6.9383 2.80409 6.90987 2.67759 6.85213C2.61512 6.82196 2.55584 6.78652 2.50665 6.73738C2.48205 6.71281 2.4617 6.68714 2.44506 6.65829C2.43595 6.64074 2.42738 6.62528 2.42251 6.60663C2.57765 7.0619 3.25147 7.28227 3.95839 7.09785C4.66531 6.91344 5.14561 6.39199 5.05859 5.91895Z" fill="url(#paint13_radial_4044_3247)"/>
<path d="M5.26379 4.24697C5.49702 5.14101 6.43086 5.67147 7.34955 5.43181C8.26828 5.19214 8.82399 4.2731 8.59076 3.37906C8.35753 2.48502 7.42368 1.95454 6.50495 2.19422C5.58626 2.43388 5.03056 3.35293 5.26379 4.24697Z" fill="url(#paint14_linear_4044_3247)"/>
<path d="M5.26379 4.24697C5.49702 5.14101 6.43086 5.67147 7.34955 5.43181C8.26828 5.19214 8.82399 4.2731 8.59076 3.37906C8.35753 2.48502 7.42368 1.95454 6.50495 2.19422C5.58626 2.43388 5.03056 3.35293 5.26379 4.24697Z" fill="url(#paint15_radial_4044_3247)"/>
<path d="M5.26379 4.24697C5.49702 5.14101 6.43086 5.67147 7.34955 5.43181C8.26828 5.19214 8.82399 4.2731 8.59076 3.37906C8.35753 2.48502 7.42368 1.95454 6.50495 2.19422C5.58626 2.43388 5.03056 3.35293 5.26379 4.24697Z" fill="url(#paint16_radial_4044_3247)"/>
<path d="M8.32823 3.82101C8.09152 4.07797 7.55334 3.98133 7.12897 3.60681C6.7046 3.23229 6.55363 2.71952 6.79102 2.46517C7.02774 2.20821 7.56592 2.30485 7.99029 2.67937C8.41469 3.05388 8.56497 3.56404 8.32823 3.82101Z" fill="url(#paint17_radial_4044_3247)"/>
<path d="M5.26379 4.24697C5.49702 5.14101 6.43086 5.67147 7.34955 5.43181C8.26828 5.19214 8.82399 4.2731 8.59076 3.37906C8.35753 2.48502 7.42368 1.95454 6.50495 2.19422C5.58626 2.43388 5.03056 3.35293 5.26379 4.24697Z" fill="url(#paint18_radial_4044_3247)"/>
<path d="M5.91514 3.522C6.02822 3.06583 6.55178 2.30459 7.49955 2.22467C7.18893 2.12164 6.84649 2.10501 6.5057 2.19391C5.58814 2.43328 5.0316 3.35371 5.26454 4.24667C5.36944 4.64876 5.61573 4.9777 5.9388 5.1946C6.18287 4.55925 5.70473 4.36329 5.91514 3.522Z" fill="url(#paint19_linear_4044_3247)"/>
<path d="M8.60156 3.43262C8.60501 3.45682 8.60846 3.48101 8.60854 3.5033C8.60803 3.54526 8.59946 3.58933 8.58953 3.62817C8.565 3.70987 8.52232 3.78793 8.47221 3.85956C8.36866 4.00091 8.23549 4.11652 8.0922 4.21525C8.02189 4.26427 7.9455 4.31209 7.86979 4.35136C7.79476 4.39324 7.71564 4.43061 7.63589 4.46536C7.5561 4.50012 7.47499 4.52964 7.39115 4.55988C7.30936 4.5868 7.22417 4.61181 7.14169 4.63611C7.05854 4.6578 6.97198 4.6776 6.88678 4.69146C6.80154 4.70533 6.71366 4.71988 6.62706 4.72854C6.5405 4.73717 6.45253 4.7406 6.36728 4.74332C6.27868 4.74412 6.19202 4.74163 6.10673 4.73321C5.93347 4.71706 5.76079 4.68123 5.60139 4.60848C5.52267 4.57045 5.44798 4.5258 5.38599 4.46389C5.355 4.43293 5.32936 4.40058 5.30839 4.36422C5.29691 4.34212 5.28611 4.32263 5.27997 4.29913C5.47546 4.87279 6.3245 5.15047 7.21526 4.9181C8.10601 4.68572 8.71121 4.02867 8.60156 3.43262Z" fill="url(#paint20_radial_4044_3247)"/>
<path d="M23.4516 6.48078C18.1907 1.24023 13.3634 1.57017 11.3942 3.28644C9.83881 4.64203 9.90822 7.59753 8.48944 9.09552C7.46482 8.5798 6.44896 8.44816 5.49863 8.55367C1.91735 8.95126 0.204668 13.4084 2.01957 16.5212C3.35974 18.8198 5.47649 20.3442 7.08686 21.4413C10.7663 23.9479 13.6832 23.9999 15.1393 23.9999C17.633 23.9999 33.4263 16.417 23.4516 6.48078Z" fill="#005C77"/>
<rect x="7.53613" y="15.166" width="10.9822" height="5.22962" fill="white"/>
<g clip-path="url(#clip0_4044_3247)">
<path fill-rule="evenodd" clip-rule="evenodd" d="M14.9987 22.9998H13.0097C9.90473 22.9998 8.35673 22.9998 7.30373 21.9898C6.24173 20.9798 6.02573 19.2798 5.58473 15.8998L5.33273 13.9598C4.99073 11.3198 4.81973 9.99977 5.30573 8.87977C5.79173 7.74977 6.82673 7.06977 8.89673 5.69977L10.1387 4.87977C12.0197 3.63977 12.9557 3.00977 13.9997 3.00977C15.0437 3.00977 15.9797 3.62977 17.8607 4.87977L19.1027 5.69977C21.1727 7.06977 22.2077 7.75977 22.6937 8.87977C23.1797 10.0098 23.0087 11.3298 22.6667 13.9598L22.4147 15.8998C21.9737 19.2898 21.7577 20.9798 20.6957 21.9898C19.6337 22.9998 18.0857 22.9998 14.9897 22.9998H14.9987ZM10.7597 16.5498C10.9847 16.2198 11.4077 16.1498 11.7047 16.3898C12.3617 16.9298 13.1537 17.2398 13.9997 17.2398C14.8457 17.2398 15.6377 16.9298 16.2947 16.3898C16.5917 16.1398 17.0147 16.2098 17.2397 16.5498C17.4647 16.8798 17.4017 17.3498 17.0957 17.5998C16.2227 18.3198 15.1517 18.7498 13.9907 18.7498C12.8297 18.7498 11.7677 18.3198 10.8857 17.5998C10.5887 17.3498 10.5257 16.8798 10.7417 16.5498H10.7597Z" fill="#00DAE8"/>
<path fill-rule="evenodd" clip-rule="evenodd" d="M10.7599 16.5498C10.9849 16.2198 11.4079 16.1498 11.7049 16.3898C12.3619 16.9298 13.1539 17.2398 13.9999 17.2398C14.8459 17.2398 15.6379 16.9298 16.2949 16.3898C16.5919 16.1398 17.0149 16.2098 17.2399 16.5498C17.4649 16.8798 17.4019 17.3498 17.0959 17.5998C16.2229 18.3198 15.1519 18.7498 13.9909 18.7498C12.8299 18.7498 11.7679 18.3198 10.8859 17.5998C10.5889 17.3498 10.5259 16.8798 10.7419 16.5498H10.7599Z" fill="#00ABAF"/>
<mask id="mask0_4044_3247" style="mask-type:luminance" maskUnits="userSpaceOnUse" x="4" y="3" width="19" height="21">
<path d="M14.999 23.0098H13.009C9.90239 23.0098 8.35359 23.0098 7.30004 21.9993C6.23749 20.9888 6.02138 19.2879 5.58015 15.9062L5.32802 13.9652C4.98584 11.3239 4.81476 10.0033 5.30101 8.8827C5.78726 7.75214 6.8228 7.0718 8.89387 5.70111L10.1365 4.8807C12.0185 3.64008 12.955 3.00977 13.9995 3.00977C15.0441 3.00977 15.9805 3.63008 17.8625 4.8807L19.1052 5.70111C21.1762 7.0718 22.2118 7.76214 22.698 8.8827C23.1843 10.0133 23.0132 11.3339 22.671 13.9652L22.4189 15.9062C21.9776 19.2979 21.7615 20.9888 20.699 21.9993C19.6364 23.0098 18.0876 23.0098 14.99 23.0098H14.999ZM10.7578 16.5565C10.9829 16.2264 11.4062 16.1563 11.7033 16.3965C12.3607 16.9367 13.1531 17.2469 13.9995 17.2469C14.8459 17.2469 15.6384 16.9367 16.2957 16.3965C16.5929 16.1463 17.0161 16.2164 17.2412 16.5565C17.4663 16.8867 17.4033 17.3569 17.0971 17.6071C16.2237 18.3274 15.1521 18.7576 13.9905 18.7576C12.8289 18.7576 11.7664 18.3274 10.8839 17.6071C10.5867 17.3569 10.5237 16.8867 10.7398 16.5565H10.7578Z" fill="white"/>
</mask>
<g mask="url(#mask0_4044_3247)">
<path fill-rule="evenodd" clip-rule="evenodd" d="M18.0585 22.92C18.8505 22.72 19.9665 20.63 20.0745 19.81L20.9565 10.87C21.1185 9.69 19.0935 8.07 18.2205 7.37L13.9995 3C15.0345 3 15.9795 3.62 17.8605 4.87L19.1025 5.69C21.1725 7.06 22.2075 7.75 22.6935 8.87C23.1795 10 23.0085 11.32 22.6665 13.95L22.4145 15.89C21.9735 19.28 21.7575 20.97 20.6955 21.98C20.5245 22.14 20.2725 22.38 19.9305 22.54C18.9045 23.01 18.2655 22.87 18.0585 22.9V22.92Z" fill="#00737A" fill-opacity="0.4"/>
</g>
<path fill-rule="evenodd" clip-rule="evenodd" d="M10.7594 16.5498C10.9844 16.2198 11.4074 16.1498 11.7044 16.3898C12.3614 16.9298 13.1534 17.2398 13.9994 17.2398C14.8454 17.2398 15.6374 16.9298 16.2944 16.3898C16.5914 16.1398 17.0144 16.2098 17.2394 16.5498C17.4644 16.8798 17.4014 17.3498 17.0954 17.5998C16.2224 18.3198 15.1514 18.7498 13.9904 18.7498C12.8294 18.7498 11.7674 18.3198 10.8854 17.5998C10.5884 17.3498 10.5254 16.8798 10.7414 16.5498H10.7594Z" fill="white"/>
</g>
<defs>
<linearGradient id="paint0_linear_4044_3247" x1="4.54187" y1="1.75246" x2="-0.802296" y2="7.62361" gradientUnits="userSpaceOnUse">
<stop stop-color="#003C61" stop-opacity="0"/>
<stop offset="1" stop-color="#003C61" stop-opacity="0.7"/>
</linearGradient>
<radialGradient id="paint1_radial_4044_3247" cx="0" cy="0" r="1" gradientUnits="userSpaceOnUse" gradientTransform="translate(4.09531 2.60705) rotate(75.379) scale(2.71387 2.78878)">
<stop offset="0.5839" stop-color="#003C61" stop-opacity="0"/>
<stop offset="0.6244" stop-color="#003C61" stop-opacity="0.0730316"/>
<stop offset="0.6809" stop-color="#003C61" stop-opacity="0.1749"/>
<stop offset="0.7469" stop-color="#003C61" stop-opacity="0.2938"/>
<stop offset="0.82" stop-color="#003C61" stop-opacity="0.4256"/>
<stop offset="0.899" stop-color="#003C61" stop-opacity="0.568"/>
<stop offset="0.9818" stop-color="#003C61" stop-opacity="0.7172"/>
<stop offset="1" stop-color="#003C61" stop-opacity="0.75"/>
</radialGradient>
<radialGradient id="paint2_radial_4044_3247" cx="0" cy="0" r="1" gradientUnits="userSpaceOnUse" gradientTransform="translate(3.22539 3.40175) rotate(75.379) scale(3.01356 3.09676)">
<stop stop-color="#003C61" stop-opacity="0.2"/>
<stop offset="0.1913" stop-color="#003C61" stop-opacity="0.64"/>
<stop offset="0.458" stop-color="#003C61" stop-opacity="0.74"/>
<stop offset="0.7676" stop-color="#003C61" stop-opacity="0.88"/>
<stop offset="1" stop-color="#003C61" stop-opacity="0.85"/>
</radialGradient>
<radialGradient id="paint3_radial_4044_3247" cx="0" cy="0" r="1" gradientUnits="userSpaceOnUse" gradientTransform="translate(3.62485 2.70742) rotate(41.4093) scale(0.588582 0.395486)">
<stop stop-color="white"/>
<stop offset="1" stop-color="white" stop-opacity="0"/>
</radialGradient>
<radialGradient id="paint4_radial_4044_3247" cx="0" cy="0" r="1" gradientUnits="userSpaceOnUse" gradientTransform="translate(3.22539 3.40175) rotate(75.379) scale(3.01356 3.09676)">
<stop stop-color="#003C61" stop-opacity="0"/>
<stop offset="0.1913" stop-color="#003C61" stop-opacity="0.1435"/>
<stop offset="0.458" stop-color="#003C61" stop-opacity="0.3435"/>
<stop offset="0.7676" stop-color="#003C61" stop-opacity="0.5757"/>
<stop offset="1" stop-color="#003C61" stop-opacity="0.75"/>
</radialGradient>
<linearGradient id="paint5_linear_4044_3247" x1="3.50843" y1="3.14459" x2="0.849364" y2="2.77152" gradientUnits="userSpaceOnUse">
<stop stop-color="#003C61" stop-opacity="0"/>
<stop offset="1" stop-color="#003C61" stop-opacity="0.75"/>
</linearGradient>
<radialGradient id="paint6_radial_4044_3247" cx="0" cy="0" r="1" gradientUnits="userSpaceOnUse" gradientTransform="translate(3.90507 3.57497) rotate(73.8968) scale(0.860809 0.370365)">
<stop stop-color="white"/>
<stop offset="1" stop-color="white" stop-opacity="0"/>
</radialGradient>
<linearGradient id="paint7_linear_4044_3247" x1="5.28397" y1="4.59566" x2="-0.837099" y2="11.3203" gradientUnits="userSpaceOnUse">
<stop stop-color="#003C61" stop-opacity="0"/>
<stop offset="1" stop-color="#003C61" stop-opacity="0.7"/>
</linearGradient>
<radialGradient id="paint8_radial_4044_3247" cx="0" cy="0" r="1" gradientUnits="userSpaceOnUse" gradientTransform="translate(4.77249 5.57449) rotate(75.379) scale(3.10839 3.1942)">
<stop offset="0.5839" stop-color="#003C61" stop-opacity="0"/>
<stop offset="0.6244" stop-color="#003C61" stop-opacity="0.0730316"/>
<stop offset="0.6809" stop-color="#003C61" stop-opacity="0.1749"/>
<stop offset="0.7469" stop-color="#003C61" stop-opacity="0.2938"/>
<stop offset="0.82" stop-color="#003C61" stop-opacity="0.4256"/>
<stop offset="0.899" stop-color="#003C61" stop-opacity="0.568"/>
<stop offset="0.9818" stop-color="#003C61" stop-opacity="0.7172"/>
<stop offset="1" stop-color="#003C61" stop-opacity="0.75"/>
</radialGradient>
<radialGradient id="paint9_radial_4044_3247" cx="0" cy="0" r="1" gradientUnits="userSpaceOnUse" gradientTransform="translate(3.77501 6.48548) rotate(75.379) scale(3.45168 3.54696)">
<stop stop-color="#003C61" stop-opacity="0"/>
<stop offset="0.1913" stop-color="#003C61" stop-opacity="0.1435"/>
<stop offset="0.458" stop-color="#003C61" stop-opacity="0.3435"/>
<stop offset="0.7676" stop-color="#003C61" stop-opacity="0.5757"/>
<stop offset="1" stop-color="#003C61" stop-opacity="0.75"/>
</radialGradient>
<radialGradient id="paint10_radial_4044_3247" cx="0" cy="0" r="1" gradientUnits="userSpaceOnUse" gradientTransform="translate(4.23315 5.68969) rotate(41.4093) scale(0.674146 0.452978)">
<stop stop-color="white"/>
<stop offset="1" stop-color="white" stop-opacity="0"/>
</radialGradient>
<radialGradient id="paint11_radial_4044_3247" cx="0" cy="0" r="1" gradientUnits="userSpaceOnUse" gradientTransform="translate(3.77611 6.48471) rotate(75.379) scale(3.45165 3.54695)">
<stop stop-color="#003C61" stop-opacity="0.2"/>
<stop offset="0.1913" stop-color="#003C61" stop-opacity="0.64"/>
<stop offset="0.458" stop-color="#003C61" stop-opacity="0.74"/>
<stop offset="0.7676" stop-color="#003C61" stop-opacity="0.88"/>
<stop offset="1" stop-color="#003C61" stop-opacity="0.85"/>
</radialGradient>
<linearGradient id="paint12_linear_4044_3247" x1="4.10011" y1="6.19033" x2="1.05449" y2="5.76302" gradientUnits="userSpaceOnUse">
<stop stop-color="#003C61" stop-opacity="0"/>
<stop offset="1" stop-color="#003C61" stop-opacity="0.75"/>
</linearGradient>
<radialGradient id="paint13_radial_4044_3247" cx="0" cy="0" r="1" gradientUnits="userSpaceOnUse" gradientTransform="translate(4.55391 6.6832) rotate(73.8968) scale(0.985947 0.424206)">
<stop stop-color="white"/>
<stop offset="1" stop-color="white" stop-opacity="0"/>
</radialGradient>
<linearGradient id="paint14_linear_4044_3247" x1="8.88496" y1="1.76451" x2="1.17214" y2="10.2379" gradientUnits="userSpaceOnUse">
<stop stop-color="#003C61" stop-opacity="0"/>
<stop offset="1" stop-color="#003C61" stop-opacity="0.7"/>
</linearGradient>
<radialGradient id="paint15_radial_4044_3247" cx="0" cy="0" r="1" gradientUnits="userSpaceOnUse" gradientTransform="translate(8.24047 2.99787) rotate(75.379) scale(3.91672 4.02483)">
<stop offset="0.5839" stop-color="#003C61" stop-opacity="0"/>
<stop offset="0.6244" stop-color="#003C61" stop-opacity="0.0730316"/>
<stop offset="0.6809" stop-color="#003C61" stop-opacity="0.1749"/>
<stop offset="0.7469" stop-color="#003C61" stop-opacity="0.2938"/>
<stop offset="0.82" stop-color="#003C61" stop-opacity="0.4256"/>
<stop offset="0.899" stop-color="#003C61" stop-opacity="0.568"/>
<stop offset="0.9818" stop-color="#003C61" stop-opacity="0.7172"/>
<stop offset="1" stop-color="#003C61" stop-opacity="0.75"/>
</radialGradient>
<radialGradient id="paint16_radial_4044_3247" cx="0" cy="0" r="1" gradientUnits="userSpaceOnUse" gradientTransform="translate(6.98499 4.1448) rotate(75.379) scale(4.34924 4.46932)">
<stop stop-color="#003C61" stop-opacity="0.2"/>
<stop offset="0.1913" stop-color="#003C61" stop-opacity="0.64"/>
<stop offset="0.458" stop-color="#003C61" stop-opacity="0.74"/>
<stop offset="0.7676" stop-color="#003C61" stop-opacity="0.88"/>
<stop offset="1" stop-color="#003C61" stop-opacity="0.85"/>
</radialGradient>
<radialGradient id="paint17_radial_4044_3247" cx="0" cy="0" r="1" gradientUnits="userSpaceOnUse" gradientTransform="translate(7.56093 3.14347) rotate(41.4093) scale(0.849455 0.570774)">
<stop stop-color="white"/>
<stop offset="1" stop-color="white" stop-opacity="0"/>
</radialGradient>
<radialGradient id="paint18_radial_4044_3247" cx="0" cy="0" r="1" gradientUnits="userSpaceOnUse" gradientTransform="translate(6.98499 4.1448) rotate(75.379) scale(4.34924 4.46932)">
<stop stop-color="#003C61" stop-opacity="0"/>
<stop offset="0.1913" stop-color="#003C61" stop-opacity="0.1435"/>
<stop offset="0.458" stop-color="#003C61" stop-opacity="0.3435"/>
<stop offset="0.7676" stop-color="#003C61" stop-opacity="0.5757"/>
<stop offset="1" stop-color="#003C61" stop-opacity="0.75"/>
</radialGradient>
<linearGradient id="paint19_linear_4044_3247" x1="7.39366" y1="3.77416" x2="3.55604" y2="3.23573" gradientUnits="userSpaceOnUse">
<stop stop-color="#003C61" stop-opacity="0"/>
<stop offset="1" stop-color="#003C61" stop-opacity="0.75"/>
</linearGradient>
<radialGradient id="paint20_radial_4044_3247" cx="0" cy="0" r="1" gradientUnits="userSpaceOnUse" gradientTransform="translate(7.96563 4.39561) rotate(73.8968) scale(1.24234 0.534519)">
<stop stop-color="white"/>
<stop offset="1" stop-color="white" stop-opacity="0"/>
</radialGradient>
<clipPath id="clip0_4044_3247">
<rect width="18" height="20" fill="white" transform="translate(4.99951 3)"/>
</clipPath>
</defs>
</svg>
