<svg width="27" height="24" viewBox="0 0 27 24" fill="none" xmlns="http://www.w3.org/2000/svg">
<rect x="7.53613" y="15.1659" width="10.9822" height="5.22962" fill="white"/>
<g clip-path="url(#clip0_4044_32057)">
<path fill-rule="evenodd" clip-rule="evenodd" d="M14.9987 23H13.0097C9.90473 23 8.35673 23 7.30373 21.99C6.24173 20.98 6.02573 19.28 5.58473 15.9L5.33273 13.96C4.99073 11.32 4.81973 10 5.30573 8.88001C5.79173 7.75001 6.82673 7.07001 8.89673 5.70001L10.1387 4.88001C12.0197 3.64001 12.9557 3.01001 13.9997 3.01001C15.0437 3.01001 15.9797 3.63001 17.8607 4.88001L19.1027 5.70001C21.1727 7.07001 22.2077 7.76001 22.6937 8.88001C23.1797 10.01 23.0087 11.33 22.6667 13.96L22.4147 15.9C21.9737 19.29 21.7577 20.98 20.6957 21.99C19.6337 23 18.0857 23 14.9897 23H14.9987ZM10.7597 16.55C10.9847 16.22 11.4077 16.15 11.7047 16.39C12.3617 16.93 13.1537 17.24 13.9997 17.24C14.8457 17.24 15.6377 16.93 16.2947 16.39C16.5917 16.14 17.0147 16.21 17.2397 16.55C17.4647 16.88 17.4017 17.35 17.0957 17.6C16.2227 18.32 15.1517 18.75 13.9907 18.75C12.8297 18.75 11.7677 18.32 10.8857 17.6C10.5887 17.35 10.5257 16.88 10.7417 16.55H10.7597Z" fill="#949D9E"/>
<path fill-rule="evenodd" clip-rule="evenodd" d="M10.7599 16.55C10.9849 16.22 11.4079 16.15 11.7049 16.39C12.3619 16.93 13.1539 17.24 13.9999 17.24C14.8459 17.24 15.6379 16.93 16.2949 16.39C16.5919 16.14 17.0149 16.21 17.2399 16.55C17.4649 16.88 17.4019 17.35 17.0959 17.6C16.2229 18.32 15.1519 18.75 13.9909 18.75C12.8299 18.75 11.7679 18.32 10.8859 17.6C10.5889 17.35 10.5259 16.88 10.7419 16.55H10.7599Z" fill="#798586"/>
<mask id="mask0_4044_32057" style="mask-type:luminance" maskUnits="userSpaceOnUse" x="4" y="3" width="19" height="21">
<path d="M14.999 23.01H13.009C9.90239 23.01 8.35359 23.01 7.30004 21.9995C6.23749 20.989 6.02138 19.2881 5.58015 15.9065L5.32802 13.9655C4.98584 11.3242 4.81476 10.0035 5.30101 8.88295C5.78726 7.75238 6.8228 7.07204 8.89387 5.70136L10.1365 4.88095C12.0185 3.64032 12.955 3.01001 13.9995 3.01001C15.0441 3.01001 15.9805 3.63032 17.8625 4.88095L19.1052 5.70136C21.1762 7.07204 22.2118 7.76239 22.698 8.88295C23.1843 10.0135 23.0132 11.3342 22.671 13.9655L22.4189 15.9065C21.9776 19.2982 21.7615 20.989 20.699 21.9995C19.6364 23.01 18.0876 23.01 14.99 23.01H14.999ZM10.7578 16.5568C10.9829 16.2266 11.4062 16.1566 11.7033 16.3967C12.3607 16.937 13.1531 17.2471 13.9995 17.2471C14.8459 17.2471 15.6384 16.937 16.2957 16.3967C16.5929 16.1466 17.0161 16.2166 17.2412 16.5568C17.4663 16.8869 17.4033 17.3572 17.0971 17.6073C16.2237 18.3277 15.1521 18.7579 13.9905 18.7579C12.8289 18.7579 11.7664 18.3277 10.8839 17.6073C10.5867 17.3572 10.5237 16.8869 10.7398 16.5568H10.7578Z" fill="white"/>
</mask>
<g mask="url(#mask0_4044_32057)">
<path fill-rule="evenodd" clip-rule="evenodd" d="M18.0585 22.92C18.8505 22.72 19.9665 20.63 20.0745 19.81L20.9565 10.87C21.1185 9.69 19.0935 8.07 18.2205 7.37L13.9995 3C15.0345 3 15.9795 3.62 17.8605 4.87L19.1025 5.69C21.1725 7.06 22.2075 7.75 22.6935 8.87C23.1795 10 23.0085 11.32 22.6665 13.95L22.4145 15.89C21.9735 19.28 21.7575 20.97 20.6955 21.98C20.5245 22.14 20.2725 22.38 19.9305 22.54C18.9045 23.01 18.2655 22.87 18.0585 22.9V22.92Z" fill="#798586"/>
</g>
<path fill-rule="evenodd" clip-rule="evenodd" d="M10.7594 16.55C10.9844 16.22 11.4074 16.15 11.7044 16.39C12.3614 16.93 13.1534 17.24 13.9994 17.24C14.8454 17.24 15.6374 16.93 16.2944 16.39C16.5914 16.14 17.0144 16.21 17.2394 16.55C17.4644 16.88 17.4014 17.35 17.0954 17.6C16.2224 18.32 15.1514 18.75 13.9904 18.75C12.8294 18.75 11.7674 18.32 10.8854 17.6C10.5884 17.35 10.5254 16.88 10.7414 16.55H10.7594Z" fill="white"/>
</g>
<defs>
<clipPath id="clip0_4044_32057">
<rect width="18" height="20" fill="white" transform="translate(4.99951 3)"/>
</clipPath>
</defs>
</svg>
