<svg width="36" height="36" viewBox="0 0 36 36" fill="none" xmlns="http://www.w3.org/2000/svg">
<path d="M18.4278 5.41113C25.414 5.41113 31.084 11.0811 31.084 18.0674C31.084 25.0536 25.414 30.7236 18.4278 30.7236H6.81775L10.0128 27.5286C7.40275 25.2111 5.76025 21.8361 5.76025 18.0674C5.76025 11.0811 11.4303 5.41113 18.4278 5.41113Z" fill="url(#paint0_linear_4045_39754)"/>
<path opacity="0.2" d="M14.6587 5.98488C15.8512 5.61363 17.1112 5.41113 18.4274 5.41113C25.4137 5.41113 31.0837 11.0811 31.0837 18.0674C31.0837 25.0536 25.4137 30.7236 18.4274 30.7236C25.3687 29.1936 29.0924 23.0736 27.6862 16.5261C26.3924 10.4849 21.1724 5.39988 14.6587 5.98488Z" fill="#00DAE8"/>
<path d="M4.00488 26.1562C4.78113 26.1562 5.41113 26.7863 5.41113 27.5625C5.41113 28.3387 4.78113 28.9688 4.00488 28.9688C3.22863 28.9688 2.59863 28.3387 2.59863 27.5625C2.59863 26.7863 3.22863 26.1562 4.00488 26.1562Z" fill="url(#paint1_linear_4045_39754)"/>
<path d="M31.4324 7.52639C32.6024 7.52639 33.5474 6.58139 33.5474 5.41139C33.5474 4.24139 32.6024 3.29639 31.4324 3.29639C30.2624 3.29639 29.3174 4.24139 29.3174 5.41139C29.3174 6.58139 30.2624 7.52639 31.4324 7.52639Z" fill="url(#paint2_linear_4045_39754)"/>
<path d="M20.5318 17.719V23.6928C20.5318 24.8628 19.5868 25.8078 18.4168 25.8078C17.2468 25.8078 16.3018 24.8628 16.3018 23.6928V17.719C16.3018 16.549 17.2468 15.604 18.4168 15.604C19.0018 15.604 19.5305 15.8403 19.913 16.2228C20.2955 16.6053 20.5318 17.134 20.5318 17.719Z" fill="white"/>
<path d="M19.913 10.2486C20.2955 10.6311 20.5318 11.1599 20.5318 11.7449C20.5318 12.3299 20.2955 12.8586 19.913 13.2411C19.5305 13.6236 19.0018 13.8599 18.4168 13.8599C17.2468 13.8599 16.3018 12.9149 16.3018 11.7449C16.3018 11.1599 16.538 10.6311 16.9205 10.2486C17.303 9.86613 17.8318 9.62988 18.4168 9.62988C19.0018 9.62988 19.5305 9.86613 19.913 10.2486Z" fill="white"/>
<path d="M32.6586 12.8026C32.9511 12.8026 33.1874 12.5664 33.1874 12.2739C33.1874 11.9814 32.9511 11.7451 32.6586 11.7451C32.3661 11.7451 32.1299 11.9814 32.1299 12.2739C32.1299 12.5664 32.3661 12.8026 32.6586 12.8026Z" fill="#00DAE8" fill-opacity="0.2"/>
<path d="M31.9614 28.2714C32.2539 28.2714 32.4901 28.0351 32.4901 27.7426C32.4901 27.4501 32.2539 27.2139 31.9614 27.2139C31.6689 27.2139 31.4326 27.4501 31.4326 27.7426C31.4326 28.0351 31.6689 28.2714 31.9614 28.2714Z" fill="#00DAE8" fill-opacity="0.2"/>
<path d="M25.2787 3.65613C25.5712 3.65613 25.8075 3.41988 25.8075 3.12738C25.8075 2.83488 25.5712 2.59863 25.2787 2.59863C24.9862 2.59863 24.75 2.83488 24.75 3.12738C24.75 3.41988 24.9862 3.65613 25.2787 3.65613Z" fill="#00DAE8" fill-opacity="0.2"/>
<path d="M24.5703 33.5365C24.8628 33.5365 25.099 33.3003 25.099 33.0078C25.099 32.7153 24.8628 32.479 24.5703 32.479C24.2778 32.479 24.0415 32.7153 24.0415 33.0078C24.0415 33.3003 24.2778 33.5365 24.5703 33.5365Z" fill="#00DAE8" fill-opacity="0.2"/>
<path d="M10.1586 3.3075C10.4511 3.3075 10.6874 3.07125 10.6874 2.77875C10.6874 2.48625 10.4511 2.25 10.1586 2.25C9.86613 2.25 9.62988 2.48625 9.62988 2.77875C9.62988 3.07125 9.86613 3.3075 10.1586 3.3075Z" fill="#00DAE8" fill-opacity="0.2"/>
<path d="M3.12738 14.9061C3.41988 14.9061 3.65613 14.6699 3.65613 14.3774C3.65613 14.0849 3.41988 13.8486 3.12738 13.8486C2.83488 13.8486 2.59863 14.0849 2.59863 14.3774C2.59863 14.6699 2.83488 14.9061 3.12738 14.9061Z" fill="#00DAE8" fill-opacity="0.2"/>
<path d="M8.57238 18.4277C8.38113 18.4277 8.22363 18.2702 8.22363 18.0789C8.22363 16.1552 8.76363 14.2877 9.77613 12.6677C10.7661 11.0927 12.1611 9.82143 13.8261 8.97768C13.9949 8.88768 14.2086 8.95518 14.2986 9.13518C14.3886 9.30393 14.3211 9.51768 14.1411 9.60768C10.9236 11.2389 8.93238 14.4789 8.93238 18.0789C8.93238 18.2702 8.77488 18.4277 8.58363 18.4277H8.57238Z" fill="white"/>
<path d="M18.4276 26.1561C17.0664 26.1561 15.9639 25.0536 15.9639 23.6924V17.7186C15.9639 16.3574 17.0664 15.2549 18.4276 15.2549C19.0801 15.2549 19.6989 15.5136 20.1714 15.9749C20.6326 16.4361 20.8914 17.0549 20.8914 17.7186V23.6924C20.8914 25.0536 19.7889 26.1561 18.4276 26.1561ZM18.4276 15.9636C17.4601 15.9636 16.6726 16.7511 16.6726 17.7186V23.6924C16.6726 24.6599 17.4601 25.4474 18.4276 25.4474C19.3951 25.4474 20.1826 24.6599 20.1826 23.6924V17.7186C20.1826 17.2461 20.0026 16.8074 19.6651 16.4811C19.3276 16.1436 18.8889 15.9636 18.4276 15.9636Z" fill="#00DAE8" fill-opacity="0.2"/>
<path d="M18.4276 14.2088C17.0664 14.2088 15.9639 13.1062 15.9639 11.745C15.9639 11.0925 16.2226 10.4737 16.6839 10.0012C17.1451 9.54 17.7639 9.28125 18.4276 9.28125C19.0914 9.28125 19.6989 9.54 20.1714 10.0012C20.6326 10.4625 20.8914 11.0812 20.8914 11.745C20.8914 12.4087 20.6326 13.0162 20.1714 13.4887C19.7101 13.95 19.0914 14.2088 18.4276 14.2088ZM18.4276 9.99C17.9551 9.99 17.5164 10.17 17.1901 10.5075C16.8526 10.845 16.6726 11.2837 16.6726 11.745C16.6726 12.7125 17.4601 13.5 18.4276 13.5C18.9001 13.5 19.3389 13.32 19.6651 12.9825C20.0026 12.645 20.1826 12.2062 20.1826 11.745C20.1826 11.2837 20.0026 10.8338 19.6651 10.5075C19.3276 10.17 18.8889 9.99 18.4276 9.99Z" fill="#00DAE8" fill-opacity="0.2"/>
<path d="M31.4325 7.87525C30.0713 7.87525 28.9688 6.77275 28.9688 5.4115C28.9688 4.05025 30.0713 2.94775 31.4325 2.94775C32.7938 2.94775 33.8962 4.05025 33.8962 5.4115C33.8962 6.77275 32.7938 7.87525 31.4325 7.87525ZM31.4325 3.6565C30.465 3.6565 29.6775 4.444 29.6775 5.4115C29.6775 6.379 30.465 7.1665 31.4325 7.1665C32.4 7.1665 33.1875 6.379 33.1875 5.4115C33.1875 4.444 32.4 3.6565 31.4325 3.6565Z" fill="#00DAE8" fill-opacity="0.2"/>
<path d="M4.005 29.3176C3.0375 29.3176 2.25 28.5301 2.25 27.5626C2.25 26.5951 3.0375 25.8076 4.005 25.8076C4.9725 25.8076 5.76 26.5951 5.76 27.5626C5.76 28.5301 4.9725 29.3176 4.005 29.3176ZM4.005 26.5051C3.42 26.5051 2.9475 26.9776 2.9475 27.5626C2.9475 28.1476 3.42 28.6201 4.005 28.6201C4.59 28.6201 5.0625 28.1476 5.0625 27.5626C5.0625 26.9776 4.59 26.5051 4.005 26.5051Z" fill="#00DAE8" fill-opacity="0.2"/>
<path d="M22.2859 27.4725C22.1509 27.4725 22.0159 27.3937 21.9597 27.2587C21.8809 27.0787 21.9597 26.8762 22.1397 26.7975C25.6384 25.3012 27.8997 21.87 27.8997 18.0675C27.8997 17.8763 28.0572 17.7188 28.2484 17.7188C28.4397 17.7188 28.5972 17.8763 28.5972 18.0675C28.5972 22.1513 26.1672 25.8412 22.4097 27.45C22.3647 27.4725 22.3197 27.4838 22.2747 27.4838L22.2859 27.4725Z" fill="white"/>
<path d="M18.4274 31.0837H6.81738C6.67113 31.0837 6.54738 30.9938 6.49113 30.87C6.43488 30.735 6.46863 30.5888 6.56988 30.4875L9.50613 27.5513C6.89613 25.0987 5.41113 21.6675 5.41113 18.0787C5.41113 10.9012 11.2499 5.0625 18.4274 5.0625C25.6049 5.0625 31.4324 10.9013 31.4324 18.0675C31.4324 25.2337 25.5936 31.0725 18.4274 31.0725V31.0837ZM7.67238 30.375H18.4274C25.2111 30.375 30.7349 24.8513 30.7349 18.0675C30.7349 11.2838 25.2111 5.76 18.4274 5.76C11.6436 5.76 6.11988 11.2838 6.11988 18.0675C6.11988 21.5775 7.62738 24.93 10.2486 27.27C10.3161 27.3375 10.3611 27.4275 10.3611 27.5175C10.3611 27.6187 10.3274 27.7087 10.2599 27.7763L7.66113 30.375H7.67238Z" fill="#00DAE8" fill-opacity="0.2"/>
<defs>
<linearGradient id="paint0_linear_4045_39754" x1="31.8961" y1="9.62988" x2="-2.87644" y2="15.5018" gradientUnits="userSpaceOnUse">
<stop stop-color="#009EA8"/>
<stop offset="1" stop-color="#00DAE8"/>
</linearGradient>
<linearGradient id="paint1_linear_4045_39754" x1="5.50133" y1="26.625" x2="1.63933" y2="27.2769" gradientUnits="userSpaceOnUse">
<stop stop-color="#009EA8"/>
<stop offset="1" stop-color="#00DAE8"/>
</linearGradient>
<linearGradient id="paint2_linear_4045_39754" x1="33.683" y1="4.00139" x2="27.8746" y2="4.9818" gradientUnits="userSpaceOnUse">
<stop stop-color="#009EA8"/>
<stop offset="1" stop-color="#00DAE8"/>
</linearGradient>
</defs>
</svg>
