<svg width="25" height="24" viewBox="0 0 25 24" fill="none" xmlns="http://www.w3.org/2000/svg">
<path fill-rule="evenodd" clip-rule="evenodd" d="M20.375 20.5917C19.7334 20.0473 18.7666 20.0473 18.125 20.5917C17.4834 21.1361 16.5166 21.1361 15.875 20.5917C15.2334 20.0473 14.2666 20.0473 13.625 20.5917C12.9834 21.1361 12.0166 21.1361 11.375 20.5917C10.7334 20.0473 9.76659 20.0473 9.125 20.5917C8.48341 21.1361 7.51659 21.1361 6.875 20.5917C6.23341 20.0473 5.26659 20.0473 4.625 20.5917C4.18909 20.9616 3.5 20.6662 3.5 20.1094V3.89059C3.5 3.33383 4.18909 3.03842 4.625 3.40832C5.26659 3.95274 6.23341 3.95274 6.875 3.40832C7.51659 2.86389 8.48341 2.86389 9.125 3.40832C9.76659 3.95274 10.7334 3.95274 11.375 3.40832C12.0166 2.86389 12.9834 2.86389 13.625 3.40832C14.2666 3.95274 15.2334 3.95274 15.875 3.40832C16.5166 2.86389 17.4834 2.86389 18.125 3.40832C18.7666 3.95274 19.7334 3.95274 20.375 3.40832C20.8109 3.03842 21.5 3.33383 21.5 3.89059V20.1094C21.5 20.6662 20.8109 20.9616 20.375 20.5917ZM7.25 12C7.25 11.5858 7.58579 11.25 8 11.25H17C17.4142 11.25 17.75 11.5858 17.75 12C17.75 12.4142 17.4142 12.75 17 12.75H8C7.58579 12.75 7.25 12.4142 7.25 12ZM8 7.75C7.58579 7.75 7.25 8.08579 7.25 8.5C7.25 8.91421 7.58579 9.25 8 9.25H17C17.4142 9.25 17.75 8.91421 17.75 8.5C17.75 8.08579 17.4142 7.75 17 7.75H8ZM7.25 15.5C7.25 15.0858 7.58579 14.75 8 14.75H17C17.4142 14.75 17.75 15.0858 17.75 15.5C17.75 15.9142 17.4142 16.25 17 16.25H8C7.58579 16.25 7.25 15.9142 7.25 15.5Z" fill="white"/>
</svg>
