<svg width="16" height="16" viewBox="0 0 16 16" fill="none" xmlns="http://www.w3.org/2000/svg">
<path fill-rule="evenodd" clip-rule="evenodd" d="M2.16663 6.76218C2.16663 3.49616 4.76997 0.833313 7.99996 0.833313C11.23 0.833313 13.8333 3.49616 13.8333 6.76218C13.8333 8.33891 13.3839 10.0319 12.5896 11.4946C11.7962 12.9554 10.637 14.2248 9.18697 14.9026C8.43367 15.2547 7.56625 15.2547 6.81295 14.9026C5.36287 14.2248 4.2037 12.9554 3.41033 11.4946C2.61598 10.0319 2.16663 8.33891 2.16663 6.76218ZM7.99996 1.83331C5.33891 1.83331 3.16663 4.03163 3.16663 6.76218C3.16663 8.16022 3.56838 9.69025 4.2891 11.0173C5.01079 12.3461 6.03064 13.4331 7.23639 13.9966C7.72133 14.2233 8.27859 14.2233 8.76353 13.9966C9.96928 13.4331 10.9891 12.3461 11.7108 11.0173C12.4315 9.69025 12.8333 8.16022 12.8333 6.76218C12.8333 4.03163 10.661 1.83331 7.99996 1.83331ZM7.99996 5.16665C7.17153 5.16665 6.49996 5.83822 6.49996 6.66665C6.49996 7.49507 7.17153 8.16665 7.99996 8.16665C8.82839 8.16665 9.49996 7.49507 9.49996 6.66665C9.49996 5.83822 8.82839 5.16665 7.99996 5.16665ZM5.49996 6.66665C5.49996 5.28593 6.61925 4.16665 7.99996 4.16665C9.38067 4.16665 10.5 5.28593 10.5 6.66665C10.5 8.04736 9.38067 9.16665 7.99996 9.16665C6.61925 9.16665 5.49996 8.04736 5.49996 6.66665Z" fill="#8E8E93"/>
</svg>
