<svg width="32" height="32" viewBox="0 0 32 32" fill="none" xmlns="http://www.w3.org/2000/svg">
<path d="M0 12.8C0 8.31958 0 6.07937 0.871948 4.36808C1.63893 2.86278 2.86278 1.63893 4.36808 0.871948C6.07937 0 8.31958 0 12.8 0H19.2C23.6804 0 25.9206 0 27.6319 0.871948C29.1372 1.63893 30.3611 2.86278 31.1281 4.36808C32 6.07937 32 8.31958 32 12.8V19.2C32 23.6804 32 25.9206 31.1281 27.6319C30.3611 29.1372 29.1372 30.3611 27.6319 31.1281C25.9206 32 23.6804 32 19.2 32H12.8C8.31958 32 6.07937 32 4.36808 31.1281C2.86278 30.3611 1.63893 29.1372 0.871948 27.6319C0 25.9206 0 23.6804 0 19.2V12.8Z" fill="#00DAE8"/>
<path d="M13.8094 13.4688H14.1531C14.402 13.4688 14.6408 13.5675 14.8171 13.7432C14.9934 13.9189 15.0929 14.1573 15.0938 14.4062V15.6594C15.0929 15.9083 14.9934 16.1467 14.8171 16.3224C14.6408 16.4981 14.4021 16.5968 14.1532 16.5969H13.8094C13.8083 16.9143 13.8102 22.6765 13.8094 22.8125H18.1907V7.25H13.8094V13.4688ZM17.5313 9.75937C17.5317 9.80053 17.5239 9.84134 17.5083 9.87944C17.4927 9.91754 17.4697 9.95215 17.4406 9.98125C17.4115 10.0103 17.3769 10.0334 17.3388 10.0489C17.3007 10.0645 17.2599 10.0723 17.2188 10.0719H14.7813C14.6984 10.0719 14.6189 10.039 14.5603 9.98035C14.5017 9.92174 14.4688 9.84226 14.4688 9.75937C14.4688 9.67649 14.5017 9.59701 14.5603 9.5384C14.6189 9.4798 14.6984 9.44687 14.7813 9.44687H17.2188C17.2598 9.44673 17.3005 9.45472 17.3385 9.47037C17.3765 9.48603 17.411 9.50904 17.4401 9.53809C17.4691 9.56713 17.4921 9.60164 17.5078 9.63962C17.5234 9.6776 17.5314 9.7183 17.5313 9.75937ZM14.7813 11.2625C14.6994 11.261 14.6213 11.2275 14.5639 11.169C14.5065 11.1106 14.4743 11.0319 14.4743 10.95C14.4743 10.8681 14.5065 10.7894 14.5639 10.731C14.6213 10.6725 14.6994 10.639 14.7813 10.6375H17.2188C17.3017 10.6375 17.3812 10.6704 17.4398 10.729C17.4984 10.7876 17.5313 10.8671 17.5313 10.95C17.5313 11.0329 17.4984 11.1124 17.4398 11.171C17.3812 11.2296 17.3017 11.2625 17.2188 11.2625H14.7813ZM14.7813 18.8031H17.2188C17.3007 18.8046 17.3787 18.8382 17.4361 18.8966C17.4936 18.9551 17.5257 19.0337 17.5257 19.1156C17.5257 19.1976 17.4935 19.2762 17.4361 19.3347C17.3787 19.3931 17.3007 19.4267 17.2187 19.4281H14.7813C14.6994 19.4267 14.6213 19.3931 14.5639 19.3346C14.5065 19.2762 14.4743 19.1976 14.4743 19.1156C14.4743 19.0337 14.5065 18.9551 14.5639 18.8966C14.6213 18.8382 14.6994 18.8046 14.7813 18.8031ZM14.7813 19.9906H17.2188C17.3016 19.9906 17.3811 20.0235 17.4397 20.0822C17.4983 20.1408 17.5313 20.2202 17.5313 20.3031C17.5313 20.386 17.4983 20.4655 17.4397 20.5241C17.3811 20.5827 17.3016 20.6156 17.2188 20.6156H14.7813C14.6994 20.6141 14.6214 20.5805 14.564 20.5221C14.5066 20.4636 14.4745 20.385 14.4745 20.3031C14.4745 20.2212 14.5066 20.1426 14.564 20.0842C14.6214 20.0257 14.6994 19.9921 14.7813 19.9906ZM8.21877 8.8125V13.4688C8.46587 13.4722 9.0024 13.4662 9.24377 13.4688C9.49218 13.4695 9.73022 13.5685 9.90588 13.7441C10.0815 13.9198 10.1805 14.1578 10.1813 14.4062V15.6594C10.1805 15.9078 10.0815 16.1458 9.90588 16.3215C9.73022 16.4971 9.49218 16.5962 9.24377 16.5969C9.00413 16.5992 8.4626 16.5952 8.21875 16.5969V21.25C8.21943 21.6642 8.38427 22.0612 8.67715 22.3541C8.97003 22.647 9.36706 22.8118 9.78125 22.8125H13.1844V7.25H9.78127C9.36691 7.25015 8.96957 7.41482 8.67658 7.70781C8.38359 8.00081 8.21892 8.39815 8.21877 8.8125ZM9.80627 9.44687H12.2469C12.329 9.44809 12.4073 9.48155 12.4649 9.54002C12.5225 9.5985 12.5548 9.67729 12.5548 9.75937C12.5548 9.84146 12.5225 9.92025 12.4649 9.97873C12.4073 10.0372 12.329 10.0707 12.2469 10.0719H9.80627C9.72419 10.0707 9.64588 10.0372 9.58827 9.97873C9.53066 9.92025 9.49837 9.84146 9.49837 9.75937C9.49837 9.67729 9.53066 9.5985 9.58827 9.54002C9.64588 9.48155 9.72419 9.44809 9.80627 9.44687ZM9.80627 11.2625C9.72419 11.2613 9.64588 11.2278 9.58827 11.1694C9.53066 11.1109 9.49837 11.0321 9.49837 10.95C9.49837 10.8679 9.53066 10.7891 9.58827 10.7306C9.64588 10.6722 9.72419 10.6387 9.80627 10.6375H12.2469C12.3298 10.6375 12.4093 10.6704 12.4679 10.729C12.5265 10.7876 12.5594 10.8671 12.5594 10.95C12.5594 11.0329 12.5265 11.1124 12.4679 11.171C12.4093 11.2296 12.3298 11.2625 12.2469 11.2625H9.80627ZM9.80627 18.8031H12.2469C12.329 18.8043 12.4073 18.8378 12.4649 18.8963C12.5225 18.9547 12.5548 19.0335 12.5548 19.1156C12.5548 19.1977 12.5225 19.2765 12.4649 19.335C12.4073 19.3934 12.329 19.4269 12.2469 19.4281H9.80627C9.72419 19.4269 9.64588 19.3934 9.58827 19.335C9.53066 19.2765 9.49837 19.1977 9.49837 19.1156C9.49837 19.0335 9.53066 18.9547 9.58827 18.8963C9.64588 18.8378 9.72419 18.8043 9.80627 18.8031ZM9.80627 19.9906H12.2469C12.329 19.9918 12.4073 20.0253 12.4649 20.0838C12.5225 20.1422 12.5548 20.221 12.5548 20.3031C12.5548 20.3852 12.5225 20.464 12.4649 20.5225C12.4073 20.5809 12.329 20.6144 12.2469 20.6156H9.80627C9.72419 20.6144 9.64588 20.5809 9.58827 20.5225C9.53066 20.464 9.49837 20.3852 9.49837 20.3031C9.49837 20.221 9.53066 20.1422 9.58827 20.0838C9.64588 20.0253 9.72419 19.9918 9.80627 19.9906ZM22.2188 7.25H18.8156V13.4688H19.0656C19.3142 13.469 19.5526 13.5678 19.7283 13.7436C19.9041 13.9193 20.0029 14.1577 20.0031 14.4062V15.6594C20.0029 15.908 19.9041 16.1463 19.7283 16.3221C19.5526 16.4978 19.3142 16.5967 19.0656 16.5969H18.8156V22.8125H22.2188C22.633 22.8118 23.03 22.647 23.3229 22.3541C23.6157 22.0612 23.7806 21.6642 23.7813 21.25V8.8125C23.7811 8.39815 23.6164 8.00081 23.3235 7.70781C23.0305 7.41482 22.6331 7.25015 22.2188 7.25ZM22.5063 9.75937C22.5064 9.80045 22.4984 9.84115 22.4828 9.87913C22.4671 9.91711 22.4441 9.95162 22.4151 9.98066C22.386 10.0097 22.3515 10.0327 22.3135 10.0484C22.2755 10.064 22.2348 10.072 22.1938 10.0719H19.7531C19.6703 10.0719 19.5908 10.039 19.5322 9.98035C19.4736 9.92174 19.4406 9.84226 19.4406 9.75937C19.4406 9.67649 19.4736 9.59701 19.5322 9.5384C19.5908 9.4798 19.6703 9.44687 19.7531 9.44687H22.1938C22.2766 9.44712 22.3559 9.48013 22.4145 9.53868C22.473 9.59723 22.506 9.67657 22.5063 9.75937ZM19.7531 11.2625C19.6711 11.2613 19.5928 11.2278 19.5352 11.1693C19.4775 11.1109 19.4452 11.0321 19.4452 10.95C19.4453 10.8679 19.4775 10.7891 19.5352 10.7306C19.5928 10.6722 19.6711 10.6387 19.7532 10.6375H22.1938C22.2767 10.6375 22.3561 10.6704 22.4148 10.729C22.4734 10.7876 22.5063 10.8671 22.5063 10.95C22.5063 11.0329 22.4734 11.1124 22.4148 11.171C22.3561 11.2296 22.2767 11.2625 22.1938 11.2625H19.7531ZM19.7531 18.8031H22.1938C22.2758 18.8043 22.3541 18.8378 22.4118 18.8963C22.4694 18.9548 22.5017 19.0335 22.5017 19.1156C22.5017 19.1977 22.4694 19.2765 22.4117 19.335C22.3541 19.3935 22.2758 19.4269 22.1938 19.4281H19.7531C19.6711 19.4269 19.5928 19.3934 19.5351 19.335C19.4775 19.2765 19.4452 19.1977 19.4452 19.1156C19.4452 19.0335 19.4775 18.9547 19.5351 18.8963C19.5928 18.8378 19.6711 18.8043 19.7531 18.8031ZM19.7531 19.9906H22.1938C22.2758 19.9918 22.3541 20.0253 22.4118 20.0838C22.4694 20.1423 22.5017 20.221 22.5017 20.3031C22.5017 20.3852 22.4694 20.464 22.4117 20.5225C22.3541 20.581 22.2758 20.6144 22.1938 20.6156H19.7531C19.6711 20.6144 19.5928 20.5809 19.5351 20.5225C19.4775 20.464 19.4452 20.3852 19.4452 20.3031C19.4452 20.221 19.4775 20.1422 19.5351 20.0838C19.5928 20.0253 19.6711 19.9918 19.7531 19.9906ZM8.21877 15.9719V14.0938H9.24377C9.32657 14.094 9.40591 14.127 9.46446 14.1856C9.52301 14.2441 9.55602 14.3234 9.55627 14.4062V15.6594C9.55602 15.7422 9.52301 15.8215 9.46446 15.8801C9.40591 15.9386 9.32657 15.9716 9.24377 15.9719C9.00419 15.9734 8.46337 15.9698 8.21877 15.9719ZM14.1531 15.9719H13.8094V14.0938H14.1531C14.1945 14.093 14.2356 14.1006 14.2741 14.116C14.3125 14.1314 14.3474 14.1543 14.3768 14.1835C14.4062 14.2126 14.4295 14.2473 14.4453 14.2856C14.4611 14.3238 14.4691 14.3649 14.4688 14.4062V15.6594C14.4683 15.7427 14.4349 15.8224 14.3757 15.881C14.3165 15.9396 14.2364 15.9723 14.1531 15.9719ZM19.0656 15.9719H18.8156V14.0938H19.0656C19.1068 14.0933 19.1476 14.1012 19.1857 14.1167C19.2238 14.1323 19.2584 14.1553 19.2875 14.1844C19.3166 14.2135 19.3396 14.2481 19.3552 14.2862C19.3707 14.3243 19.3785 14.3651 19.3781 14.4062V15.6594C19.3779 15.7422 19.3449 15.8215 19.2863 15.8801C19.2278 15.9386 19.1484 15.9716 19.0656 15.9719ZM12.3938 23.4375V23.8125C12.3929 24.0614 12.2934 24.2998 12.1171 24.4755C11.9408 24.6512 11.702 24.7499 11.4531 24.75H10.5344C10.2858 24.7498 10.0475 24.651 9.8717 24.4752C9.69592 24.2994 9.59709 24.0611 9.59689 23.8125V23.4281C9.72111 23.4432 12.3938 23.4375 12.3938 23.4375ZM22.4031 23.4281V23.8125C22.4029 24.0611 22.3041 24.2994 22.1283 24.4752C21.9526 24.651 21.7142 24.7498 21.4656 24.75H20.5469C20.298 24.7499 20.0593 24.6512 19.883 24.4755C19.7067 24.2998 19.6072 24.0614 19.6063 23.8125V23.4375C19.6063 23.4375 22.2821 23.4427 22.4031 23.4281Z" fill="white"/>
</svg>
