<svg width="25" height="24" viewBox="0 0 25 24" fill="none" xmlns="http://www.w3.org/2000/svg">
<path fill-rule="evenodd" clip-rule="evenodd" d="M4 9.56757V14.4324C4 16.7258 4 17.8724 4.72162 18.5849C5.37718 19.2321 6.39572 19.2913 8.31827 19.2968C8.31303 19.262 8.30803 19.2271 8.30324 19.192C8.18837 18.3484 8.18839 17.2759 8.18841 15.9453L8.18841 15.8919C8.18841 15.4889 8.51933 15.1622 8.92754 15.1622C9.33575 15.1622 9.66667 15.4889 9.66667 15.8919C9.66667 17.2885 9.66824 18.2626 9.76832 18.9975C9.86554 19.7114 10.0434 20.0895 10.3161 20.3588C10.5889 20.6281 10.9718 20.8037 11.695 20.8996C12.4394 20.9985 13.426 21 14.8406 21H15.8261C17.2407 21 18.2273 20.9985 18.9717 20.8996C19.6948 20.8037 20.0778 20.6281 20.3505 20.3588C20.6233 20.0895 20.8011 19.7114 20.8983 18.9975C20.9984 18.2626 21 17.2885 21 15.8919V8.10811C21 6.71149 20.9984 5.73743 20.8983 5.0025C20.8011 4.28855 20.6233 3.91048 20.3505 3.6412C20.0778 3.37192 19.6948 3.19635 18.9717 3.10036C18.2273 3.00155 17.2407 3 15.8261 3H14.8406C13.426 3 12.4394 3.00155 11.695 3.10036C10.9718 3.19635 10.5889 3.37192 10.3161 3.6412C10.0434 3.91048 9.86554 4.28855 9.76832 5.0025C9.66824 5.73743 9.66667 6.71149 9.66667 8.10811C9.66667 8.51113 9.33575 8.83784 8.92754 8.83784C8.51933 8.83784 8.18841 8.51113 8.18841 8.10811L8.18841 8.05472C8.18839 6.72409 8.18837 5.65156 8.30324 4.80803C8.30803 4.77288 8.31303 4.73795 8.31827 4.70325C6.39572 4.70867 5.37718 4.76792 4.72162 5.41515C4 6.12759 4 7.27425 4 9.56757ZM13.885 14.9484L16.3487 12.516C16.6374 12.231 16.6374 11.769 16.3487 11.484L13.885 9.05157C13.5963 8.76659 13.1283 8.76659 12.8397 9.05157C12.551 9.33655 12.551 9.79859 12.8397 10.0836L14.0417 11.2703H6.95652C6.54831 11.2703 6.21739 11.597 6.21739 12C6.21739 12.403 6.54831 12.7297 6.95652 12.7297H14.0417L12.8397 13.9164C12.551 14.2014 12.551 14.6635 12.8397 14.9484C13.1283 15.2334 13.5963 15.2334 13.885 14.9484Z" fill="#F65466"/>
</svg>
