<svg width="32" height="32" viewBox="0 0 32 32" fill="none" xmlns="http://www.w3.org/2000/svg">
<rect width="32" height="32" rx="8" fill="#FF3B30"/>
<path fill-rule="evenodd" clip-rule="evenodd" d="M7.5 13.5676V18.4324C7.5 20.7258 7.5 21.8724 8.22161 22.5849C8.87719 23.2321 9.89578 23.2913 11.8185 23.2968C11.7169 22.6224 11.6956 21.8168 11.6903 20.8689C11.688 20.4659 12.0171 20.1374 12.4253 20.1351C12.8335 20.1329 13.1662 20.4578 13.1685 20.8608C13.1745 21.9247 13.2025 22.6789 13.309 23.2512C13.4116 23.8027 13.5763 24.1219 13.8163 24.3588C14.089 24.6281 14.4719 24.8037 15.1951 24.8996C15.9395 24.9985 16.9261 25 18.3407 25H19.3262C20.7407 25 21.7273 24.9985 22.4717 24.8996C23.1949 24.8037 23.5778 24.6281 23.8505 24.3588C24.1233 24.0895 24.3011 23.7114 24.3983 22.9975C24.4984 22.2626 24.5 21.2885 24.5 19.8919V12.1081C24.5 10.7115 24.4984 9.73743 24.3983 9.0025C24.3011 8.28855 24.1233 7.91048 23.8505 7.6412C23.5778 7.37192 23.1949 7.19635 22.4717 7.10036C21.7273 7.00155 20.7407 7 19.3262 7H18.3407C16.9261 7 15.9395 7.00155 15.1951 7.10036C14.4719 7.19635 14.089 7.37192 13.8163 7.6412C13.5763 7.87807 13.4116 8.19728 13.309 8.74877C13.2025 9.32112 13.1745 10.0753 13.1685 11.1392C13.1662 11.5422 12.8335 11.8671 12.4253 11.8649C12.0171 11.8626 11.688 11.5341 11.6903 11.1311C11.6956 10.1832 11.7169 9.37758 11.8185 8.70325C9.89578 8.70867 8.87719 8.76789 8.22161 9.41515C7.5 10.1276 7.5 11.2742 7.5 13.5676ZM9.93385 16.516C9.6452 16.231 9.6452 15.769 9.93385 15.484L11.9048 13.5381C12.1935 13.2531 12.6615 13.2531 12.9501 13.5381C13.2388 13.823 13.2388 14.2851 12.9501 14.5701L12.2409 15.2703L19.3259 15.2703C19.7341 15.2703 20.0651 15.597 20.0651 16C20.0651 16.403 19.7341 16.7297 19.3259 16.7297L12.2409 16.7297L12.9501 17.4299C13.2388 17.7149 13.2388 18.177 12.9501 18.4619C12.6615 18.7469 12.1935 18.7469 11.9048 18.4619L9.93385 16.516Z" fill="white"/>
</svg>
