<svg width="99" height="19" viewBox="0 0 99 19" fill="none" xmlns="http://www.w3.org/2000/svg">
<g clip-path="url(#clip0_1084_8015)">
<path d="M32.3878 5.47092V8.6256H39.3687V10.3529H32.3878V15.0349H30.3628V3.74365H40.4585V5.47092H32.3878Z" fill="black"/>
<path d="M42.634 3.74365H44.6591V15.0349H42.634V3.74365Z" fill="black"/>
<path d="M57.6695 5.47092H53.266V15.0349H51.2396V5.47092H46.8361V3.74365H57.6681V5.47092H57.6695Z" fill="black"/>
<path d="M70.3774 7.31415C70.3774 9.6385 68.9369 10.9006 66.3259 10.9006H61.8727V15.0349H59.8463V3.74365H66.3259C68.9382 3.74365 70.3774 5.00579 70.3774 7.31415ZM68.3013 7.31415C68.3013 6.06934 67.5649 5.47092 66.0411 5.47092H61.8727V9.17337H66.0411C67.5649 9.17337 68.3013 8.57628 68.3013 7.31415Z" fill="black"/>
<path d="M72.1202 9.38948C72.1202 5.88563 74.6143 3.54395 78.3486 3.54395C82.0829 3.54395 84.5931 5.88563 84.5931 9.38948C84.5931 12.8933 82.099 15.235 78.3486 15.235C74.5981 15.235 72.1202 12.8933 72.1202 9.38948ZM82.5169 9.38948C82.5169 6.96517 80.8426 5.33786 78.3486 5.33786C75.8546 5.33786 74.1802 6.96517 74.1802 9.38948C74.1802 11.8138 75.8707 13.4411 78.3486 13.4411C80.8265 13.4411 82.5169 11.8138 82.5169 9.38948Z" fill="black"/>
<path d="M98.1047 9.38927C98.1047 12.8598 95.8445 15.0349 92.2284 15.0349H87.0388V3.74365H92.2284C95.8445 3.74365 98.1047 5.91874 98.1047 9.38927ZM96.0447 9.38927C96.0447 6.93164 94.5384 5.47092 92.0094 5.47092H89.0625V13.309H92.0094C94.537 13.309 96.0447 11.8482 96.0447 9.39061V9.38927Z" fill="black"/>
<path d="M23.8589 7.40779C23.7554 5.54324 22.4869 4.19448 20.693 3.86395C20.0708 3.74933 19.4352 3.82397 18.8064 3.8213C16.8458 3.8133 14.8852 3.81197 12.9247 3.82397H12.4154V0.224149C12.3563 0.0588851 12.2098 0.00557423 11.9787 0.00557423C9.52766 0.0109053 7.07663 -0.0157501 4.62694 0.0175692C2.58442 0.0442246 0.907402 1.77016 0.904714 3.77865C0.902027 5.53791 0.904714 7.29717 0.904714 9.05643H0.902027C0.902027 10.9396 0.910089 12.8242 0.895308 14.7074C0.89262 15.0699 1.01222 15.1938 1.37906 15.1872C2.35867 15.1685 3.33962 15.1685 4.31922 15.1872C4.69144 15.1938 4.81373 15.0512 4.8097 14.7007C4.7976 13.7864 4.80298 12.8722 4.80432 11.9579C4.80432 11.4314 4.8097 11.4248 5.34586 11.4248C7.48379 11.4234 9.62172 11.4234 11.761 11.4248H12.3402V18.719C12.3818 18.9256 12.5095 19.0056 12.797 19.0002C13.7632 18.9829 14.7294 18.9962 15.6955 18.9922C16.182 18.9896 16.2384 18.9269 16.2398 18.4285C16.2438 17.4862 16.2572 16.5439 16.2424 15.603C16.2371 15.2725 16.3567 15.1725 16.6819 15.1765C17.8294 15.1912 18.9784 15.1925 20.1273 15.1765C21.9884 15.1512 23.5928 13.7491 23.8105 11.9312C23.9906 10.4279 23.9409 8.91116 23.8576 7.40912L23.8589 7.40779ZM12.3402 7.56639H11.761C9.58947 7.55706 7.4166 7.55706 5.24508 7.56639C4.91988 7.56639 4.79491 7.45311 4.79895 7.13057C4.81104 6.18964 4.81238 5.24737 4.79895 4.3051C4.79491 3.9879 4.89973 3.86395 5.23433 3.86928C6.34024 3.88527 7.44616 3.87594 8.55208 3.87594C9.658 3.87594 10.6914 3.88661 11.7596 3.87061H12.3388V7.56772L12.3402 7.56639ZM19.5253 11.3195C18.4207 11.3048 17.3148 11.3141 16.2089 11.3141C15.1365 11.3155 14.0642 11.3062 12.9932 11.3208H12.4141V7.61037H12.9932C15.1204 7.62103 17.2476 7.61437 19.3748 7.6197C19.9486 7.6197 19.9821 7.66768 19.9821 8.24344C19.9821 9.11507 19.9701 9.98671 19.9875 10.8583C19.9942 11.2022 19.872 11.3221 19.5253 11.3181V11.3195Z" fill="#F17000"/>
</g>
<defs>
<clipPath id="clip0_1084_8015">
<rect width="97.2093" height="19" fill="white" transform="translate(0.895386)"/>
</clipPath>
</defs>
</svg>
