<svg width="135" height="113" viewBox="0 0 135 113" fill="none" xmlns="http://www.w3.org/2000/svg">
<path d="M117.938 100.783C102.771 116.131 33.9145 115.679 20.8255 103.701C3.4603 87.8123 -7.91339 32.2888 8.36701 16.5521C32.6825 -6.95179 119.624 -5.29695 131.663 20.7049C139.157 36.8356 133.74 84.7759 117.941 100.786L117.938 100.783Z" fill="#00DAE8"/>
<path d="M67.0682 77.8971C67.0723 74.498 67.7724 71.1357 69.1254 68.0174C70.4784 64.8991 72.4556 62.0909 74.9353 59.7659C75.4245 59.2921 75.9402 58.8463 76.4798 58.4307C75.1316 57.9399 73.7565 57.5263 72.3612 57.1919C94.3659 46.8164 87.4509 13.8408 62.7891 13.4806C38.0981 13.8268 31.2217 46.8687 53.2486 57.2079C46.5404 58.8112 40.3461 62.0838 35.2412 66.7218C30.1363 71.3598 26.2864 77.2127 24.0489 83.7369C21.4035 90.7893 27.5217 98.8303 34.9725 98.6185H78.2012C74.7873 96.3437 71.9859 93.2634 70.0443 89.6496C68.1026 86.0358 67.0806 81.9995 67.0682 77.8971Z" fill="white"/>
<path d="M91.9081 56.2585C87.6307 56.2601 83.4498 57.5299 79.8939 59.9073C76.3381 62.2847 73.5669 65.663 71.9307 69.6151C70.2946 73.5672 69.8669 77.9156 70.7018 82.1108C71.5367 86.3059 73.5966 90.1593 76.6211 93.1839C79.6457 96.2085 83.4991 98.2684 87.6943 99.1033C91.8894 99.9381 96.2379 99.5105 100.19 97.8743C104.142 96.2382 107.52 93.467 109.898 89.9112C112.275 86.3553 113.545 82.1745 113.547 77.8971C113.537 72.161 111.255 66.6624 107.199 62.6063C103.143 58.5503 97.6442 56.2676 91.9081 56.2585ZM103.974 79.5058H84.4111L88.8996 83.1256C89.1527 83.3366 89.335 83.6201 89.4219 83.9379C89.5088 84.2556 89.4962 84.5925 89.3857 84.9028C89.2752 85.2132 89.0722 85.4823 88.804 85.6736C88.5358 85.865 88.2154 85.9696 87.886 85.9731C87.5222 85.9762 87.1691 85.8509 86.8886 85.6193L78.8446 79.1519C78.6559 79.0017 78.5035 78.8108 78.3988 78.5936C78.2941 78.3763 78.2397 78.1382 78.2397 77.897C78.2397 77.6559 78.2941 77.4178 78.3988 77.2005C78.5035 76.9833 78.6559 76.7924 78.8446 76.6422L86.8887 70.1587C87.2223 69.9013 87.6437 69.7851 88.0621 69.8352C88.4806 69.8852 88.8626 70.0976 89.1262 70.4264C89.3897 70.7553 89.5136 71.1745 89.4712 71.5938C89.4288 72.013 89.2236 72.399 88.8996 72.6685L84.4111 76.2883H103.974C104.396 76.296 104.797 76.469 105.093 76.7698C105.388 77.0707 105.553 77.4755 105.553 77.8971C105.553 78.3187 105.388 78.7234 105.093 79.0243C104.797 79.3252 104.396 79.498 103.974 79.5058Z" fill="white"/>
</svg>
