<svg width="41" height="40" viewBox="0 0 41 40" fill="none" xmlns="http://www.w3.org/2000/svg">
<path fill-rule="evenodd" clip-rule="evenodd" d="M30.2684 5.27175C30.3561 5.30105 30.445 5.33073 30.5351 5.36077L32.5386 6.02857C33.3104 6.28581 33.987 6.51127 34.5237 6.76096C35.1039 7.03089 35.6357 7.37857 36.0422 7.94257C36.4487 8.50657 36.6104 9.12098 36.6829 9.75679C36.7501 10.3449 36.75 11.058 36.75 11.8716V25.5593C36.75 26.7233 36.7501 27.7051 36.6598 28.4812C36.5661 29.2875 36.3559 30.0846 35.7684 30.7276C35.4199 31.109 34.9963 31.4143 34.5243 31.6243C33.7285 31.9784 32.9058 31.9257 32.1112 31.7596C31.3464 31.5998 30.4151 31.2893 29.3108 30.9212L29.2397 30.8975C27.3721 30.275 26.7321 30.081 26.1108 30.1022C25.8633 30.1107 25.6172 30.1437 25.3761 30.2006C24.7712 30.3436 24.2048 30.6991 22.5668 31.7911L20.2628 33.3271C20.1838 33.3798 20.1058 33.4318 20.0289 33.4832C18.2597 34.6641 17.0292 35.4853 15.5908 35.678C14.1524 35.8706 12.7492 35.402 10.7316 34.7283C10.6439 34.699 10.555 34.6693 10.4649 34.6392L8.46139 33.9714C7.68955 33.7142 7.01304 33.4887 6.47633 33.239C5.8961 32.9691 5.36436 32.6214 4.95785 32.0574C4.55134 31.4934 4.38965 30.879 4.31706 30.2432C4.24991 29.6551 4.24995 28.942 4.25 28.1284L4.25 14.4407C4.24996 13.2767 4.24993 12.2949 4.34017 11.5188C4.43392 10.7125 4.64408 9.91539 5.2316 9.27238C5.58011 8.89096 6.00368 8.58567 6.47574 8.37566C7.27154 8.02162 8.09422 8.07433 8.88879 8.24036C9.65361 8.40017 10.585 8.71066 11.6893 9.07881L11.7603 9.10249C13.6279 9.72503 14.2679 9.91897 14.8892 9.89776C15.1367 9.88931 15.3828 9.85635 15.6239 9.79937C16.2289 9.65636 16.7952 9.30087 18.4332 8.20886L20.7372 6.67289C20.8162 6.6202 20.8942 6.56817 20.9711 6.51682C22.7403 5.33594 23.9708 4.51466 25.4092 4.32203C26.8477 4.1294 28.2508 4.59798 30.2684 5.27175ZM26.75 6.84239V27.6321C27.6428 27.7289 28.583 28.0427 29.8218 28.4562C29.8903 28.4791 29.9598 28.5023 30.0303 28.5258C31.2247 28.9239 32.0172 29.186 32.6226 29.3125C33.2145 29.4362 33.4175 29.3805 33.5081 29.3402C33.6654 29.2702 33.8066 29.1684 33.9228 29.0413C33.9897 28.9681 34.1067 28.7931 34.1766 28.1924C34.248 27.5781 34.25 26.7434 34.25 25.4844V11.9371C34.25 11.0387 34.2481 10.4698 34.1991 10.0404C34.1537 9.64284 34.0794 9.49506 34.0141 9.40435C33.9487 9.31363 33.832 9.19645 33.4692 9.02769C33.0773 8.84536 32.5382 8.66368 31.6859 8.37957L29.7446 7.73248C28.2673 7.24006 27.3909 6.95987 26.75 6.84239ZM24.25 27.9327V7.38895C23.7313 7.68866 23.0661 8.1249 22.124 8.75301L19.82 10.289C19.7582 10.3302 19.6973 10.3708 19.6372 10.411C18.49 11.1764 17.6349 11.747 16.75 12.0673V32.6111C17.2687 32.3113 17.9339 31.8751 18.876 31.247L21.18 29.711C21.2418 29.6698 21.3027 29.6292 21.3628 29.5891C22.51 28.8236 23.3651 28.253 24.25 27.9327ZM14.25 33.1576V12.3679C13.3572 12.2711 12.417 11.9573 11.1782 11.5438C11.1097 11.5209 11.0402 11.4977 10.9697 11.4742C9.77534 11.0761 8.98282 10.814 8.37744 10.6875C7.78549 10.5638 7.5825 10.6195 7.49192 10.6598C7.33456 10.7298 7.19337 10.8316 7.0772 10.9587C7.01033 11.0319 6.89329 11.2069 6.82344 11.8076C6.75201 12.4219 6.75001 13.2566 6.75001 14.5156V28.0629C6.75001 28.9613 6.75189 29.5302 6.80092 29.9596C6.84631 30.3572 6.92057 30.5049 6.98595 30.5957C7.05134 30.6864 7.16805 30.8036 7.53082 30.9723C7.92274 31.1546 8.46181 31.3363 9.31415 31.6204L11.2554 32.2675C12.7327 32.7599 13.6091 33.0401 14.25 33.1576Z" fill="#8E8E93"/>
</svg>
