<svg width="211" height="176" viewBox="0 0 211 176" fill="none" xmlns="http://www.w3.org/2000/svg">
<path d="M183.874 157.655C160.192 181.664 52.6753 180.957 32.2375 162.22C5.12238 137.365 -12.6372 50.5094 12.784 25.8925C50.7517 -10.8747 186.508 -8.28603 205.305 32.3888C217.006 57.622 208.549 132.615 183.879 157.659L183.874 157.655Z" fill="#00DAE8"/>
<g clip-path="url(#clip0_3663_8733)">
<path d="M162 79.5H49C44.8577 79.5 41.5 82.8577 41.5 87C41.5 91.1423 44.8577 94.5 49 94.5H162C166.142 94.5 169.5 91.1423 169.5 87C169.5 82.8577 166.142 79.5 162 79.5Z" fill="white"/>
<path d="M105.5 71.5C118.596 71.5 129.25 60.8457 129.25 47.75C129.25 34.6543 118.596 24 105.5 24C92.4043 24 81.75 34.6543 81.75 47.75C81.75 60.8457 92.4043 71.5 105.5 71.5ZM98 44H113C115.071 44 116.75 45.679 116.75 47.75C116.75 49.821 115.071 51.5 113 51.5H98C95.929 51.5 94.25 49.821 94.25 47.75C94.25 45.679 95.929 44 98 44Z" fill="white"/>
<path d="M59.5423 139.881C61.323 147.003 67.7228 152 75.0645 152H135.936C143.278 152 149.677 147.003 151.458 139.881L160.928 102H50.072L59.5423 139.881ZM129.729 136.443L132.729 116.443C133.036 114.395 134.944 112.983 136.994 113.291C139.042 113.599 140.453 115.508 140.146 117.557L137.146 137.557C136.867 139.416 135.267 140.751 133.442 140.751C133.257 140.751 133.07 140.737 132.881 140.709C130.833 140.401 129.422 138.492 129.729 136.443ZM112.067 116.813C112.171 114.744 113.927 113.155 116 113.255C118.068 113.358 119.661 115.119 119.558 117.187L118.558 137.187C118.458 139.192 116.801 140.75 114.816 140.75C114.753 140.75 114.689 140.748 114.625 140.745C112.557 140.642 110.964 138.881 111.067 136.813L112.067 116.813ZM95.0003 113.255C97.0698 113.151 98.8295 114.745 98.9328 116.813L99.9328 136.813C100.036 138.881 98.4433 140.642 96.3748 140.745C96.311 140.748 96.2475 140.75 96.1845 140.75C94.1995 140.75 92.5425 139.192 92.4423 137.187L91.4423 117.187C91.3388 115.119 92.9318 113.358 95.0003 113.255ZM74.0063 113.291C76.055 112.984 77.964 114.395 78.271 116.443L81.271 136.443C81.5783 138.492 80.1668 140.401 78.1188 140.709C77.9303 140.737 77.7428 140.751 77.5578 140.751C75.7325 140.751 74.1328 139.416 73.854 137.557L70.854 117.557C70.5468 115.508 71.9583 113.599 74.0063 113.291Z" fill="white"/>
<path d="M169.154 52.3216C170.022 50.4411 169.201 48.2131 167.321 47.3454C165.44 46.4774 163.212 47.2984 162.345 49.1786L151.811 72.0001H160.072L169.154 52.3216Z" fill="white"/>
<path d="M50.9285 72H59.1887L48.6557 49.1785C47.788 47.2982 45.56 46.477 43.6795 47.3452C41.7992 48.2132 40.9782 50.441 41.8462 52.3215L50.9285 72Z" fill="white"/>
</g>
<defs>
<clipPath id="clip0_3663_8733">
<rect width="128" height="128" fill="white" transform="translate(41.5 24)"/>
</clipPath>
</defs>
</svg>
