<svg width="210" height="177" viewBox="0 0 210 177" fill="none" xmlns="http://www.w3.org/2000/svg">
<path d="M183.374 158.155C159.692 182.164 52.1753 181.457 31.7375 162.72C4.62238 137.865 -13.1372 51.0094 12.284 26.3925C50.2517 -10.3747 186.008 -7.78603 204.805 32.8888C216.506 58.122 208.049 133.115 183.379 158.159L183.374 158.155Z" fill="#00DAE8"/>
<path fill-rule="evenodd" clip-rule="evenodd" d="M142.815 39.875C145.55 39.875 148.168 40.9612 150.108 42.8966C152.037 44.8284 153.124 47.4513 153.124 50.1875V53.625C153.124 56.3612 152.037 58.9841 150.108 60.9159C148.168 62.8513 145.55 63.9375 142.815 63.9375H98.1223C95.3874 63.9375 92.7692 62.8513 90.829 60.9159C88.9006 58.9841 87.8137 56.3612 87.8137 53.625V50.1875C87.8137 47.4513 88.9006 44.8284 90.829 42.8966C92.7692 40.9612 95.3874 39.875 98.1223 39.875H142.815ZM142.815 75.9688C145.55 75.9688 148.168 77.055 150.108 78.9903C152.037 80.9222 153.124 83.545 153.124 86.2812V89.7188C153.124 92.455 152.037 95.0778 150.108 97.0097C148.168 98.945 145.55 100.031 142.815 100.031H98.1223C95.3874 100.031 92.7692 98.945 90.829 97.0097C88.9006 95.0778 87.8137 92.455 87.8137 89.7188V86.2812C87.8137 83.545 88.9006 80.9222 90.829 78.9903C92.7692 77.055 95.3874 75.9688 98.1223 75.9688H142.815ZM142.815 112.062C145.55 112.062 148.168 113.149 150.108 115.084C152.037 117.016 153.124 119.639 153.124 122.375V125.812C153.124 128.549 152.037 131.172 150.108 133.103C148.168 135.039 145.55 136.125 142.815 136.125H98.1223C95.3874 136.125 92.7692 135.039 90.829 133.103C88.9006 131.172 87.8137 128.549 87.8137 125.812V122.375C87.8137 119.639 88.9006 117.016 90.829 115.084C92.7692 113.149 95.3874 112.062 98.1223 112.062H142.815Z" fill="white" fill-opacity="0.8"/>
<path fill-rule="evenodd" clip-rule="evenodd" d="M68.9037 39.875C75.5422 39.875 80.9418 45.265 80.9418 51.9062C80.9418 58.5475 75.5422 63.9375 68.9037 63.9375C62.2652 63.9375 56.877 58.5475 56.877 51.9062C56.877 45.265 62.2652 39.875 68.9037 39.875ZM68.9037 75.9688C75.5422 75.9688 80.9418 81.3587 80.9418 88C80.9418 94.6413 75.5422 100.031 68.9037 100.031C62.2652 100.031 56.877 94.6413 56.877 88C56.877 81.3587 62.2652 75.9688 68.9037 75.9688ZM68.9037 112.062C75.5422 112.062 80.9418 117.452 80.9418 124.094C80.9418 130.735 75.5422 136.125 68.9037 136.125C62.2652 136.125 56.877 130.735 56.877 124.094C56.877 117.452 62.2652 112.062 68.9037 112.062Z" fill="white"/>
</svg>
