<svg width="135" height="119" viewBox="0 0 135 119" fill="none" xmlns="http://www.w3.org/2000/svg">
<path d="M117.938 100.783C102.771 116.131 33.9145 115.679 20.8255 103.701C3.4603 87.8123 -7.91339 32.2888 8.36701 16.5521C32.6825 -6.95179 119.624 -5.29695 131.663 20.7049C139.157 36.8356 133.74 84.7759 117.941 100.786L117.938 100.783Z" fill="#00DAE8"/>
<path d="M111.737 74.9766C114.219 74.9766 116.229 76.9868 116.229 79.4688C116.229 81.9507 114.219 83.9609 111.737 83.9609C109.255 83.9609 107.245 81.9507 107.245 79.4688C107.245 76.9868 109.255 74.9766 111.737 74.9766Z" fill="white"/>
<path d="M25.2627 80.5918C28.3646 80.5918 30.8779 83.1052 30.8779 86.207C30.8779 89.3089 28.3646 91.8223 25.2627 91.8223C22.1608 91.8223 19.6475 89.3089 19.6475 86.207C19.6475 83.1052 22.1608 80.5918 25.2627 80.5918Z" fill="white"/>
<path d="M116.791 60.377C117.721 60.377 118.476 59.6227 118.476 58.6924C118.476 57.762 117.721 57.0078 116.791 57.0078C115.861 57.0078 115.106 57.762 115.106 58.6924C115.106 59.6227 115.861 60.377 116.791 60.377Z" fill="#00DAE8"/>
<path d="M110.053 103.053C110.983 103.053 111.737 102.299 111.737 101.368C111.737 100.438 110.983 99.6836 110.053 99.6836C109.122 99.6836 108.368 100.438 108.368 101.368C108.368 102.299 109.122 103.053 110.053 103.053Z" fill="#00DAE8"/>
<path d="M67.9385 13.209C89.0271 13.209 107.751 30.3669 106.122 51.3926C103.803 81.335 67.9621 103.031 67.9385 103.053C67.103 102.286 30.1278 77.7864 29.755 51.3926C29.4585 30.3063 46.85 13.209 67.9385 13.209ZM90.3995 49.1465C90.3995 36.7413 80.3437 26.6855 67.9385 26.6855C55.5334 26.6855 45.4776 36.7413 45.4776 49.1465C45.4776 61.5517 55.5334 71.6074 67.9385 71.6074C80.3437 71.6074 90.3995 61.5517 90.3995 49.1465Z" fill="white"/>
<path d="M103.314 16.5781C104.245 16.5781 104.999 15.8239 104.999 14.8936C104.999 13.9632 104.245 13.209 103.314 13.209C102.384 13.209 101.63 13.9632 101.63 14.8936C101.63 15.8239 102.384 16.5781 103.314 16.5781Z" fill="#00DAE8"/>
<path d="M80.6447 55.4985L74.2903 61.8527L67.9386 55.4985L61.5866 61.8527L55.2324 55.4985L61.5866 49.1466L55.2324 42.7946L61.5866 36.4404L67.9386 42.7946L74.2903 36.4404L80.6447 42.7946L74.2903 49.1466L80.6447 55.4985Z" fill="white"/>
<path d="M25.8242 23.3164C26.7546 23.3164 27.5088 22.5622 27.5088 21.6318C27.5088 20.7015 26.7546 19.9473 25.8242 19.9473C24.8939 19.9473 24.1396 20.7015 24.1396 21.6318C24.1396 22.5622 24.8939 23.3164 25.8242 23.3164Z" fill="#00DAE8"/>
<path d="M22.4551 64.8691C23.3854 64.8691 24.1396 64.1149 24.1396 63.1846C24.1396 62.2542 23.3854 61.5 22.4551 61.5C21.5247 61.5 20.7705 62.2542 20.7705 63.1846C20.7705 64.1149 21.5247 64.8691 22.4551 64.8691Z" fill="#00DAE8"/>
<path d="M67.9384 104.176C67.7224 104.176 67.5065 104.114 67.319 103.989C67.2673 103.955 62.0696 100.503 55.6056 94.9181C43.432 84.4005 28.8708 68.3144 28.6318 51.4085C28.4867 41.0774 32.4407 31.2966 39.7654 23.868C47.2573 16.2702 57.2625 12.0859 67.9384 12.0859C79.2509 12.0859 90.1227 16.8223 97.7663 25.0809C104.621 32.4877 107.987 41.8626 107.242 51.4793C105.81 69.9675 92.0552 85.309 80.7688 94.9232C74.0523 100.646 68.7428 103.879 68.5202 104.013C68.3409 104.122 68.1397 104.176 67.9384 104.176ZM57.0736 93.2187C62.1684 97.6199 66.4414 100.66 67.9627 101.711C69.5421 100.7 74.0274 97.7162 79.3117 93.2137C90.2743 83.8756 103.63 69.0251 105.002 51.3059C105.698 42.3204 102.543 33.5487 96.1175 26.6067C88.8979 18.8058 78.6271 14.332 67.9384 14.332C57.8685 14.332 48.4311 18.2786 41.3649 25.445C34.4656 32.4423 30.7411 41.6515 30.8779 51.3769C31.1047 67.449 45.2486 83.0016 57.0736 93.2187Z" fill="white"/>
<path d="M67.9385 72.7305C54.9343 72.7305 44.3545 62.1507 44.3545 49.1465C44.3545 36.1423 54.9343 25.5625 67.9385 25.5625C80.9425 25.5625 91.5225 36.1423 91.5225 49.1465C91.5225 62.1507 80.9425 72.7305 67.9385 72.7305ZM67.9385 27.8086C56.1728 27.8086 46.6006 37.3808 46.6006 49.1465C46.6006 60.9122 56.1728 70.4844 67.9385 70.4844C79.7042 70.4844 89.2764 60.9122 89.2764 49.1465C89.2764 37.3808 79.7042 27.8086 67.9385 27.8086Z" fill="#00DAE8"/>
<path d="M74.2903 62.9758C73.9925 62.9758 73.7068 62.8574 73.4963 62.6467L67.9386 57.087L62.3809 62.6467C62.1704 62.8574 61.8847 62.9758 61.5869 62.9758C61.289 62.9758 61.0033 62.8576 60.7926 62.6467L54.4384 56.2925C54.2278 56.0818 54.1096 55.7961 54.1096 55.4983C54.1096 55.2005 54.228 54.9148 54.4387 54.7041L59.9982 49.1466L54.4387 43.5888C54.228 43.3782 54.1096 43.0927 54.1096 42.7946C54.1096 42.4966 54.228 42.2111 54.4384 42.0004L60.7926 35.6462C61.0033 35.4355 61.2888 35.3174 61.5869 35.3174C61.8847 35.3174 62.1704 35.4358 62.3809 35.6464L67.9386 41.206L73.4963 35.6464C73.707 35.4358 73.9925 35.3174 74.2903 35.3174C74.5882 35.3174 74.8739 35.4358 75.0845 35.6462L81.4387 42.0004C81.6494 42.2111 81.7678 42.4968 81.7678 42.7946C81.7678 43.0925 81.6494 43.3782 81.4385 43.5888L75.879 49.1466L81.4387 54.7043C81.6494 54.915 81.768 55.2005 81.768 55.4985C81.768 55.7966 81.6496 56.0821 81.439 56.2928L75.0848 62.647C74.8739 62.8576 74.5882 62.9758 74.2903 62.9758ZM67.9386 54.3755C68.2367 54.3755 68.5224 54.4939 68.7328 54.7045L74.2905 60.2643L79.0563 55.4985L73.4966 49.9408C73.2859 49.7301 73.1673 49.4444 73.1673 49.1466C73.1673 48.8488 73.2856 48.5628 73.4966 48.3524L79.0563 42.7946L74.2905 38.0289L68.7328 43.5886C68.5221 43.7993 68.2364 43.9177 67.9386 43.9177C67.6408 43.9177 67.3548 43.7993 67.1444 43.5886L61.5866 38.0289L56.8209 42.7946L62.3806 48.3524C62.5913 48.563 62.7097 48.8488 62.7097 49.1466C62.7097 49.4444 62.5913 49.7303 62.3806 49.9408L56.8209 55.4985L61.5866 60.2643L67.1444 54.7045C67.3548 54.4939 67.6405 54.3755 67.9386 54.3755Z" fill="white"/>
</svg>
