<svg width="211" height="176" viewBox="0 0 211 176" fill="none" xmlns="http://www.w3.org/2000/svg">
<path d="M184.221 157.655C160.539 181.664 53.0222 180.957 32.5844 162.22C5.46931 137.365 -12.2902 50.5094 13.1309 25.8925C51.0986 -10.8747 186.855 -8.28603 205.652 32.3888C217.353 57.622 208.896 132.615 184.225 157.659L184.221 157.655Z" fill="#00DAE8"/>
<g clip-path="url(#clip0_1044_10190)">
<path d="M106 152C110.139 151.996 114.221 151.03 117.923 149.179C121.625 147.328 124.847 144.642 127.333 141.333H84.6668C87.1536 144.642 90.3751 147.328 94.0772 149.179C97.7794 151.03 101.861 151.996 106 152ZM154 88.2668V72.0001C153.994 69.1042 153.745 66.214 153.253 63.3601L85.9468 130.667H148.027C151.318 130.662 154.534 129.683 157.27 127.853C160.006 126.023 162.138 123.424 163.399 120.384C164.66 117.343 164.992 113.998 164.354 110.769C163.716 107.54 162.136 104.572 159.813 102.24C157.969 100.411 156.506 98.2339 155.508 95.8354C154.51 93.437 153.998 90.8645 154 88.2668ZM168.437 25.5627C167.437 24.5629 166.081 24.0012 164.667 24.0012C163.253 24.0012 161.896 24.5629 160.896 25.5627L143.781 42.6667C139.388 36.8112 133.68 32.0708 127.117 28.8282C120.554 25.5856 113.32 23.9317 106 24.0001C93.2758 24.0198 81.0783 29.0833 72.0808 38.0808C63.0833 47.0782 58.0199 59.2758 58.0001 72.0001V88.2668C58.0027 90.8645 57.4903 93.437 56.4924 95.8354C55.4946 98.2339 54.0312 100.411 52.1868 102.24C49.0839 105.379 47.3406 109.613 47.3334 114.027C47.3256 116.811 48.0424 119.55 49.4134 121.973C51.1589 125.181 53.9123 127.725 57.2481 129.211L43.5628 142.896C43.0534 143.388 42.6471 143.977 42.3676 144.627C42.0881 145.278 41.9409 145.978 41.9348 146.686C41.9286 147.394 42.0636 148.096 42.3317 148.752C42.5999 149.407 42.9959 150.003 43.4967 150.504C43.9974 151.004 44.5929 151.4 45.2484 151.668C45.9038 151.937 46.6061 152.072 47.3142 152.065C48.0224 152.059 48.7222 151.912 49.3729 151.633C50.0236 151.353 50.6121 150.947 51.1041 150.437L168.437 33.1041C169.437 32.1039 169.999 30.7476 169.999 29.3334C169.999 27.9192 169.437 26.5629 168.437 25.5627Z" fill="white"/>
</g>
<defs>
<clipPath id="clip0_1044_10190">
<rect width="128" height="128" fill="white" transform="translate(42 24)"/>
</clipPath>
</defs>
</svg>
