<svg width="24" height="25" viewBox="0 0 24 25" fill="none" xmlns="http://www.w3.org/2000/svg">
<path fill-rule="evenodd" clip-rule="evenodd" d="M5.25 8.20031C5.25 4.60215 8.30876 1.75 12 1.75C15.608 1.75 18.6116 4.47488 18.7454 7.95788L19.2231 8.11714C19.6863 8.27148 20.0922 8.40676 20.4142 8.55657C20.7623 8.71853 21.0814 8.92714 21.3253 9.26554C21.5692 9.60394 21.6662 9.97259 21.7098 10.3541C21.7501 10.707 21.75 11.1348 21.75 11.623V17.3712C21.75 17.9806 21.7501 18.5005 21.7028 18.9176C21.653 19.3563 21.5418 19.7875 21.2404 20.1553C21.0674 20.3665 20.8573 20.5445 20.6205 20.6805C20.2081 20.9173 19.7645 20.9561 19.3236 20.933C18.9044 20.9111 18.3915 20.8256 17.7904 20.7254L17.7488 20.7185C16.456 20.503 15.9351 20.4216 15.4274 20.4641C15.2417 20.4796 15.0571 20.5074 14.875 20.5471C14.3774 20.6558 13.8988 20.8891 12.716 21.4805C12.6749 21.5011 12.6342 21.5214 12.594 21.5415C11.2114 22.2331 10.3595 22.6592 9.44031 22.7923C9.16384 22.8323 8.88482 22.8522 8.60546 22.8516C7.67668 22.8499 6.77995 22.5508 5.32536 22.0657C5.28328 22.0517 5.24074 22.0375 5.19772 22.0231L4.81415 21.8953L4.77684 21.8828C4.31373 21.7285 3.90783 21.5932 3.5858 21.4434C3.23766 21.2815 2.91861 21.0729 2.67471 20.7345C2.4308 20.3961 2.33379 20.0274 2.29024 19.6459C2.24995 19.293 2.24997 18.8652 2.25 18.377L2.25 13.3572C2.24997 12.5711 2.24994 11.9085 2.31729 11.3895C2.38759 10.8478 2.54652 10.3181 2.98262 9.9198C3.11082 9.80271 3.25213 9.70085 3.40375 9.61626C3.91953 9.3285 4.47226 9.34521 5.00841 9.44983C5.11717 9.47105 5.23109 9.49718 5.35019 9.52754C5.28411 9.0817 5.25 8.63723 5.25 8.20031ZM5.74869 11.2093C5.32072 11.0713 4.99224 10.975 4.72113 10.9221C4.32599 10.845 4.19646 10.8917 4.13459 10.9262C4.08405 10.9544 4.03694 10.9883 3.99421 11.0274C3.9419 11.0751 3.85663 11.1833 3.80482 11.5825C3.75151 11.9933 3.75 12.5575 3.75 13.408V18.3377C3.75 18.8768 3.75114 19.2181 3.78055 19.4758C3.80779 19.7143 3.85234 19.803 3.89157 19.8574C3.9308 19.9118 4.00083 19.9821 4.21849 20.0834C4.45364 20.1928 4.77709 20.3018 5.28849 20.4723L5.67205 20.6001C7.29563 21.1413 7.95089 21.3504 8.6083 21.3516C8.81478 21.352 9.02101 21.3374 9.22537 21.3078C9.87582 21.2136 10.5009 20.911 12.0452 20.1389C12.0765 20.1232 12.1074 20.1078 12.138 20.0925C13.1987 19.562 13.852 19.2352 14.555 19.0817C14.8014 19.0279 15.051 18.9903 15.3023 18.9693C16.0193 18.9093 16.7344 19.0286 17.8945 19.2221C17.9278 19.2276 17.9614 19.2332 17.9954 19.2389C18.6497 19.3479 19.0779 19.4181 19.4019 19.4351C19.7138 19.4514 19.821 19.4098 19.8735 19.3797C19.9524 19.3344 20.0225 19.275 20.0801 19.2046C20.1185 19.1578 20.1771 19.0589 20.2123 18.7486C20.2489 18.4262 20.25 17.9923 20.25 17.329V11.6623C20.25 11.1232 20.2489 10.7819 20.2195 10.5242C20.1922 10.2857 20.1477 10.197 20.1084 10.1426C20.0692 10.0882 19.9992 10.0179 19.7815 9.91661C19.5464 9.80722 19.2229 9.69821 18.7115 9.52774L18.6527 9.50813C18.4625 10.8095 17.9996 12.1233 17.3173 13.2959C16.4048 14.864 15.0697 16.2299 13.3971 16.9595C12.5094 17.3468 11.4906 17.3468 10.6029 16.9595C8.93027 16.2299 7.59519 14.864 6.68273 13.2959C6.29871 12.636 5.9842 11.9313 5.74869 11.2093ZM12 3.25C9.06383 3.25 6.75 5.50208 6.75 8.20031C6.75 9.61775 7.18744 11.1808 7.97922 12.5415C8.77121 13.9026 9.88753 15.0109 11.2027 15.5847C11.708 15.8051 12.292 15.8051 12.7973 15.5847C14.1125 15.0109 15.2288 13.9026 16.0208 12.5415C16.8126 11.1808 17.25 9.61775 17.25 8.20031C17.25 5.50208 14.9362 3.25 12 3.25ZM12 7.25C11.3096 7.25 10.75 7.80964 10.75 8.5C10.75 9.19036 11.3096 9.75 12 9.75C12.6904 9.75 13.25 9.19036 13.25 8.5C13.25 7.80964 12.6904 7.25 12 7.25ZM9.25 8.5C9.25 6.98122 10.4812 5.75 12 5.75C13.5188 5.75 14.75 6.98122 14.75 8.5C14.75 10.0188 13.5188 11.25 12 11.25C10.4812 11.25 9.25 10.0188 9.25 8.5Z" fill="#798586"/>
</svg>
