<svg width="24" height="24" viewBox="0 0 24 24" fill="none" xmlns="http://www.w3.org/2000/svg">
<rect x="1.36133" y="1.64893" width="21.8887" height="20.8008" rx="5.25" fill="#00DAE8" stroke="#00DAE8" stroke-width="1.5"/>
<path d="M13.988 14.1153H12.128V9.45029L10.418 10.1403C10.278 10.0703 10.148 9.96529 10.028 9.82529C9.91797 9.68529 9.86297 9.50029 9.86297 9.27029C9.86297 8.83029 10.128 8.51529 10.658 8.32529L12.563 7.57529H12.983C13.293 7.57529 13.538 7.66529 13.718 7.84529C13.898 8.02529 13.988 8.27529 13.988 8.59529V14.1153ZM12.128 12.8403H13.988V16.8003C13.908 16.8303 13.793 16.8553 13.643 16.8753C13.493 16.9053 13.328 16.9203 13.148 16.9203C12.798 16.9203 12.538 16.8553 12.368 16.7253C12.208 16.5953 12.128 16.3703 12.128 16.0503V12.8403Z" fill="white"/>
</svg>
