<svg width="32" height="32" viewBox="0 0 32 32" fill="none" xmlns="http://www.w3.org/2000/svg">
<rect width="32" height="32" rx="8" fill="#32ADE6"/>
<path fill-rule="evenodd" clip-rule="evenodd" d="M6.02783 15.25C6.41136 10.0775 10.7296 6 16.0001 6C15.1693 6 14.4295 6.36421 13.8209 6.92113C13.2154 7.47525 12.7037 8.24878 12.2898 9.16315C11.8735 10.0829 11.5501 11.1587 11.3313 12.3261C11.1558 13.2619 11.049 14.2485 11.0134 15.25H6.02783ZM6.02783 16.75H11.0134C11.049 17.7515 11.1558 18.7381 11.3313 19.6739C11.5501 20.8413 11.8735 21.9171 12.2898 22.8368C12.7037 23.7512 13.2154 24.5247 13.8209 25.0789C14.4295 25.6358 15.1693 26 16.0001 26C10.7296 26 6.41136 21.9226 6.02783 16.75Z" fill="white"/>
<path d="M16.0001 7.39535C15.7251 7.39535 15.3699 7.51236 14.9567 7.89042C14.5406 8.27126 14.1239 8.86815 13.7558 9.68137C13.3902 10.4892 13.0933 11.4644 12.889 12.5542C12.7281 13.4124 12.6282 14.3222 12.5932 15.25H19.4071C19.372 14.3222 19.2722 13.4124 19.1113 12.5542C18.907 11.4644 18.6101 10.4892 18.2444 9.68137C17.8763 8.86815 17.4597 8.27126 17.0435 7.89042C16.6304 7.51236 16.2751 7.39535 16.0001 7.39535Z" fill="white"/>
<path d="M12.889 19.4458C13.0933 20.5356 13.3902 21.5108 13.7558 22.3186C14.1239 23.1319 14.5406 23.7287 14.9567 24.1096C15.3698 24.4876 15.7251 24.6047 16.0001 24.6047C16.2751 24.6047 16.6304 24.4876 17.0435 24.1096C17.4597 23.7287 17.8763 23.1319 18.2444 22.3186C18.6101 21.5108 18.907 20.5356 19.1113 19.4458C19.2722 18.5876 19.372 17.6778 19.4071 16.75H12.5932C12.6282 17.6778 12.7281 18.5876 12.889 19.4458Z" fill="white"/>
<path d="M16.0001 6C16.831 6 17.5708 6.36421 18.1793 6.92113C18.7849 7.47525 19.2966 8.24878 19.7104 9.16315C20.1267 10.0829 20.4501 11.1587 20.669 12.3261C20.8445 13.2619 20.9512 14.2485 20.9868 15.25H25.9724C25.5889 10.0775 21.2707 6 16.0001 6Z" fill="white"/>
<path d="M20.669 19.6739C20.4501 20.8413 20.1267 21.9171 19.7104 22.8368C19.2966 23.7512 18.7849 24.5247 18.1793 25.0789C17.5708 25.6358 16.831 26 16.0001 26C21.2707 26 25.5889 21.9226 25.9724 16.75H20.9868C20.9512 17.7515 20.8445 18.7381 20.669 19.6739Z" fill="white"/>
</svg>
