<svg width="26" height="24" viewBox="0 0 26 24" fill="none" xmlns="http://www.w3.org/2000/svg">
<path d="M22.7035 21.4984C19.7714 24.7723 6.4598 24.676 3.9294 22.1209C0.572295 18.7316 -1.62651 6.88764 1.52088 3.53079C6.22164 -1.48291 23.0295 -1.12991 25.3568 4.41665C26.8056 7.85754 25.7585 18.0839 22.704 21.499L22.7035 21.4984Z" fill="#949D9E"/>
<rect width="18" height="18" transform="translate(4 3)" fill="#949D9E"/>
<path fill-rule="evenodd" clip-rule="evenodd" d="M10.1877 8.25113L10.1877 7.5C10.1877 5.9467 11.4469 4.6875 13.0002 4.6875C14.5535 4.6875 15.8127 5.9467 15.8127 7.5V8.25L15.8127 8.25114C17.826 8.2602 18.8957 8.34165 19.4957 9.07352C20.1708 9.89705 19.9218 11.1422 19.4237 13.6325L18.9737 15.8825C18.6274 17.6142 18.4542 18.48 17.8321 18.99C17.2101 19.5 16.3271 19.5 14.5611 19.5H11.4393C9.67337 19.5 8.79039 19.5 8.16831 18.99C7.54624 18.48 7.37307 17.6142 7.02673 15.8825L6.57673 13.6325C6.07867 11.1422 5.82964 9.89705 6.50477 9.07352C7.10477 8.34164 8.17446 8.2602 10.1877 8.25113ZM11.3127 7.5C11.3127 6.56802 12.0683 5.8125 13.0002 5.8125C13.9322 5.8125 14.6877 6.56802 14.6877 7.5V8.25H11.3127V7.5ZM15.2502 11.25C15.6644 11.25 16.0002 10.9142 16.0002 10.5C16.0002 10.0858 15.6644 9.75 15.2502 9.75C14.836 9.75 14.5002 10.0858 14.5002 10.5C14.5002 10.9142 14.836 11.25 15.2502 11.25ZM11.5002 10.5C11.5002 10.9142 11.1644 11.25 10.7502 11.25C10.336 11.25 10.0002 10.9142 10.0002 10.5C10.0002 10.0858 10.336 9.75 10.7502 9.75C11.1644 9.75 11.5002 10.0858 11.5002 10.5Z" fill="white"/>
</svg>
