<svg width="32" height="32" viewBox="0 0 32 32" fill="none" xmlns="http://www.w3.org/2000/svg">
<path fill-rule="evenodd" clip-rule="evenodd" d="M17.5605 1.08063C18.3411 1.16188 18.943 1.76938 19.0149 2.55125L19.2149 4.71938C19.2655 5.26563 19.6111 5.73375 20.1186 5.94188C20.6242 6.14938 21.2036 6.05625 21.6211 5.70437L23.2849 4.30125C23.8855 3.795 24.7367 3.7825 25.3505 4.2725C26.1967 4.9475 26.9711 5.71375 27.653 6.55438C28.1474 7.16375 28.143 8.01812 27.6417 8.62187L26.2517 10.2969C25.9024 10.7175 25.8142 11.2962 26.0261 11.8006C26.238 12.3056 26.7092 12.6481 27.2542 12.6944L29.4261 12.8781C30.2092 12.9444 30.8192 13.54 30.9067 14.3212C31.0267 15.3962 31.0311 16.485 30.9186 17.5606C30.8367 18.3419 30.2317 18.9412 29.4492 19.0137L27.2799 19.215C26.7349 19.2656 26.2661 19.6119 26.0586 20.1187C25.8517 20.625 25.9442 21.2031 26.2961 21.6206L27.698 23.2837C28.2042 23.8844 28.2174 24.7375 27.7267 25.3519C27.0517 26.1975 26.2855 26.97 25.4455 27.6519C24.8355 28.1469 23.9817 28.1419 23.3767 27.6406L21.7011 26.2506C21.2817 25.9025 20.7024 25.8137 20.1992 26.025C19.6917 26.2375 19.3517 26.7081 19.3055 27.2556L19.1205 29.4256C19.0536 30.2094 18.4586 30.82 17.6767 30.9069C16.6024 31.0269 15.5136 31.0306 14.4386 30.9194C13.6574 30.8381 13.0599 30.2306 12.9867 29.4494L12.7842 27.2819C12.733 26.7356 12.3886 26.2669 11.8805 26.0581C11.7049 25.9862 11.5161 25.9481 11.3261 25.9481C10.978 25.9481 10.6449 26.0712 10.3786 26.2956L8.71487 27.6987C8.11549 28.2044 7.26237 28.2169 6.64924 27.7275C5.80299 27.0525 5.02862 26.2862 4.34674 25.4456C3.85174 24.835 3.85987 23.9825 4.36049 23.3781L5.74799 21.7037C6.09612 21.2831 6.18862 20.7044 5.97674 20.2C5.76362 19.6931 5.29299 19.3525 4.74549 19.3056L2.57612 19.1212C1.79299 19.055 1.17987 18.4594 1.09299 17.6781C0.972994 16.6037 0.970494 15.515 1.08112 14.4394C1.16112 13.6594 1.76987 13.0581 2.55049 12.9856L4.71987 12.7844C5.26674 12.7337 5.73549 12.3894 5.94362 11.8806C6.15049 11.3737 6.05549 10.7962 5.70299 10.3787L4.30112 8.71562C3.79487 8.115 3.78174 7.26188 4.27237 6.64813C4.94737 5.80375 5.71424 5.03 6.55299 4.34813C7.16237 3.8525 8.01737 3.85813 8.62174 4.35938L10.2974 5.74938C10.7174 6.0975 11.2961 6.18625 11.7992 5.97563C12.3061 5.76313 12.6467 5.29313 12.693 4.74563L12.878 2.575C12.9449 1.7925 13.5411 1.18063 14.3217 1.09375C15.3961 0.974375 16.4849 0.97 17.5599 1.08125L17.5605 1.08063ZM16.7055 13.9944V11.9737H15.2974V13.9956L16.7055 13.9944ZM20.0267 12.4612C20.0267 12.1925 19.8061 11.9737 19.5386 11.9737H17.328V13.9956C17.328 14.3394 17.0486 14.6194 16.7049 14.6194H15.2942C14.9505 14.6194 14.6711 14.3394 14.6711 13.9956V11.9737H12.4605C12.193 11.9737 11.9724 12.1925 11.9724 12.4612V19.5381C11.9724 19.8075 12.193 20.0262 12.4605 20.0262H19.538C19.8055 20.0262 20.0261 19.8075 20.0261 19.5381V12.4612H20.0267ZM23.848 17.6612C23.1161 21.1344 20.2299 23.6719 16.7324 23.9856L17.5286 23.1006C17.6461 22.9725 17.6342 22.775 17.5049 22.6594C17.3786 22.5437 17.1817 22.5544 17.0642 22.6825L15.768 24.1225C15.6536 24.2506 15.6624 24.4481 15.7917 24.5637L17.2317 25.86C17.2905 25.9137 17.3667 25.9406 17.4405 25.9406C17.5255 25.9406 17.6111 25.9056 17.673 25.8369C17.7874 25.7087 17.7786 25.5112 17.6492 25.3956L16.7761 24.6094C18.5311 24.4506 20.2149 23.7531 21.5642 22.615C23.0367 21.3756 24.0655 19.6625 24.4592 17.7906C24.4942 17.6219 24.3855 17.4562 24.218 17.4206C24.0474 17.385 23.883 17.4931 23.8474 17.6619L23.848 17.6612ZM9.31924 17.0637L7.87924 15.7675C7.81737 15.7119 7.73549 15.6837 7.65299 15.6875C7.57049 15.6919 7.49424 15.7287 7.43862 15.7906L6.14237 17.2306C6.02487 17.3587 6.03674 17.5562 6.16612 17.6719C6.29237 17.7875 6.48924 17.7769 6.60674 17.6487L7.39174 16.775C7.55049 18.53 8.24737 20.2131 9.38737 21.5644C10.6249 23.0356 12.3386 24.0631 14.2105 24.4575C14.2342 24.4625 14.2549 24.4644 14.2749 24.4644C14.4186 24.4644 14.5511 24.3637 14.5805 24.2162C14.6155 24.0475 14.5067 23.8819 14.3392 23.8462C10.8649 23.1144 8.32862 20.2269 8.01424 16.7312L8.89924 17.5287C9.02862 17.6437 9.22549 17.6337 9.34299 17.5056C9.45737 17.3769 9.44612 17.1794 9.31924 17.0637ZM16.2086 7.43625L14.7686 6.14C14.6424 6.02438 14.4455 6.03438 14.328 6.16313C14.2136 6.29125 14.2249 6.48875 14.3517 6.60438L15.2249 7.39063C13.4699 7.54938 11.7886 8.2475 10.4367 9.38562C8.96424 10.6244 7.93862 12.3375 7.54424 14.2094C7.50924 14.3781 7.61487 14.5444 7.78549 14.5794C7.80612 14.5844 7.82674 14.5862 7.84987 14.5862C7.99362 14.5862 8.12299 14.4856 8.15549 14.3381C8.88737 10.865 11.7736 8.3275 15.2686 8.01375L14.4724 8.89875C14.358 9.02688 14.3667 9.22437 14.4961 9.34C14.6224 9.45562 14.8224 9.445 14.9367 9.31687L16.233 7.87687C16.2886 7.81562 16.318 7.73437 16.3124 7.65125C16.3092 7.56875 16.2711 7.49125 16.2092 7.43563L16.2086 7.43625ZM17.7899 7.54187C17.6224 7.50625 17.4549 7.61438 17.4192 7.78312C17.3842 7.95187 17.493 8.1175 17.6605 8.15312C21.1349 8.885 23.6711 11.7725 23.9855 15.2681L23.1005 14.4719C22.9711 14.3562 22.7742 14.3662 22.6599 14.495C22.5424 14.6231 22.5542 14.8206 22.6836 14.9362L24.1236 16.2325C24.1792 16.2844 24.253 16.3131 24.3324 16.3131H24.3474C24.4299 16.3087 24.5092 16.2719 24.5649 16.21L25.8611 14.77C25.9755 14.6419 25.9642 14.4444 25.8374 14.3287C25.708 14.2131 25.5111 14.2237 25.3967 14.3519L24.6092 15.2256C24.4505 13.4712 23.7536 11.7875 22.6136 10.4362C21.3761 8.965 19.6624 7.9375 17.7905 7.54313L17.7899 7.54187Z" fill="white"/>
</svg>
