<svg width="20" height="21" viewBox="0 0 20 21" fill="none" xmlns="http://www.w3.org/2000/svg">
<path fill-rule="evenodd" clip-rule="evenodd" d="M10.9755 1.17538C11.4634 1.22616 11.8396 1.60585 11.8845 2.09452L12.0095 3.4496C12.0411 3.791 12.2571 4.08358 12.5743 4.21366C12.8903 4.34335 13.2524 4.28514 13.5134 4.06522L14.5532 3.18827C14.9286 2.87186 15.4606 2.86405 15.8442 3.1703C16.3731 3.59217 16.8571 4.07108 17.2833 4.59647C17.5923 4.97733 17.5896 5.51131 17.2763 5.88866L16.4075 6.93553C16.1892 7.19842 16.1341 7.56014 16.2665 7.87538C16.3989 8.191 16.6935 8.40506 17.0341 8.43397L18.3915 8.54881C18.881 8.59022 19.2622 8.96249 19.3169 9.45077C19.3919 10.1226 19.3946 10.8031 19.3243 11.4754C19.2731 11.9637 18.895 12.3383 18.406 12.3836L17.0501 12.5094C16.7095 12.541 16.4165 12.7574 16.2868 13.0742C16.1575 13.3906 16.2153 13.7519 16.4353 14.0129L17.3114 15.0523C17.6278 15.4277 17.636 15.9609 17.3294 16.3449C16.9075 16.8734 16.4286 17.3562 15.9036 17.7824C15.5224 18.0918 14.9888 18.0887 14.6106 17.7754L13.5634 16.9066C13.3013 16.689 12.9392 16.6336 12.6247 16.7656C12.3075 16.8984 12.095 17.1926 12.0661 17.5347L11.9505 18.891C11.9087 19.3808 11.5368 19.7625 11.0481 19.8168C10.3767 19.8918 9.69619 19.8941 9.02432 19.8246C8.53604 19.7738 8.1626 19.3941 8.1169 18.9058L7.99034 17.5512C7.9583 17.2098 7.74307 16.9168 7.42549 16.7863C7.31573 16.7414 7.19776 16.7176 7.07901 16.7176C6.86143 16.7176 6.65323 16.7945 6.48682 16.9348L5.44698 17.8117C5.07237 18.1277 4.53916 18.1355 4.15596 17.8297C3.62705 17.4078 3.14307 16.9289 2.7169 16.4035C2.40752 16.0219 2.4126 15.489 2.72549 15.1113L3.59268 14.0648C3.81026 13.8019 3.86807 13.4402 3.73565 13.125C3.60244 12.8082 3.3083 12.5953 2.96612 12.566L1.61026 12.4508C1.1208 12.4094 0.737601 12.0371 0.683304 11.5488C0.608304 10.8773 0.606742 10.1969 0.675883 9.5246C0.725883 9.0371 1.10635 8.66131 1.59424 8.616L2.9501 8.49022C3.2919 8.45858 3.58487 8.24335 3.71494 7.92538C3.84424 7.60858 3.78487 7.24764 3.56455 6.9867L2.68838 5.94725C2.37198 5.57186 2.36377 5.03866 2.67041 4.65506C3.09229 4.12733 3.57159 3.64374 4.0958 3.21756C4.47666 2.9078 5.01104 2.91131 5.38877 3.2246L6.43604 4.09335C6.69854 4.31092 7.06026 4.36639 7.37471 4.23475C7.69151 4.10194 7.9044 3.80819 7.9333 3.466L8.04893 2.10936C8.09073 1.6203 8.46338 1.23788 8.95127 1.18358C9.62276 1.10897 10.3032 1.10624 10.9751 1.17577L10.9755 1.17538ZM10.4411 9.24647V7.98358H9.56104V9.24725L10.4411 9.24647ZM12.5169 8.28827C12.5169 8.1203 12.379 7.98358 12.2118 7.98358H10.8302V9.24725C10.8302 9.4621 10.6556 9.6371 10.4407 9.6371H9.55908C9.34424 9.6371 9.16963 9.4621 9.16963 9.24725V7.98358H7.78799C7.6208 7.98358 7.48291 8.1203 7.48291 8.28827V12.7113C7.48291 12.8797 7.6208 13.0164 7.78799 13.0164H12.2114C12.3786 13.0164 12.5165 12.8797 12.5165 12.7113V8.28827H12.5169ZM14.9052 11.5383C14.4478 13.709 12.6439 15.2949 10.4579 15.491L10.9556 14.9379C11.029 14.8578 11.0216 14.7344 10.9407 14.6621C10.8618 14.5898 10.7388 14.5965 10.6653 14.6765L9.85518 15.5765C9.78369 15.6566 9.78916 15.7801 9.87002 15.8523L10.77 16.6625C10.8067 16.6961 10.8544 16.7129 10.9005 16.7129C10.9536 16.7129 11.0071 16.691 11.0458 16.648C11.1173 16.568 11.1118 16.4445 11.031 16.3723L10.4853 15.8808C11.5821 15.7816 12.6345 15.3457 13.4778 14.6344C14.3981 13.8598 15.0411 12.789 15.2872 11.6191C15.3091 11.5137 15.2411 11.4101 15.1364 11.3879C15.0298 11.3656 14.9271 11.4332 14.9048 11.5387L14.9052 11.5383ZM5.82471 11.1648L4.92471 10.3547C4.88604 10.3199 4.83487 10.3023 4.7833 10.3047C4.73174 10.3074 4.68409 10.3305 4.64932 10.3691L3.83916 11.2691C3.76573 11.3492 3.77315 11.4726 3.85401 11.5449C3.93291 11.6172 4.05596 11.6105 4.1294 11.5305L4.62002 10.9844C4.71924 12.0812 5.15479 13.1332 5.86729 13.9777C6.64073 14.8973 7.71182 15.5394 8.88174 15.7859C8.89658 15.789 8.90948 15.7902 8.92198 15.7902C9.01182 15.7902 9.09463 15.7273 9.11299 15.6351C9.13487 15.5297 9.0669 15.4262 8.96221 15.4039C6.79073 14.9465 5.20557 13.1418 5.00909 10.957L5.56221 11.4555C5.64307 11.5273 5.76612 11.5211 5.83955 11.441C5.91104 11.3605 5.90401 11.2371 5.82471 11.1648ZM10.1306 5.14764L9.23057 4.33749C9.15166 4.26522 9.02862 4.27147 8.95518 4.35194C8.88369 4.43202 8.89073 4.55546 8.97002 4.62772L9.51573 5.11913C8.41885 5.21835 7.36807 5.65467 6.52315 6.366C5.60284 7.14022 4.96182 8.21092 4.71534 9.38085C4.69346 9.48631 4.75948 9.59022 4.86612 9.6121C4.87901 9.61522 4.8919 9.61639 4.90635 9.61639C4.99619 9.61639 5.07705 9.5535 5.09737 9.46131C5.55479 7.29061 7.35869 5.70467 9.54307 5.50858L9.04541 6.06171C8.97393 6.14178 8.9794 6.26522 9.06026 6.33749C9.13916 6.40975 9.26416 6.40311 9.33565 6.32303L10.1458 5.42303C10.1806 5.38475 10.1989 5.33397 10.1954 5.28202C10.1935 5.23046 10.1696 5.18202 10.131 5.14725L10.1306 5.14764ZM11.1189 5.21366C11.0142 5.19139 10.9095 5.25897 10.8872 5.36444C10.8653 5.46991 10.9333 5.57342 11.038 5.59569C13.2095 6.05311 14.7946 7.8578 14.9911 10.0426L14.438 9.54491C14.3571 9.47264 14.2341 9.47889 14.1626 9.55936C14.0892 9.63944 14.0966 9.76288 14.1774 9.83514L15.0774 10.6453C15.1122 10.6777 15.1583 10.6957 15.2079 10.6957H15.2173C15.2688 10.693 15.3185 10.6699 15.3532 10.6312L16.1634 9.73124C16.2349 9.65116 16.2278 9.52772 16.1485 9.45545C16.0677 9.38319 15.9446 9.38983 15.8731 9.46991L15.381 10.016C15.2817 8.91952 14.8462 7.86717 14.1337 7.02264C13.3603 6.10311 12.2892 5.46092 11.1192 5.21444L11.1189 5.21366Z" fill="white"/>
</svg>
