<svg width="57" height="48" viewBox="0 0 57 48" fill="none" xmlns="http://www.w3.org/2000/svg">
<path d="M49.7986 42.9968C43.3932 49.5447 14.3124 49.3519 8.78443 44.2419C1.45044 37.4632 -3.35309 13.7753 3.52273 7.06158C13.7921 -2.96582 50.5108 -2.25983 55.595 8.8333C58.76 15.7151 56.4725 36.1677 49.7997 42.998L49.7986 42.9968Z" fill="#00DAE8"/>
<path fill-rule="evenodd" clip-rule="evenodd" d="M23.0629 14.5236C23.0627 14.5157 23.0626 14.5079 23.0626 14.5V12.9167C23.0626 9.63747 25.7209 6.97916 29.0001 6.97916C32.2793 6.97916 34.9376 9.63747 34.9376 12.9167V14.5C34.9376 14.5079 34.9375 14.5157 34.9374 14.5236C36.9755 14.5848 38.2227 14.8046 39.1748 15.5948C40.494 16.6897 40.8415 18.5429 41.5364 22.2492L42.7239 28.5826C43.7011 33.7944 44.1898 36.4004 42.7652 38.1168C41.3406 39.8333 38.6893 39.8333 33.3866 39.8333H24.6136C19.3109 39.8333 16.6595 39.8333 15.235 38.1168C13.8104 36.4004 14.2991 33.7944 15.2763 28.5826L16.4638 22.2493C17.1587 18.5429 17.5062 16.6897 18.8254 15.5948C19.7775 14.8046 21.0247 14.5847 23.0629 14.5236ZM25.4376 12.9167C25.4376 10.9491 27.0326 9.35416 29.0001 9.35416C30.9676 9.35416 32.5626 10.9491 32.5626 12.9167V14.5C32.5626 14.5 32.5626 14.5 32.5626 14.5C32.4434 14.5 32.3223 14.5 32.1991 14.5H25.8011C25.6779 14.5 25.5568 14.5 25.4376 14.5C25.4376 14.5 25.4376 14.5 25.4376 14.5V12.9167ZM34.4919 22.2811C35.004 22.6908 35.0871 23.4381 34.6774 23.9502L28.344 31.8669C28.133 32.1306 27.8197 32.292 27.4824 32.3107C27.1452 32.3294 26.8159 32.2036 26.5771 31.9647L23.4104 28.7981C22.9467 28.3343 22.9467 27.5824 23.4104 27.1187C23.8742 26.6549 24.626 26.6549 25.0898 27.1187L27.3178 29.3467L32.8228 22.4665C33.2325 21.9544 33.9798 21.8714 34.4919 22.2811Z" fill="white"/>
</svg>
