<svg width="135" height="113" viewBox="0 0 135 113" fill="none" xmlns="http://www.w3.org/2000/svg">
<path d="M117.938 100.783C102.771 116.131 33.9145 115.679 20.8255 103.701C3.4603 87.8123 -7.91339 32.2888 8.36701 16.5521C32.6825 -6.95179 119.624 -5.29695 131.663 20.7049C139.157 36.8356 133.74 84.7759 117.941 100.786L117.938 100.783Z" fill="#00DAE8"/>
<path fill-rule="evenodd" clip-rule="evenodd" d="M61.0257 21.1097C52.8466 21.1097 46.2163 27.7401 46.2163 35.9192C46.2163 44.0983 52.8466 50.7287 61.0257 50.7287C69.2049 50.7287 75.8353 44.0983 75.8353 35.9192C75.8353 27.7401 69.2049 21.1097 61.0257 21.1097ZM69.3329 40.7179C68.9188 41.433 68.0032 41.677 67.2881 41.2628L60.3701 37.2687C59.8702 37.0253 59.5257 36.5126 59.5257 35.9192V26.2296C59.5257 25.4012 60.1974 24.7296 61.0257 24.7296C61.8541 24.7296 62.5257 25.4012 62.5257 26.2296V35.0575L68.7881 38.673C69.5032 39.087 69.7471 40.0026 69.3329 40.7179ZM61.0257 14.9209C49.4277 14.9209 40.0274 24.3212 40.0274 35.9194C40.0274 47.5174 49.4277 56.9177 61.0257 56.9177C72.6239 56.9177 82.0242 47.5174 82.0242 35.9194C82.0242 24.3212 72.6239 14.9209 61.0257 14.9209ZM61.0257 53.7287C51.1903 53.7287 43.2164 45.7547 43.2164 35.9194C43.2164 26.0839 51.1904 18.1099 61.0257 18.1099C70.8611 18.1099 78.8351 26.0839 78.8351 35.9194C78.8352 45.7547 70.8613 53.7287 61.0257 53.7287ZM30.6941 45.5055C29.8657 45.5055 29.1941 44.8339 29.1941 44.0055C29.1941 43.1771 29.8657 42.5055 30.6941 42.5055H36.6329H37.9426C40.8052 52.557 50.0559 59.9175 61.0257 59.9175C71.9675 59.9175 81.1979 52.5945 84.086 42.5826C85.4694 42.8972 86.5074 44.139 86.5074 45.615V90.8599H64.6141C64.6141 85.7693 60.4856 81.6409 55.3949 81.6409C50.3043 81.6409 46.1759 85.7693 46.1759 90.8599H39.7424C38.0308 90.8599 36.6329 89.463 36.6329 87.7506V71.8961C36.6329 71.07 35.9591 70.3961 35.1329 70.3961H23.75C22.9216 70.3961 22.25 69.7245 22.25 68.8961C22.25 68.0678 22.9216 67.3961 23.75 67.3961H32.8829C34.3396 67.3961 35.5312 66.2044 35.5312 64.7477C35.5312 63.291 34.3394 62.0993 32.8829 62.0993H27.9721C27.1438 62.0993 26.4721 61.4276 26.4721 60.5993C26.4721 59.7709 27.1438 59.0993 27.9721 59.0993H34.7579C36.2146 59.0993 37.4062 57.9075 37.4062 56.4508C37.4062 54.9941 36.2146 53.8024 34.7579 53.8024H23.75C22.9216 53.8024 22.25 53.1308 22.25 52.3024C22.25 51.474 22.9216 50.8024 23.75 50.8024H32.8829C34.3396 50.8024 35.5312 49.6106 35.5312 48.154C35.5312 46.6973 34.3394 45.5055 32.8829 45.5055H30.6941ZM55.3949 84.6407C51.9603 84.6407 49.1759 87.4251 49.1759 90.8597C49.1759 94.2945 51.9603 97.0787 55.3949 97.0787C58.8298 97.0787 61.6141 94.2943 61.6141 90.8597C61.6141 87.4251 58.8299 84.6407 55.3949 84.6407ZM55.3949 92.9788C54.224 92.9788 53.2762 92.031 53.2762 90.8599C53.2762 89.6888 54.224 88.741 55.3949 88.741C56.5661 88.741 57.5139 89.6888 57.5139 90.8599C57.5141 92.031 56.5662 92.9788 55.3949 92.9788ZM100.129 84.6407C96.6941 84.6407 93.9099 87.4251 93.9099 90.8597C93.9099 94.2945 96.6943 97.0787 100.129 97.0787C103.563 97.0787 106.348 94.2943 106.348 90.8597C106.348 87.4251 103.563 84.6407 100.129 84.6407ZM100.129 92.9788C98.9576 92.9788 98.0099 92.031 98.0099 90.8599C98.0099 89.6888 98.9577 88.741 100.129 88.741C101.3 88.741 102.248 89.6888 102.248 90.8599C102.248 92.031 101.3 92.9788 100.129 92.9788ZM111.001 78.66H113.75V70.5602C113.75 70.0993 113.669 69.7054 113.487 69.2757L107.319 54.753C106.726 53.358 105.329 52.4843 103.69 52.4843H89.5072V90.8599H90.9095C90.9095 85.7693 95.0381 81.6409 100.128 81.6409C105.219 81.6409 109.347 85.7695 109.347 90.8599H111.418C112.702 90.8599 113.75 89.8123 113.75 88.5278V85.3257H111.001C110.409 85.3257 109.926 84.8427 109.926 84.2507V79.7353C109.926 79.143 110.409 78.66 111.001 78.66ZM91.6171 68.2446V56.1098H103.522L108.676 68.2446H91.6171Z" fill="white"/>
</svg>
