<svg width="12" height="12" viewBox="0 0 12 12" fill="none" xmlns="http://www.w3.org/2000/svg">
<g clip-path="url(#clip0_3810_9446)">
<path d="M10.2715 0H7.5H4.5H1.72849C0.7755 0 0 0.7755 0 1.72849V10.2715C0 11.2245 0.7755 12 1.72849 12H4.5C4.77649 12 4.99999 11.776 4.99999 11.5C4.99999 11.224 4.77649 11 4.5 11H1.72849C1.32649 11 0.999984 10.673 0.999984 10.2715V1.72849C0.999984 1.32698 1.32649 0.999984 1.72849 0.999984H3.99998V3.49999C3.99998 3.68449 4.10149 3.85399 4.26398 3.94099C4.42648 4.02799 4.62398 4.01798 4.77748 3.91598L6 3.10099L7.2225 3.91598C7.30601 3.97198 7.40299 3.99998 7.5 3.99998C7.581 3.99998 7.662 3.98048 7.73599 3.94099C7.89848 3.85399 7.99999 3.68449 7.99999 3.49999V1.00001H10.2715C10.6735 1.00001 11 1.32701 11 1.72852V3.50002C11 3.77602 11.2235 4.00001 11.5 4.00001C11.7765 4.00001 12 3.77599 12 3.49999V1.72849C12 0.7755 11.2245 0 10.2715 0Z" fill="#171717"/>
<path fill-rule="evenodd" clip-rule="evenodd" d="M7.49084 5.25335C7.4056 5.32598 7.36298 5.3623 7.31747 5.39281C7.21313 5.46274 7.09596 5.51128 6.97273 5.53561C6.91897 5.54622 6.86316 5.55067 6.75152 5.55958C6.47104 5.58196 6.3308 5.59315 6.21379 5.63448C5.94317 5.73007 5.73031 5.94293 5.63473 6.21355C5.5934 6.33055 5.58221 6.4708 5.55982 6.75128C5.55092 6.86291 5.54646 6.91873 5.53585 6.97249C5.51152 7.09571 5.46299 7.21289 5.39305 7.31722C5.36255 7.36274 5.32623 7.40536 5.25359 7.49059C5.07109 7.70475 4.97983 7.81183 4.92632 7.92379C4.80255 8.18274 4.80255 8.48377 4.92632 8.74271C4.97983 8.85467 5.07109 8.96175 5.25359 9.17591C5.32622 9.26114 5.36255 9.30377 5.39305 9.34928C5.46299 9.45362 5.51152 9.57079 5.53585 9.69402C5.54646 9.74777 5.55092 9.80359 5.55982 9.91522C5.58221 10.1957 5.5934 10.336 5.63473 10.453C5.73031 10.7236 5.94317 10.9364 6.21379 11.032C6.3308 11.0733 6.47104 11.0845 6.75152 11.1069C6.86316 11.1158 6.91897 11.1203 6.97273 11.1309C7.09596 11.1552 7.21313 11.2038 7.31747 11.2737C7.36298 11.3042 7.4056 11.3405 7.49084 11.4132C7.705 11.5957 7.81208 11.6869 7.92403 11.7404C8.18298 11.8642 8.48401 11.8642 8.74296 11.7404C8.85492 11.6869 8.962 11.5957 9.17615 11.4132C9.26139 11.3405 9.30401 11.3042 9.34952 11.2737C9.45386 11.2038 9.57104 11.1552 9.69426 11.1309C9.74802 11.1203 9.80383 11.1158 9.91547 11.1069C10.196 11.0845 10.3362 11.0733 10.4532 11.032C10.7238 10.9364 10.9367 10.7236 11.0323 10.453C11.0736 10.336 11.0848 10.1957 11.1072 9.91522C11.1161 9.80359 11.1205 9.74777 11.1311 9.69402C11.1555 9.57079 11.204 9.45362 11.2739 9.34928C11.3044 9.30376 11.3408 9.26115 11.4134 9.17591C11.5959 8.96175 11.6872 8.85467 11.7407 8.74271C11.8644 8.48377 11.8644 8.18274 11.7407 7.92379C11.6872 7.81183 11.5959 7.70475 11.4134 7.49059C11.3408 7.40536 11.3044 7.36274 11.2739 7.31722C11.204 7.21289 11.1555 7.09571 11.1311 6.97249C11.1205 6.91873 11.1161 6.86291 11.1072 6.75128C11.0848 6.4708 11.0736 6.33055 11.0323 6.21355C10.9367 5.94293 10.7238 5.73007 10.4532 5.63448C10.3362 5.59315 10.196 5.58196 9.91547 5.55958C9.80383 5.55067 9.74802 5.54622 9.69426 5.53561C9.57104 5.51128 9.45386 5.46274 9.34952 5.39281C9.30401 5.3623 9.26139 5.32598 9.17615 5.25335C8.962 5.07084 8.85492 4.97959 8.74296 4.92608C8.48401 4.80231 8.18298 4.80231 7.92403 4.92608C7.81208 4.97959 7.70499 5.07084 7.49084 5.25335ZM9.86422 7.58535C9.97546 7.47411 9.97546 7.29375 9.86422 7.18251C9.75297 7.07127 9.57262 7.07127 9.46138 7.18251L7.76379 8.8801L7.20561 8.32191C7.09437 8.21067 6.91401 8.21067 6.80277 8.32191C6.69153 8.43315 6.69153 8.61351 6.80277 8.72475L7.56237 9.48436C7.67361 9.5956 7.85397 9.5956 7.96521 9.48436L9.86422 7.58535Z" fill="#171717"/>
</g>
<defs>
<clipPath id="clip0_3810_9446">
<rect width="12" height="12" fill="white"/>
</clipPath>
</defs>
</svg>
