<svg width="32" height="33" viewBox="0 0 32 33" fill="none" xmlns="http://www.w3.org/2000/svg">
<g clip-path="url(#clip0_1010_5750)">
<path d="M23.4286 14.2143C25.2487 14.2143 27.0317 14.7294 28.5714 15.7V1.64285C28.5714 1.01169 28.0598 0.5 27.4285 0.5H20V8.50001C20 9.44681 19.2325 10.2143 18.2857 10.2143H10.2857C9.33892 10.2143 8.57144 9.44675 8.57144 8.50001V0.5H1.14285C0.51169 0.5 0 1.01169 0 1.64285V27.9285C0 28.5597 0.51169 29.0714 1.14285 29.0714H15.2C13.319 26.0805 13.2138 22.3031 14.9257 19.2122C16.6375 16.1213 19.8953 14.2065 23.4286 14.2143ZM4.97544 22.6183C4.75229 22.8413 4.39057 22.8413 4.16743 22.6183L3.99998 22.4508V25.6428C3.99998 25.9584 3.74414 26.2142 3.42855 26.2142C3.11297 26.2142 2.85713 25.9584 2.85713 25.6428V22.4508L2.68968 22.6183C2.46549 22.8348 2.10907 22.8317 1.88865 22.6113C1.66824 22.3909 1.66514 22.0344 1.88167 21.8103L3.02452 20.6674C3.24767 20.4443 3.60939 20.4443 3.83253 20.6674L4.97538 21.8103C5.19853 22.0334 5.19853 22.3951 4.97544 22.6183ZM9.54684 22.6183C9.3237 22.8413 8.96198 22.8413 8.73883 22.6183L8.57139 22.4508V25.6428C8.57139 25.9584 8.31554 26.2142 7.99996 26.2142C7.68438 26.2142 7.42853 25.9584 7.42853 25.6428V22.4508L7.26109 22.6183C7.03689 22.8348 6.68047 22.8317 6.46006 22.6113C6.23965 22.3909 6.23655 22.0344 6.45308 21.8103L7.59593 20.6674C7.81907 20.4443 8.18079 20.4443 8.40394 20.6674L9.54679 21.8103C9.76993 22.0334 9.76993 22.3951 9.54684 22.6183Z" fill="white"/>
<path fill-rule="evenodd" clip-rule="evenodd" d="M18.8569 8.50001V0.5H14.8569V9.07144H18.2855C18.6011 9.07144 18.8569 8.81559 18.8569 8.50001Z" fill="white"/>
<path fill-rule="evenodd" clip-rule="evenodd" d="M10.2858 9.07144H13.7143V0.5H9.71436V8.50001C9.71436 8.81559 9.9702 9.07144 10.2858 9.07144Z" fill="white"/>
<path d="M23.4284 15.3571C18.6945 15.3571 14.8569 19.1947 14.8569 23.9286C14.8569 28.6624 18.6945 32.5 23.4284 32.5C28.1622 32.5 31.9998 28.6624 31.9998 23.9286C31.9945 19.1969 28.16 15.3625 23.4284 15.3571ZM27.8775 20.2817L21.5918 28.2817C21.4908 28.41 21.3399 28.489 21.1769 28.4989C21.1655 28.4989 21.1541 28.4989 21.1427 28.4989C20.9911 28.4988 20.8458 28.4386 20.7387 28.3314L19.0244 26.6171C18.8079 26.3929 18.811 26.0365 19.0314 25.8161C19.2518 25.5957 19.6082 25.5926 19.8324 25.8091L21.0895 27.0663L26.9752 19.5725C27.1001 19.4081 27.3039 19.3239 27.5084 19.3521C27.7129 19.3804 27.8863 19.5167 27.9619 19.7087C28.0376 19.9008 28.0038 20.1187 27.8735 20.2788L27.8775 20.2817Z" fill="white"/>
</g>
<defs>
<clipPath id="clip0_1010_5750">
<rect width="32" height="32" fill="white" transform="translate(0 0.5)"/>
</clipPath>
</defs>
</svg>
