<svg width="32" height="32" viewBox="0 0 32 32" fill="none" xmlns="http://www.w3.org/2000/svg">
<g clip-path="url(#clip0_1758_5396)">
<path d="M10.0591 10.5105H9.03693V8.80704C9.03693 8.24254 8.5793 7.78491 8.0148 7.78491C7.4503 7.78491 6.99268 8.24254 6.99268 8.80704V11.5327C6.99268 12.0972 7.4503 12.5548 8.0148 12.5548H10.059C10.6235 12.5548 11.0811 12.0972 11.0811 11.5327C11.0811 10.9682 10.6236 10.5105 10.0591 10.5105Z" fill="white"/>
<path d="M31.754 17.0967L27.2824 11.881C27.0882 11.6545 26.8047 11.5242 26.5063 11.5242L23.0568 11.5244V20.38C23.0568 20.9445 22.5992 21.4021 22.0347 21.4021H7.46973V24.4684C7.46973 25.0329 7.92735 25.4905 8.49185 25.4905H11.4714C11.914 26.9962 13.3075 28.099 14.9545 28.099C16.6016 28.099 17.9951 26.9962 18.4377 25.4905H21.16C21.6026 26.9962 22.9961 28.099 24.6432 28.099C26.2902 28.099 27.6837 26.9962 28.1263 25.4905H30.9781C31.5426 25.4905 32.0002 25.0329 32.0002 24.4684V17.7619C32.0002 17.5179 31.9129 17.2819 31.754 17.0967ZM14.9545 26.0547C14.0799 26.0547 13.3682 25.3432 13.3682 24.4685C13.3682 23.5937 14.0798 22.882 14.9545 22.882C15.8293 22.882 16.5409 23.5937 16.5409 24.4685C16.5409 25.3432 15.8292 26.0547 14.9545 26.0547ZM26.2296 24.4693C26.2291 25.3436 25.5177 26.0548 24.6432 26.0548C23.7685 26.0548 23.0569 25.3432 23.0569 24.4685C23.0569 23.5937 23.7685 22.882 24.6432 22.882C25.5176 22.882 26.229 23.5933 26.2296 24.4676C26.2296 24.4679 26.2295 24.4682 26.2295 24.4684C26.2295 24.4687 26.2296 24.469 26.2296 24.4693Z" fill="white"/>
<path d="M5.43418 20.2546H3.06656C2.50206 20.2546 2.04437 20.7122 2.04443 21.2768C2.04443 21.8411 2.50206 22.2988 3.06656 22.2988H5.43425L5.43418 20.2546Z" fill="white"/>
<path d="M15.5702 10.0338C15.5705 10.0355 15.5707 10.0373 15.5709 10.0391C15.3602 8.55894 14.6869 7.13263 13.5509 5.99644C12.1995 4.64507 10.4028 3.90088 8.49175 3.90088C6.58062 3.90088 4.78394 4.64513 3.43263 5.99644C2.08125 7.34782 1.33706 9.14444 1.33706 11.0556C1.33706 12.9667 2.08131 14.7633 3.43263 16.1147C3.45 16.1321 3.46781 16.1489 3.48519 16.1661L1.02219 16.166C0.45775 16.1659 0 16.6237 0 17.1881C6.25e-05 17.7526 0.457687 18.2103 1.02213 18.2103L7.46962 18.2103V19.3578H21.0124V10.0341L15.5702 10.0338ZM12.1054 14.6693C11.1401 15.6345 9.85675 16.1661 8.49169 16.1661C7.12663 16.1661 5.84325 15.6345 4.878 14.6693C3.91275 13.704 3.38119 12.4206 3.38119 11.0556C3.38119 9.6905 3.91275 8.40719 4.878 7.44188C5.84319 6.47663 7.12663 5.94507 8.49169 5.94507C9.85675 5.94507 11.1401 6.47663 12.1054 7.44188C14.0979 9.43457 14.0979 12.6767 12.1054 14.6693Z" fill="white"/>
</g>
<defs>
<clipPath id="clip0_1758_5396">
<rect width="32" height="32" fill="white"/>
</clipPath>
</defs>
</svg>
