<svg width="32" height="32" viewBox="0 0 32 32" fill="none" xmlns="http://www.w3.org/2000/svg">
<g clip-path="url(#clip0_1758_5414)">
<path d="M32 26.9C32 27.9225 30.2425 28.7513 28.0756 28.7513C26.29 28.7513 24.7819 28.1863 24.3075 27.4157H19.7687C19.2937 28.1863 17.7863 28.7513 16.0006 28.7513C14.2131 28.7513 12.7056 28.1863 12.2325 27.4157H7.69187C7.21875 28.1863 5.71125 28.7513 3.92375 28.7513C1.75563 28.7513 0 27.9225 0 26.9C0 25.8775 1.75563 25.0488 3.9225 25.0488C5.71 25.0488 7.2175 25.6119 7.69063 26.3844H12.2294C12.4669 25.9982 12.9644 25.6632 13.6256 25.4257C13.9944 25.9075 14.3594 26.3913 14.715 26.88C15.0181 27.2944 15.4856 27.5319 15.9994 27.5319C16.5112 27.5319 16.9794 27.2944 17.2819 26.88C17.64 26.3913 18.0031 25.9075 18.3713 25.4257C19.0338 25.6632 19.53 25.9982 19.7675 26.3844H24.3062C24.7812 25.6119 26.2887 25.0488 28.0744 25.0488C30.2425 25.0488 32 25.8782 32 26.9ZM15.55 26.2713C11.2181 20.3363 3.29375 12.3357 9.84 5.7894C13.2275 2.4019 18.7706 2.4019 22.1581 5.7894C28.7062 12.3357 20.78 20.3363 16.4481 26.2713C16.34 26.42 16.1825 26.5 16 26.5C15.8156 26.5 15.6581 26.42 15.55 26.2713ZM16 17.2182C18.9019 17.2182 21.2687 14.8494 21.2687 11.9475C21.2687 9.04565 18.9019 6.6769 16 6.6769C13.0963 6.6769 10.7294 9.04565 10.7294 11.9475C10.7294 14.8494 13.0963 17.2182 16 17.2182ZM19.3237 9.72378C19.1219 9.5219 18.7938 9.5219 18.5938 9.72378L15.2419 13.0757L13.4062 11.24C13.2044 11.0382 12.8781 11.0382 12.6763 11.24C12.4744 11.4419 12.4744 11.7682 12.6763 11.97L14.8769 14.1707C15.0787 14.3725 15.405 14.3725 15.6069 14.1707L19.3237 10.4538C19.5238 10.2519 19.5238 9.92565 19.3237 9.72378Z" fill="white"/>
<path d="M5.25 18C4.56075 18 4 18.5608 4 19.25C4 19.9392 4.56075 20.5 5.25 20.5C5.93925 20.5 6.5 19.9392 6.5 19.25C6.5 18.5608 5.93925 18 5.25 18Z" fill="white"/>
<path d="M28.9375 19C28.4206 19 28 19.4206 28 19.9375C28 20.4544 28.4206 20.875 28.9375 20.875C29.4544 20.875 29.875 20.4544 29.875 19.9375C29.875 19.4206 29.4544 19 28.9375 19Z" fill="white"/>
<path d="M25.375 3.65625C25.6339 3.65625 25.8438 3.44638 25.8438 3.1875C25.8438 2.92862 25.6339 2.71875 25.375 2.71875C25.1161 2.71875 24.9062 2.92862 24.9062 3.1875C24.9062 3.44638 25.1161 3.65625 25.375 3.65625Z" fill="white"/>
<path d="M28.4688 11.9375C28.7276 11.9375 28.9375 11.7276 28.9375 11.4688C28.9375 11.2099 28.7276 11 28.4688 11C28.2099 11 28 11.2099 28 11.4688C28 11.7276 28.2099 11.9375 28.4688 11.9375Z" fill="white"/>
<path d="M3.46875 13.9375C3.72763 13.9375 3.9375 13.7276 3.9375 13.4688C3.9375 13.2099 3.72763 13 3.46875 13C3.20987 13 3 13.2099 3 13.4688C3 13.7276 3.20987 13.9375 3.46875 13.9375Z" fill="white"/>
<path d="M3.8125 5.53125C4.07138 5.53125 4.28125 5.32138 4.28125 5.0625C4.28125 4.80362 4.07138 4.59375 3.8125 4.59375C3.55362 4.59375 3.34375 4.80362 3.34375 5.0625C3.34375 5.32138 3.55362 5.53125 3.8125 5.53125Z" fill="white"/>
</g>
<defs>
<clipPath id="clip0_1758_5414">
<rect width="32" height="32" fill="white"/>
</clipPath>
</defs>
</svg>
