<svg width="32" height="32" viewBox="0 0 32 32" fill="none" xmlns="http://www.w3.org/2000/svg">
<g clip-path="url(#clip0_1758_5389)">
<path d="M26.6667 0H5.33333C2.392 0 0 2.392 0 5.33333V21.3333C0 24.2747 2.392 26.6667 5.33333 26.6667H9.23067L14.228 30.876C14.7373 31.328 15.3773 31.552 16.0107 31.552C16.6347 31.552 17.252 31.336 17.7347 30.9067L22.864 26.6667H26.6667C29.608 26.6667 32 24.2747 32 21.3333V5.33333C32 2.392 29.608 0 26.6667 0ZM23.6027 10.2827L15.8787 17.892C15.364 18.408 14.684 18.6653 14.0027 18.6653C13.3213 18.6653 12.636 18.4053 12.1147 17.8853L8.40533 14.2907C7.876 13.7773 7.86267 12.9333 8.376 12.4053C8.88933 11.876 9.73333 11.864 10.2613 12.376L13.9853 15.9853L21.7307 8.384C22.2587 7.868 23.1 7.87333 23.616 8.39867C24.1333 8.92267 24.128 9.76533 23.6027 10.2827Z" fill="white"/>
</g>
<defs>
<clipPath id="clip0_1758_5389">
<rect width="32" height="32" fill="white"/>
</clipPath>
</defs>
</svg>
