<svg width="210" height="176" viewBox="0 0 210 176" fill="none" xmlns="http://www.w3.org/2000/svg">
<path d="M183.374 157.655C159.692 181.664 52.1753 180.957 31.7375 162.22C4.62238 137.365 -13.1372 50.5094 12.284 25.8925C50.2517 -10.8747 186.008 -8.28603 204.805 32.3888C216.506 57.622 208.049 132.615 183.379 157.659L183.374 157.655Z" fill="#00DAE8"/>
<path fill-rule="evenodd" clip-rule="evenodd" d="M80.3861 54.7946L80.3861 48.3038C80.3861 34.8812 91.2673 24 104.69 24C118.112 24 128.994 34.8812 128.994 48.3038V54.7848L128.994 54.7946C146.391 54.8729 155.634 55.5768 160.819 61.9012C166.653 69.0175 164.501 79.7774 160.197 101.297L156.309 120.74C153.316 135.704 151.82 143.186 146.444 147.593C141.068 152 133.438 152 118.178 152H91.2016C75.9412 152 68.311 152 62.9355 147.593C57.5599 143.186 56.0635 135.704 53.0707 120.74L49.1821 101.297C44.8781 79.7774 42.7262 69.0175 48.5602 61.9012C53.745 55.5767 62.9886 54.8729 80.3861 54.7946ZM90.1076 48.3038C90.1076 40.2502 96.6363 33.7215 104.69 33.7215C112.743 33.7215 119.272 40.2502 119.272 48.3038V54.7848H90.1076V48.3038ZM124.133 80.7089C127.712 80.7089 130.614 77.8072 130.614 74.2278C130.614 70.6485 127.712 67.7468 124.133 67.7468C120.553 67.7468 117.652 70.6485 117.652 74.2278C117.652 77.8072 120.553 80.7089 124.133 80.7089ZM91.7277 74.2278C91.7277 77.8072 88.8261 80.7089 85.2467 80.7089C81.6673 80.7089 78.7657 77.8072 78.7657 74.2278C78.7657 70.6485 81.6673 67.7468 85.2467 67.7468C88.8261 67.7468 91.7277 70.6485 91.7277 74.2278Z" fill="white"/>
</svg>
