<svg width="80" height="75" viewBox="0 0 80 75" fill="none" xmlns="http://www.w3.org/2000/svg">
<path d="M32.7708 25.188V20.3354C32.7708 16.6673 36.0125 14.6898 39.9928 14.6898C43.9593 14.6898 47.2149 16.6673 47.2149 20.3354V25.188H51.7502V20.3354C51.7502 14.3533 46.4753 10.4824 39.9928 10.4824C33.4955 10.4824 28.2363 14.3533 28.2363 20.3354V25.188H32.7708Z" fill="#ABBADB"/>
<path d="M56.4067 38.9599H23.5791V29.5202C23.5791 26.6177 26.1234 24.2646 29.2619 24.2646H50.724C53.8625 24.2646 56.4067 26.6177 56.4067 29.5202V38.9599Z" fill="#3D447A"/>
<path d="M39.9936 36.4342C41.3902 36.4342 42.5223 35.3871 42.5223 34.0955C42.5223 32.8039 41.3902 31.7568 39.9936 31.7568C38.597 31.7568 37.4648 32.8039 37.4648 34.0955C37.4648 35.3871 38.597 36.4342 39.9936 36.4342Z" fill="#2E3369"/>
<path d="M41.3741 35.0654H38.6122L38.0947 37.9909H41.8918L41.3741 35.0654Z" fill="#2E3369"/>
<path d="M22.0358 57.2631H28.708V64.5316L39.0638 57.2631H58.003C63.721 57.2631 68.3742 52.951 68.3742 47.6462L68.3348 47.4361C68.3348 42.1467 63.6817 37.8438 57.9575 37.8438L21.9828 37.8804C16.2649 37.8804 11.6118 42.1834 11.6118 47.4721L11.6501 47.7078C11.6501 52.9977 16.3061 57.2631 22.0358 57.2631ZM52.1276 46.4157L53.2373 44.6375L55.37 45.7758V43.4983H57.59V45.7758L59.722 44.6375L60.8318 46.4157L58.7 47.554L60.8318 48.6921L59.722 50.4708L57.59 49.3321V51.6086H55.37V49.3321L53.2373 50.4708L52.1276 48.6921L54.2593 47.554L52.1276 46.4157ZM41.1366 46.4157L42.2464 44.6375L44.3786 45.7758V43.4983H46.5984V45.7758L48.731 44.6375L49.8409 46.4157L47.709 47.554L49.8409 48.6921L48.731 50.4708L46.5984 49.3321V51.6086H44.3786V49.3321L42.2464 50.4708L41.1366 48.6921L43.2684 47.554L41.1366 46.4157ZM30.1452 46.4157L31.2549 44.6375L33.3875 45.7758V43.4983H35.6075V45.7758L37.7394 44.6375L38.8492 46.4157L36.7175 47.554L38.8492 48.6921L37.7394 50.4708L35.6075 49.3321V51.6086H33.3875V49.3321L31.2549 50.4708L30.1452 48.6921L32.277 47.554L30.1452 46.4157ZM19.1541 46.4157L20.264 44.6375L22.396 45.7758V43.4983H24.616V45.7758L26.7485 44.6375L27.8583 46.4157L25.7266 47.554L27.8583 48.6921L26.7485 50.4708L24.616 49.3321V51.6086H22.396V49.3321L20.264 50.4708L19.1541 48.6921L21.2859 47.554L19.1541 46.4157Z" fill="#FDC007"/>
<path d="M39.9091 74.1166C36.8577 74.1166 33.8095 73.7935 30.8494 73.1564C27.8202 72.5045 24.8722 71.5208 22.0871 70.2329C21.5962 70.0031 21.0789 69.7493 20.5486 69.4777C18.3136 68.3192 16.1715 66.9408 14.1719 65.3751L14.3508 68.6116L11.5888 68.7422L11.1714 61.1954L19.3316 60.8094L19.4729 63.3639L16.0885 63.524C17.916 64.9421 19.8661 66.1916 21.894 67.2433C22.378 67.491 22.8618 67.7284 23.3306 67.9482C28.4403 70.3112 34.174 71.5606 39.91 71.5606C39.9107 71.5606 39.9111 71.5606 39.9118 71.5606C50.4903 71.5601 60.5976 67.4209 67.6421 60.2044C78.8219 48.7496 80.3859 31.6585 71.4454 18.642L71.2987 18.4284L73.6333 17.0566L73.78 17.2703C83.384 31.2535 81.7041 49.6134 69.6949 61.9182C66.1136 65.5869 61.8382 68.5107 56.9873 70.6082C52.2503 72.6565 47.1963 73.8205 41.9661 74.0679C41.2837 74.1002 40.5916 74.1166 39.9091 74.1166Z" fill="#00DAE8"/>
<path d="M6.20635 56.9745C-3.39786 42.9911 -1.71781 24.6313 10.2919 12.3269C17.858 4.57552 28.7105 0.129883 40.0665 0.129883C43.1186 0.129883 46.1677 0.453499 49.1292 1.09171C52.1598 1.74476 55.1086 2.72986 57.8935 4.01954C58.3612 4.22873 58.8719 4.47678 59.4509 4.77632C61.6812 5.93229 63.8192 7.30779 65.8145 8.86969L65.636 5.64458L68.3981 5.51387L68.8155 13.0602L60.6554 13.4463L60.514 10.8919L63.9111 10.7312C62.0826 9.31144 60.1306 8.06058 58.1004 7.0081C57.5711 6.73444 57.1036 6.50736 56.6719 6.31396C51.548 3.94097 45.8045 2.68744 40.0593 2.68744C29.4884 2.68744 19.3868 6.8255 12.3446 14.0405C1.16491 25.495 -0.399194 42.5863 8.54102 55.6034L8.68774 55.8169L6.35302 57.1879L6.20635 56.9745Z" fill="#00DAE8"/>
</svg>
