<svg width="24" height="24" viewBox="0 0 24 24" fill="none" xmlns="http://www.w3.org/2000/svg">
<path d="M20.6977 3.61035H3.30231C2.03078 3.61035 1 4.73484 1 6.12201V8.91102C1 9.06515 1.11455 9.19007 1.25579 9.19007H22.7442C22.8854 9.19007 23 9.0651 23 8.91102V6.12201C23 4.73484 21.9692 3.61035 20.6977 3.61035Z" fill="white"/>
<path d="M22.7442 10.8643H1.25579C1.11451 10.8643 1 10.9892 1 11.1433V17.8786C1 19.2657 2.03078 20.3902 3.30231 20.3902H20.6976C21.9692 20.3902 23 19.2657 23 17.8786V11.1433C23 10.9892 22.8854 10.8643 22.7442 10.8643ZM6.29852 14.6443H4.34727C3.93404 14.6443 3.57843 14.2978 3.559 13.8475C3.53825 13.3667 3.88943 12.9698 4.32557 12.9698H6.27682C6.69005 12.9698 7.04566 13.3163 7.06508 13.7666C7.08579 14.2474 6.73465 14.6443 6.29852 14.6443ZM19.6744 17.5996H15.165C14.7518 17.5996 14.3962 17.2532 14.3768 16.8029C14.356 16.3221 14.7072 15.9252 15.1433 15.9252H19.6527C20.066 15.9252 20.4216 16.2717 20.441 16.7219C20.4618 17.2027 20.1106 17.5996 19.6744 17.5996Z" fill="white"/>
</svg>
