<svg width="32" height="32" viewBox="0 0 32 32" fill="none" xmlns="http://www.w3.org/2000/svg">
<path d="M0 12.8C0 8.31958 0 6.07937 0.871948 4.36808C1.63893 2.86278 2.86278 1.63893 4.36808 0.871948C6.07937 0 8.31958 0 12.8 0H19.2C23.6804 0 25.9206 0 27.6319 0.871948C29.1372 1.63893 30.3611 2.86278 31.1281 4.36808C32 6.07937 32 8.31958 32 12.8V19.2C32 23.6804 32 25.9206 31.1281 27.6319C30.3611 29.1372 29.1372 30.3611 27.6319 31.1281C25.9206 32 23.6804 32 19.2 32H12.8C8.31958 32 6.07937 32 4.36808 31.1281C2.86278 30.3611 1.63893 29.1372 0.871948 27.6319C0 25.9206 0 23.6804 0 19.2V12.8Z" fill="#34C759"/>
<path d="M18.9635 18.1231L18.5839 18.5227C18.5839 18.5227 17.6818 19.4725 15.2193 16.8799C12.7568 14.2874 13.6589 13.3376 13.6589 13.3376L13.8979 13.0859C14.4867 12.466 14.5422 11.4708 14.0285 10.7443L12.9777 9.25801C12.3419 8.35875 11.1133 8.23996 10.3845 9.0072L9.07654 10.3843C8.71519 10.7647 8.47304 11.2579 8.50241 11.8049C8.57753 13.2045 9.1756 16.2159 12.5128 19.7293C16.0518 23.4552 19.3724 23.6033 20.7302 23.4692C21.1597 23.4269 21.5333 23.1952 21.8343 22.8783L23.0181 21.632C23.8171 20.7908 23.5918 19.3485 22.5694 18.76L20.9774 17.8436C20.306 17.4572 19.4881 17.5707 18.9635 18.1231Z" fill="white"/>
<path d="M17.0494 7.56685C17.1046 7.22611 17.4267 6.99496 17.7674 7.05013C17.7885 7.05417 17.8564 7.06685 17.8919 7.07477C17.963 7.09061 18.0622 7.11499 18.1859 7.15101C18.4332 7.22304 18.7787 7.34171 19.1934 7.53183C20.0236 7.91246 21.1285 8.57829 22.275 9.72479C23.4215 10.8713 24.0873 11.9761 24.468 12.8064C24.6581 13.221 24.7767 13.5666 24.8488 13.8139C24.8848 13.9375 24.9092 14.0367 24.925 14.1078C24.9329 14.1434 24.9387 14.1719 24.9428 14.193L24.9475 14.219C25.0027 14.5598 24.7737 14.8952 24.4329 14.9504C24.0932 15.0054 23.7731 14.7753 23.7166 14.4362C23.7148 14.4271 23.71 14.4026 23.7049 14.3796C23.6946 14.3334 23.6768 14.2602 23.6486 14.1634C23.5922 13.9698 23.4943 13.682 23.3317 13.3273C23.0068 12.6187 22.4227 11.6402 21.3911 10.6087C20.3595 9.57713 19.3811 8.99296 18.6725 8.6681C18.3177 8.50547 18.03 8.40753 17.8363 8.35114C17.7396 8.32294 17.6179 8.29502 17.5717 8.28474C17.2326 8.22822 16.9944 7.90662 17.0494 7.56685Z" fill="#F9FBFB"/>
<path fill-rule="evenodd" clip-rule="evenodd" d="M17.238 10.4414C17.3328 10.1095 17.6787 9.91733 18.0106 10.0122L17.8389 10.6131C18.0106 10.0122 18.0106 10.0122 18.0106 10.0122L18.0118 10.0125L18.0131 10.0129L18.0159 10.0137L18.0223 10.0156L18.0388 10.0207C18.0514 10.0248 18.0671 10.03 18.0858 10.0366C18.1232 10.0499 18.1727 10.0688 18.2333 10.0948C18.3547 10.1468 18.5206 10.2272 18.7244 10.3478C19.1323 10.5892 19.6891 10.9902 20.3432 11.6443C20.9974 12.2984 21.3984 12.8553 21.6398 13.2632C21.7604 13.4669 21.8407 13.6328 21.8927 13.7542C21.9187 13.8149 21.9376 13.8643 21.9509 13.9018C21.9575 13.9205 21.9628 13.9362 21.9668 13.9487L21.9719 13.9652L21.9739 13.9717L21.9747 13.9745L21.975 13.9757C21.975 13.9757 21.9754 13.9769 21.3744 14.1486L21.9754 13.9769C22.0702 14.3088 21.878 14.6548 21.5461 14.7496C21.2171 14.8436 20.8742 14.6555 20.776 14.3288L20.7729 14.3198C20.7684 14.3073 20.7592 14.2826 20.7438 14.2466C20.713 14.1747 20.6571 14.057 20.564 13.8998C20.3782 13.5859 20.0427 13.1115 19.4594 12.5282C18.8761 11.9449 18.4017 11.6093 18.0877 11.4235C17.9306 11.3305 17.8129 11.2746 17.7409 11.2437C17.7049 11.2283 17.6803 11.2191 17.6678 11.2147L17.6588 11.2116C17.3321 11.1134 17.1439 10.7705 17.238 10.4414Z" fill="#F9FBFB"/>
</svg>
