<svg width="32" height="32" viewBox="0 0 32 32" fill="none" xmlns="http://www.w3.org/2000/svg">
<rect width="32" height="32" rx="8" fill="#0F5057"/>
<path fill-rule="evenodd" clip-rule="evenodd" d="M7 14.4167C7 11.2191 7 9.62028 7.37752 9.08241C7.75503 8.54454 9.25832 8.02996 12.2649 7.00079L12.8377 6.80472C14.405 6.26824 15.1886 6 16 6C16.8114 6 17.595 6.26824 19.1623 6.80472L19.7351 7.00079C22.7417 8.02996 24.245 8.54454 24.6225 9.08241C25 9.62028 25 11.2191 25 14.4167V15.9914C25 21.6294 20.761 24.3655 18.1014 25.5273C17.38 25.8424 17.0193 26 16 26C14.9807 26 14.62 25.8424 13.8986 25.5273C11.239 24.3655 7 21.6294 7 15.9914V14.4167ZM18 13C18 14.1046 17.1046 15 16 15C14.8954 15 14 14.1046 14 13C14 11.8954 14.8954 11 16 11C17.1046 11 18 11.8954 18 13ZM16 21C20 21 20 20.1046 20 19C20 17.8954 18.2091 17 16 17C13.7909 17 12 17.8954 12 19C12 20.1046 12 21 16 21Z" fill="white"/>
</svg>
