<svg width="32" height="32" viewBox="0 0 32 32" fill="none" xmlns="http://www.w3.org/2000/svg">
<path d="M0 12.8C0 8.31958 0 6.07937 0.871948 4.36808C1.63893 2.86278 2.86278 1.63893 4.36808 0.871948C6.07937 0 8.31958 0 12.8 0H19.2C23.6804 0 25.9206 0 27.6319 0.871948C29.1372 1.63893 30.3611 2.86278 31.1281 4.36808C32 6.07937 32 8.31958 32 12.8V19.2C32 23.6804 32 25.9206 31.1281 27.6319C30.3611 29.1372 29.1372 30.3611 27.6319 31.1281C25.9206 32 23.6804 32 19.2 32H12.8C8.31958 32 6.07937 32 4.36808 31.1281C2.86278 30.3611 1.63893 29.1372 0.871948 27.6319C0 25.9206 0 23.6804 0 19.2V12.8Z" fill="#007BFF"/>
<circle cx="15.9998" cy="11" r="3.33333" fill="white"/>
<path d="M22.6668 20.5834C22.6668 22.6544 22.6668 24.3334 16.0002 24.3334C9.3335 24.3334 9.3335 22.6544 9.3335 20.5834C9.3335 18.5123 12.3183 16.8334 16.0002 16.8334C19.6821 16.8334 22.6668 18.5123 22.6668 20.5834Z" fill="white"/>
</svg>
