<svg width="183" height="153" viewBox="0 0 183 153" fill="none" xmlns="http://www.w3.org/2000/svg">
<path d="M159.798 137.052C139.16 157.924 45.4671 157.309 27.6569 141.021C4.02808 119.414 -11.4481 43.9087 10.7046 22.5088C43.7908 -9.45356 162.092 -7.20319 178.473 28.1561C188.67 50.0919 181.3 115.285 159.801 137.056L159.798 137.052Z" fill="#00DAE8"/>
<path d="M58.6666 18.3334C60.8758 18.3334 62.6666 20.1242 62.6666 22.3334V32.2L71.8435 30.3647C80.6464 28.6041 89.7712 29.4419 98.1063 32.7759L100.31 33.6576C107.91 36.6973 116.274 37.2649 124.214 35.2798C127.579 34.4385 130.282 38.0859 128.497 41.0604L121.678 52.4252C119.857 55.4607 118.946 56.9784 118.73 58.6293C118.64 59.318 118.64 60.0154 118.73 60.7041C118.946 62.355 119.857 63.8727 121.678 66.9082L130.002 80.7807C131.659 83.5435 130.177 87.1225 127.051 87.9039L126.517 88.0374C117.08 90.3968 107.138 89.7221 98.1063 86.1092C89.7712 82.7752 80.6464 81.9374 71.8435 83.698L62.6666 85.5334V129C62.6666 131.209 60.8758 133 58.6666 133C56.4575 133 54.6666 131.209 54.6666 129V22.3334C54.6666 20.1242 56.4575 18.3334 58.6666 18.3334Z" fill="white"/>
</svg>
