<svg width="32" height="32" viewBox="0 0 32 32" fill="none" xmlns="http://www.w3.org/2000/svg">
<path d="M0 12.8C0 8.31958 0 6.07937 0.871948 4.36808C1.63893 2.86278 2.86278 1.63893 4.36808 0.871948C6.07937 0 8.31958 0 12.8 0H19.2C23.6804 0 25.9206 0 27.6319 0.871948C29.1372 1.63893 30.3611 2.86278 31.1281 4.36808C32 6.07937 32 8.31958 32 12.8V19.2C32 23.6804 32 25.9206 31.1281 27.6319C30.3611 29.1372 29.1372 30.3611 27.6319 31.1281C25.9206 32 23.6804 32 19.2 32H12.8C8.31958 32 6.07937 32 4.36808 31.1281C2.86278 30.3611 1.63893 29.1372 0.871948 27.6319C0 25.9206 0 23.6804 0 19.2V12.8Z" fill="#6F42C1"/>
<path d="M10.7915 6.83325C11.1367 6.83325 11.4165 7.11307 11.4165 7.45825V8.99992L12.8504 8.71314C14.2258 8.43805 15.6516 8.56895 16.9539 9.0899L17.1236 9.15777C18.4246 9.67816 19.8565 9.77534 21.2158 9.4355C21.8469 9.27774 22.4582 9.75502 22.4582 10.4055V16.5447C22.4582 17.0816 22.0928 17.5496 21.5719 17.6798L21.3931 17.7245C19.9185 18.0932 18.3652 17.9877 16.9539 17.4232C15.6516 16.9023 14.2258 16.7714 12.8504 17.0465L11.4165 17.3333V24.1249C11.4165 24.4701 11.1367 24.7499 10.7915 24.7499C10.4463 24.7499 10.1665 24.4701 10.1665 24.1249V7.45825C10.1665 7.11307 10.4463 6.83325 10.7915 6.83325Z" fill="white"/>
</svg>
