<svg width="20" height="20" viewBox="0 0 20 20" fill="none" xmlns="http://www.w3.org/2000/svg">
<path fill-rule="evenodd" clip-rule="evenodd" d="M17.113 17.1133C18.3334 15.8929 18.3334 13.9287 18.3334 10.0003C18.3334 9.71577 18.3334 9.5735 18.3208 9.42883C18.2619 8.7544 17.9884 8.09413 17.5532 7.57561C17.4598 7.46438 17.3567 7.3613 17.1506 7.15514L12.8453 2.84986C12.6391 2.6437 12.536 2.54062 12.4248 2.44725C11.9063 2.01199 11.246 1.7385 10.5716 1.67962C10.4269 1.66699 10.2846 1.66699 10.0001 1.66699C6.07171 1.66699 4.10752 1.66699 2.88714 2.88738C1.66675 4.10777 1.66675 6.07195 1.66675 10.0003C1.66675 13.9287 1.66675 15.8929 2.88714 17.1133C3.45717 17.6833 4.18947 17.9871 5.20841 18.149L5.20841 17.457C5.20839 16.7083 5.20837 16.0839 5.27501 15.5883C5.34535 15.0651 5.50007 14.5928 5.87963 14.2132C6.25919 13.8336 6.73152 13.6789 7.25468 13.6086C7.75033 13.5419 8.37468 13.542 9.12342 13.542H10.8767C11.6255 13.542 12.2498 13.5419 12.7455 13.6086C13.2686 13.6789 13.741 13.8336 14.1205 14.2132C14.5001 14.5928 14.6548 15.0651 14.7252 15.5883C14.7918 16.0839 14.7918 16.7083 14.7918 17.457L14.7917 18.149C15.8107 17.9871 16.543 17.6833 17.113 17.1133ZM5.20841 6.66699C5.20841 6.32181 5.48824 6.04199 5.83341 6.04199H10.8334C11.1786 6.04199 11.4584 6.32181 11.4584 6.66699C11.4584 7.01217 11.1786 7.29199 10.8334 7.29199H5.83341C5.48824 7.29199 5.20841 7.01217 5.20841 6.66699Z" fill="#F17000"/>
<path d="M13.4863 15.7548C13.5404 16.1573 13.5417 16.697 13.5417 17.5003V18.2764C12.5786 18.3337 11.4171 18.3337 10.0001 18.3337C8.58304 18.3337 7.42158 18.3337 6.45842 18.2764V17.5003C6.45842 16.697 6.45974 16.1573 6.51386 15.7548C6.56556 15.3703 6.65492 15.2057 6.76351 15.0971C6.87211 14.9885 7.03669 14.8991 7.42124 14.8474C7.82377 14.7933 8.36341 14.792 9.16675 14.792H10.8334C11.6368 14.792 12.1764 14.7933 12.5789 14.8474C12.9635 14.8991 13.1281 14.9885 13.2367 15.0971C13.3452 15.2057 13.4346 15.3703 13.4863 15.7548Z" fill="#F17000"/>
</svg>
