<svg width="17" height="17" viewBox="0 0 17 17" fill="none" xmlns="http://www.w3.org/2000/svg">
<path d="M9.58338 2.3335C10.8546 2.3335 11.7577 2.33456 12.4428 2.42667C13.1135 2.51685 13.5 2.68596 13.7821 2.9681C14.1069 3.29286 14.2482 3.5446 14.3265 3.99339C14.4148 4.49923 14.4167 5.22077 14.4167 6.50016C14.4167 6.77631 14.6406 7.00016 14.9167 7.00016C15.1929 7.00016 15.4167 6.77631 15.4167 6.50016L15.4167 6.43595C15.4167 5.2365 15.4168 4.42397 15.3116 3.82149C15.1947 3.15127 14.9455 2.71728 14.4892 2.26099C13.9903 1.76208 13.3577 1.54067 12.5761 1.43559C11.8166 1.33348 10.8462 1.33349 9.621 1.3335H9.58338C9.30724 1.3335 9.08338 1.55735 9.08338 1.8335C9.08338 2.10964 9.30724 2.3335 9.58338 2.3335Z" fill="white"/>
<path d="M1.58338 10.0002C1.85952 10.0002 2.08338 10.224 2.08338 10.5002C2.08338 11.7796 2.0853 12.5011 2.17357 13.0069C2.25188 13.4557 2.39322 13.7075 2.71798 14.0322C3.00012 14.3144 3.38655 14.4835 4.05728 14.5737C4.74239 14.6658 5.6455 14.6668 6.91671 14.6668C7.19285 14.6668 7.41671 14.8907 7.41671 15.1668C7.41671 15.443 7.19285 15.6668 6.91671 15.6668H6.8791C5.65393 15.6668 4.68351 15.6669 3.92403 15.5647C3.14241 15.4597 2.50978 15.2382 2.01087 14.7393C1.55458 14.283 1.3054 13.8491 1.18845 13.1788C1.08332 12.5764 1.08334 11.7638 1.08338 10.5644L1.08338 10.5002C1.08338 10.224 1.30724 10.0002 1.58338 10.0002Z" fill="white"/>
<path d="M14.9167 10.0002C15.1929 10.0002 15.4167 10.224 15.4167 10.5002L15.4167 10.5644C15.4167 11.7638 15.4168 12.5764 15.3116 13.1788C15.1947 13.8491 14.9455 14.283 14.4892 14.7393C13.9903 15.2382 13.3577 15.4597 12.5761 15.5647C11.8166 15.6669 10.8462 15.6668 9.62099 15.6668H9.58338C9.30724 15.6668 9.08338 15.443 9.08338 15.1668C9.08338 14.8907 9.30724 14.6668 9.58338 14.6668C10.8546 14.6668 11.7577 14.6658 12.4428 14.5737C13.1135 14.4835 13.5 14.3144 13.7821 14.0322C14.1069 13.7075 14.2482 13.4557 14.3265 13.0069C14.4148 12.5011 14.4167 11.7796 14.4167 10.5002C14.4167 10.224 14.6406 10.0002 14.9167 10.0002Z" fill="white"/>
<path d="M6.8791 1.3335H6.91671C7.19285 1.3335 7.41671 1.55735 7.41671 1.8335C7.41671 2.10964 7.19285 2.3335 6.91671 2.3335C5.6455 2.3335 4.74239 2.33456 4.05728 2.42667C3.38655 2.51685 3.00012 2.68596 2.71798 2.9681C2.39322 3.29286 2.25188 3.5446 2.17357 3.99339C2.0853 4.49923 2.08338 5.22077 2.08338 6.50016C2.08338 6.77631 1.85952 7.00016 1.58338 7.00016C1.30724 7.00016 1.08338 6.77631 1.08338 6.50016L1.08338 6.43595C1.08334 5.23651 1.08332 4.42396 1.18845 3.82149C1.3054 3.15127 1.55458 2.71728 2.01087 2.26099C2.50978 1.76208 3.14241 1.54067 3.92403 1.43559C4.6835 1.33348 5.65393 1.33349 6.8791 1.3335Z" fill="white"/>
<path d="M1.58338 8.00016C1.30724 8.00016 1.08338 8.22402 1.08338 8.50016C1.08338 8.77631 1.30724 9.00016 1.58338 9.00016H14.9167C15.1929 9.00016 15.4167 8.77631 15.4167 8.50016C15.4167 8.22402 15.1929 8.00016 14.9167 8.00016H1.58338Z" fill="white"/>
<path d="M9.58338 2.3335C10.8546 2.3335 11.7577 2.33456 12.4428 2.42667C13.1135 2.51685 13.5 2.68596 13.7821 2.9681C14.1069 3.29286 14.2482 3.5446 14.3265 3.99339C14.4148 4.49923 14.4167 5.22077 14.4167 6.50016C14.4167 6.77631 14.6406 7.00016 14.9167 7.00016C15.1929 7.00016 15.4167 6.77631 15.4167 6.50016L15.4167 6.43595C15.4167 5.2365 15.4168 4.42397 15.3116 3.82149C15.1947 3.15127 14.9455 2.71728 14.4892 2.26099C13.9903 1.76208 13.3577 1.54067 12.5761 1.43559C11.8166 1.33348 10.8462 1.33349 9.621 1.3335H9.58338C9.30724 1.3335 9.08338 1.55735 9.08338 1.8335C9.08338 2.10964 9.30724 2.3335 9.58338 2.3335Z" stroke="white"/>
<path d="M1.58338 10.0002C1.85952 10.0002 2.08338 10.224 2.08338 10.5002C2.08338 11.7796 2.0853 12.5011 2.17357 13.0069C2.25188 13.4557 2.39322 13.7075 2.71798 14.0322C3.00012 14.3144 3.38655 14.4835 4.05728 14.5737C4.74239 14.6658 5.6455 14.6668 6.91671 14.6668C7.19285 14.6668 7.41671 14.8907 7.41671 15.1668C7.41671 15.443 7.19285 15.6668 6.91671 15.6668H6.8791C5.65393 15.6668 4.68351 15.6669 3.92403 15.5647C3.14241 15.4597 2.50978 15.2382 2.01087 14.7393C1.55458 14.283 1.3054 13.8491 1.18845 13.1788C1.08332 12.5764 1.08334 11.7638 1.08338 10.5644L1.08338 10.5002C1.08338 10.224 1.30724 10.0002 1.58338 10.0002Z" stroke="white"/>
<path d="M14.9167 10.0002C15.1929 10.0002 15.4167 10.224 15.4167 10.5002L15.4167 10.5644C15.4167 11.7638 15.4168 12.5764 15.3116 13.1788C15.1947 13.8491 14.9455 14.283 14.4892 14.7393C13.9903 15.2382 13.3577 15.4597 12.5761 15.5647C11.8166 15.6669 10.8462 15.6668 9.62099 15.6668H9.58338C9.30724 15.6668 9.08338 15.443 9.08338 15.1668C9.08338 14.8907 9.30724 14.6668 9.58338 14.6668C10.8546 14.6668 11.7577 14.6658 12.4428 14.5737C13.1135 14.4835 13.5 14.3144 13.7821 14.0322C14.1069 13.7075 14.2482 13.4557 14.3265 13.0069C14.4148 12.5011 14.4167 11.7796 14.4167 10.5002C14.4167 10.224 14.6406 10.0002 14.9167 10.0002Z" stroke="white"/>
<path d="M6.8791 1.3335H6.91671C7.19285 1.3335 7.41671 1.55735 7.41671 1.8335C7.41671 2.10964 7.19285 2.3335 6.91671 2.3335C5.6455 2.3335 4.74239 2.33456 4.05728 2.42667C3.38655 2.51685 3.00012 2.68596 2.71798 2.9681C2.39322 3.29286 2.25188 3.5446 2.17357 3.99339C2.0853 4.49923 2.08338 5.22077 2.08338 6.50016C2.08338 6.77631 1.85952 7.00016 1.58338 7.00016C1.30724 7.00016 1.08338 6.77631 1.08338 6.50016L1.08338 6.43595C1.08334 5.23651 1.08332 4.42396 1.18845 3.82149C1.3054 3.15127 1.55458 2.71728 2.01087 2.26099C2.50978 1.76208 3.14241 1.54067 3.92403 1.43559C4.6835 1.33348 5.65393 1.33349 6.8791 1.3335Z" stroke="white"/>
<path d="M1.58338 8.00016C1.30724 8.00016 1.08338 8.22402 1.08338 8.50016C1.08338 8.77631 1.30724 9.00016 1.58338 9.00016H14.9167C15.1929 9.00016 15.4167 8.77631 15.4167 8.50016C15.4167 8.22402 15.1929 8.00016 14.9167 8.00016H1.58338Z" stroke="white"/>
</svg>
