<svg width="14" height="15" viewBox="0 0 14 15" fill="none" xmlns="http://www.w3.org/2000/svg">
<path d="M5.10203 3.10575C5.94646 1.59091 6.36868 0.833496 6.99992 0.833496C7.63116 0.833496 8.05338 1.59091 8.89781 3.10575L9.11627 3.49765C9.35624 3.92812 9.47622 4.14335 9.66329 4.28537C9.85036 4.42738 10.0834 4.4801 10.5493 4.58553L10.9736 4.68152C12.6133 5.05253 13.4332 5.23804 13.6283 5.86532C13.8234 6.49259 13.2644 7.14621 12.1465 8.45345L11.8573 8.79164C11.5396 9.16312 11.3808 9.34886 11.3093 9.57864C11.2379 9.80842 11.2619 10.0562 11.3099 10.5519L11.3537 11.0031C11.5227 12.7472 11.6072 13.6193 11.0965 14.007C10.5858 14.3947 9.81814 14.0412 8.2828 13.3343L7.8856 13.1514C7.4493 12.9505 7.23115 12.8501 6.99992 12.8501C6.76868 12.8501 6.55054 12.9505 6.11424 13.1514L5.71703 13.3343C4.1817 14.0412 3.41404 14.3947 2.90335 14.007C2.39267 13.6193 2.47717 12.7472 2.64618 11.0031L2.68991 10.5519C2.73794 10.0562 2.76195 9.80842 2.69049 9.57864C2.61904 9.34886 2.4602 9.16312 2.14253 8.79164L1.85332 8.45345C0.735418 7.14621 0.176468 6.49259 0.371533 5.86532C0.566597 5.23804 1.38649 5.05253 3.02628 4.68152L3.45051 4.58553C3.91649 4.4801 4.14947 4.42738 4.33655 4.28537C4.52362 4.14335 4.6436 3.92812 4.88356 3.49765L5.10203 3.10575Z" fill="#FDB600"/>
</svg>
