<svg width="16" height="16" viewBox="0 0 16 16" fill="none" xmlns="http://www.w3.org/2000/svg">
<path d="M14.3195 11.4088C10.1262 10.7798 5.87378 10.7798 1.68047 11.4088L1.28125 11.4686V14.6874H14.7188V11.4686L14.3195 11.4088ZM8 13.4374C7.65538 13.4374 7.375 13.157 7.375 12.8124C7.375 12.4678 7.65538 12.1874 8 12.1874C8.34462 12.1874 8.625 12.4678 8.625 12.8124C8.625 13.157 8.34462 13.4374 8 13.4374Z" fill="url(#paint0_linear_1501_9677)"/>
<path d="M14.5938 3.20834C13.8183 3.20834 13.1875 3.83919 13.1875 4.61459C13.1875 4.97919 13.327 5.31178 13.5554 5.56191L11.7603 7.07775L11.0885 4.00962C11.5875 3.79338 11.9375 3.29628 11.9375 2.71875C11.9375 1.94334 11.3067 1.3125 10.5312 1.3125C9.75584 1.3125 9.125 1.94334 9.125 2.71875C9.125 3.22031 9.38912 3.66109 9.78541 3.91006L8 6.489L6.21459 3.91009C6.61088 3.66109 6.875 3.22031 6.875 2.71875C6.875 1.94334 6.24416 1.3125 5.46875 1.3125C4.69334 1.3125 4.0625 1.94334 4.0625 2.71875C4.0625 3.29628 4.41253 3.79338 4.9115 4.00962L4.23966 7.07775L2.44456 5.56191C2.67297 5.31178 2.8125 4.97919 2.8125 4.61459C2.8125 3.83919 2.18166 3.20834 1.40625 3.20834C0.630844 3.20834 0 3.83919 0 4.61459C0 5.3595 0.582281 5.97062 1.31553 6.01759L2.00403 10.4151C5.98528 9.86138 10.0147 9.86138 13.9959 10.4151L14.6844 6.01759C15.4177 5.97062 16 5.3595 16 4.61459C16 3.83919 15.3692 3.20834 14.5938 3.20834ZM1.40625 5.08334C1.14778 5.08334 0.9375 4.87306 0.9375 4.61459C0.9375 4.35613 1.14778 4.14584 1.40625 4.14584C1.66472 4.14584 1.875 4.35613 1.875 4.61459C1.875 4.87306 1.66472 5.08334 1.40625 5.08334ZM5.46875 3.1875C5.21028 3.1875 5 2.97722 5 2.71875C5 2.46028 5.21028 2.25 5.46875 2.25C5.72722 2.25 5.9375 2.46028 5.9375 2.71875C5.9375 2.97722 5.72722 3.1875 5.46875 3.1875ZM10.5312 3.1875C10.2728 3.1875 10.0625 2.97722 10.0625 2.71875C10.0625 2.46028 10.2728 2.25 10.5312 2.25C10.7897 2.25 11 2.46028 11 2.71875C11 2.97722 10.7897 3.1875 10.5312 3.1875ZM14.5938 5.08334C14.3353 5.08334 14.125 4.87306 14.125 4.61459C14.125 4.35613 14.3353 4.14584 14.5938 4.14584C14.8522 4.14584 15.0625 4.35613 15.0625 4.61459C15.0625 4.87306 14.8522 5.08334 14.5938 5.08334Z" fill="url(#paint1_linear_1501_9677)"/>
<defs>
<linearGradient id="paint0_linear_1501_9677" x1="14.7187" y1="12.8122" x2="1.28125" y2="12.8122" gradientUnits="userSpaceOnUse">
<stop stop-color="#CC8605"/>
<stop offset="1" stop-color="#FFCE39"/>
</linearGradient>
<linearGradient id="paint1_linear_1501_9677" x1="16" y1="5.86378" x2="0" y2="5.86378" gradientUnits="userSpaceOnUse">
<stop stop-color="#CC8605"/>
<stop offset="1" stop-color="#FFCE39"/>
</linearGradient>
</defs>
</svg>
