<svg width="135" height="112" viewBox="0 0 135 112" fill="none" xmlns="http://www.w3.org/2000/svg">
<path d="M117.375 100.326C102.304 115.604 33.8844 115.155 20.8785 103.231C3.6234 87.4141 -7.67813 32.1423 8.49898 16.477C32.6602 -6.92025 119.05 -5.27293 131.012 20.611C138.459 36.6685 133.077 84.3913 117.377 100.329L117.375 100.326Z" fill="#00DAE8"/>
<g clip-path="url(#clip0_1285_11689)">
<path d="M68.0001 96.0002C90.0915 96.0002 108 78.0915 108 56.0001C108 33.9087 90.0915 16 68.0001 16C45.9087 16 28 33.9087 28 56.0001C28 78.0915 45.9087 96.0002 68.0001 96.0002Z" fill="white"/>
<path d="M108 56.0001C108 78.0002 89.9999 96.0002 67.9998 96.0002C55.2499 96.0002 43.9999 90.2502 36.7498 81.0002C43.4998 86.5002 52.2498 89.7503 61.7497 89.7503C83.7498 89.7503 101.75 71.7503 101.75 49.7502C101.75 40.2503 98.4998 31.5002 92.9998 24.7502C102.25 32 108 43.25 108 56.0001Z" fill="#F9FBFB"/>
<path d="M89.7501 44.4999L63.7501 73.0001C62.0001 75.0001 59.0002 75.0001 57.2501 73.0001L46.2501 60.7501C44.7501 59 44.7501 56.25 46.5 54.5C48.2501 53 51 53 52.7501 54.7499L60.5001 63.5L83.2501 38.75C85.0002 36.9999 87.7501 36.7499 89.5002 38.5C91.2501 39.9999 91.2501 43 89.7501 44.4999Z" fill="#00DAE8"/>
</g>
<defs>
<clipPath id="clip0_1285_11689">
<rect width="80" height="80" fill="white" transform="translate(28 16)"/>
</clipPath>
</defs>
</svg>
