<svg width="32" height="32" viewBox="0 0 32 32" fill="none" xmlns="http://www.w3.org/2000/svg">
<rect width="32" height="32" rx="8" fill="#007BFF"/>
<path fill-rule="evenodd" clip-rule="evenodd" d="M8 9V23C8 24.6569 9.34315 26 11 26H21C22.6569 26 24 24.6569 24 23V13C24 11.3431 22.6569 10 21 10H9C8.44772 10 8 9.55228 8 9ZM11.25 16C11.25 15.5858 11.5858 15.25 12 15.25H20C20.4142 15.25 20.75 15.5858 20.75 16C20.75 16.4142 20.4142 16.75 20 16.75H12C11.5858 16.75 11.25 16.4142 11.25 16ZM11.25 19.5C11.25 19.0858 11.5858 18.75 12 18.75H17.5C17.9142 18.75 18.25 19.0858 18.25 19.5C18.25 19.9142 17.9142 20.25 17.5 20.25H12C11.5858 20.25 11.25 19.9142 11.25 19.5Z" fill="white"/>
<path d="M8.40879 8.0871C8.75727 8.24338 9 8.59334 9 9H21C21.3453 9 21.6804 9.04375 22 9.12602V8.30604C22 7.08894 20.922 6.15402 19.7172 6.32614L8.91959 7.86865C8.72712 7.89615 8.55271 7.97374 8.40879 8.0871Z" fill="white"/>
</svg>
