<svg width="24" height="24" viewBox="0 0 24 24" fill="none" xmlns="http://www.w3.org/2000/svg">
<rect x="1.36133" y="1.64648" width="21.8887" height="20.8008" rx="5.25" fill="#00DAE8" stroke="#00DAE8" stroke-width="1.5"/>
<path d="M12.1987 7.47273C13.2387 7.47273 14.0537 7.69773 14.6437 8.14773C15.2437 8.58773 15.5437 9.21273 15.5437 10.0227C15.5437 10.3927 15.4737 10.7127 15.3337 10.9827C15.1937 11.2527 15.0137 11.4777 14.7937 11.6577C14.5837 11.8277 14.3787 11.9477 14.1787 12.0177C14.4487 12.1077 14.7037 12.2477 14.9437 12.4377C15.1937 12.6277 15.3937 12.8727 15.5437 13.1727C15.7037 13.4727 15.7837 13.8377 15.7837 14.2677C15.7837 14.8577 15.6287 15.3577 15.3187 15.7677C15.0187 16.1677 14.6037 16.4727 14.0737 16.6827C13.5437 16.8927 12.9287 16.9977 12.2287 16.9977C11.6087 16.9977 11.0787 16.9377 10.6387 16.8177C10.1987 16.6977 9.85873 16.5377 9.61873 16.3377C9.37873 16.1277 9.25873 15.8977 9.25873 15.6477C9.25873 15.4477 9.30873 15.2727 9.40873 15.1227C9.50873 14.9727 9.63373 14.8577 9.78373 14.7777C10.0137 14.9377 10.3087 15.0977 10.6687 15.2577C11.0287 15.4177 11.4937 15.4977 12.0637 15.4977C12.6437 15.4977 13.0987 15.3827 13.4287 15.1527C13.7687 14.9127 13.9387 14.5727 13.9387 14.1327C13.9387 13.7327 13.7887 13.4177 13.4887 13.1877C13.1987 12.9477 12.7537 12.8277 12.1537 12.8277H10.8337C10.7737 12.7477 10.7237 12.6477 10.6837 12.5277C10.6437 12.3977 10.6237 12.2527 10.6237 12.0927C10.6237 11.9327 10.6437 11.7877 10.6837 11.6577C10.7237 11.5277 10.7737 11.4227 10.8337 11.3427H12.0937C12.6637 11.3427 13.0687 11.2377 13.3087 11.0277C13.5587 10.8177 13.6837 10.5327 13.6837 10.1727C13.6837 9.79273 13.5337 9.49773 13.2337 9.28773C12.9437 9.07773 12.5237 8.97273 11.9737 8.97273C11.5337 8.97273 11.1437 9.03273 10.8037 9.15273C10.4637 9.27273 10.1837 9.41273 9.96373 9.57273C9.83373 9.49273 9.71873 9.38273 9.61873 9.24273C9.52873 9.09273 9.48373 8.92773 9.48373 8.74773C9.48373 8.48773 9.59873 8.26773 9.82873 8.08773C10.0587 7.89773 10.3787 7.74773 10.7887 7.63773C11.1987 7.52773 11.6687 7.47273 12.1987 7.47273Z" fill="white"/>
</svg>
