<svg width="24" height="25" viewBox="0 0 24 25" fill="none" xmlns="http://www.w3.org/2000/svg">
<path d="M14.005 4.5H9.99502C6.21439 4.5 4.32407 4.5 3.14958 5.67157C2.34091 6.47823 2.08903 7.62339 2.01058 9.48947C1.99502 9.85954 1.98724 10.0446 2.05634 10.168C2.12545 10.2915 2.40133 10.4455 2.95308 10.7537C3.56586 11.0959 3.98007 11.7497 3.98007 12.5C3.98007 13.2503 3.56586 13.9041 2.95308 14.2463C2.40133 14.5545 2.12545 14.7085 2.05634 14.832C1.98724 14.9554 1.99502 15.1405 2.01058 15.5105C2.08903 17.3766 2.34091 18.5218 3.14958 19.3284C4.32407 20.5 6.21439 20.5 9.99502 20.5H14.005C17.7856 20.5 19.6759 20.5 20.8504 19.3284C21.6591 18.5218 21.911 17.3766 21.9894 15.5105C22.005 15.1405 22.0128 14.9554 21.9437 14.832C21.8746 14.7085 21.5987 14.5545 21.0469 14.2463C20.4341 13.9041 20.0199 13.2503 20.0199 12.5C20.0199 11.7497 20.4341 11.0959 21.0469 10.7537C21.5987 10.4455 21.8746 10.2915 21.9437 10.168C22.0128 10.0446 22.005 9.85954 21.9894 9.48947C21.911 7.62339 21.6591 6.47823 20.8504 5.67157C19.6759 4.5 17.7856 4.5 14.005 4.5Z" stroke="#299E47" stroke-width="1.5"/>
<path d="M9 15.5L15 9.5" stroke="#299E47" stroke-width="1.5" stroke-linecap="round"/>
<path d="M15.5 15C15.5 15.5523 15.0523 16 14.5 16C13.9477 16 13.5 15.5523 13.5 15C13.5 14.4477 13.9477 14 14.5 14C15.0523 14 15.5 14.4477 15.5 15Z" fill="#299E47"/>
<path d="M10.5 10C10.5 10.5523 10.0523 11 9.5 11C8.94772 11 8.5 10.5523 8.5 10C8.5 9.44772 8.94772 9 9.5 9C10.0523 9 10.5 9.44772 10.5 10Z" fill="#299E47"/>
</svg>
