<svg width="32" height="32" viewBox="0 0 32 32" fill="none" xmlns="http://www.w3.org/2000/svg">
<rect width="32" height="32" rx="8" fill="#FF3B30"/>
<path d="M7 10.386C7 9.90152 7.34538 9.50879 7.77143 9.50879L10.4357 9.50832C10.965 9.49306 11.432 9.11033 11.6121 8.54412C11.6169 8.52923 11.6223 8.51087 11.6419 8.44424L11.7567 8.05256C11.8269 7.81241 11.8881 7.60318 11.9737 7.41617C12.3121 6.67736 12.9381 6.16432 13.6615 6.03297C13.8446 5.99972 14.0385 5.99986 14.2611 6.00002H17.7391C17.9617 5.99986 18.1556 5.99972 18.3387 6.03297C19.0621 6.16432 19.6881 6.67736 20.0264 7.41617C20.1121 7.60318 20.1733 7.81241 20.2435 8.05256L20.3583 8.44424C20.3778 8.51087 20.3833 8.52923 20.388 8.54412C20.5682 9.11033 21.1278 9.49353 21.6571 9.50879H24.2286C24.6546 9.50879 25 9.90152 25 10.386C25 10.8704 24.6546 11.2632 24.2286 11.2632H7.77143C7.34538 11.2632 7 10.8704 7 10.386Z" fill="white"/>
<path fill-rule="evenodd" clip-rule="evenodd" d="M15.5956 26.0001H16.4044C19.1871 26.0001 20.5785 26.0001 21.4831 25.1142C22.3878 24.2283 22.4803 22.7751 22.6654 19.8686L22.9321 15.6807C23.0326 14.1037 23.0828 13.3152 22.6289 12.8156C22.1751 12.3159 21.4087 12.3159 19.876 12.3159H12.124C10.5913 12.3159 9.82488 12.3159 9.37105 12.8156C8.91722 13.3152 8.96744 14.1037 9.06788 15.6807L9.33459 19.8686C9.5197 22.7751 9.61225 24.2283 10.5169 25.1142C11.4215 26.0001 12.8129 26.0001 15.5956 26.0001ZM14.2463 16.1886C14.2051 15.7548 13.8375 15.4382 13.4254 15.4816C13.0132 15.525 12.7125 15.9119 12.7537 16.3457L13.2537 21.6089C13.2949 22.0427 13.6625 22.3593 14.0746 22.3159C14.4868 22.2725 14.7875 21.8856 14.7463 21.4518L14.2463 16.1886ZM18.5746 15.4816C18.9868 15.525 19.2875 15.9119 19.2463 16.3457L18.7463 21.6089C18.7051 22.0427 18.3375 22.3593 17.9254 22.3159C17.5132 22.2725 17.2125 21.8856 17.2537 21.4518L17.7537 16.1886C17.7949 15.7548 18.1625 15.4382 18.5746 15.4816Z" fill="white"/>
</svg>
