<svg width="28" height="29" viewBox="0 0 28 29" fill="none" xmlns="http://www.w3.org/2000/svg">
<rect x="2.33337" y="2.25" width="23.3333" height="23.3333" rx="5" fill="#949D9E"/>
<path d="M8.16675 10.2779C8.16675 9.96394 8.39061 9.70939 8.66675 9.70939L10.3936 9.70909C10.7367 9.6992 11.0394 9.45114 11.1561 9.08415C11.1592 9.0745 11.1627 9.06259 11.1754 9.01941L11.2498 8.76554C11.2953 8.60989 11.335 8.47428 11.3905 8.35307C11.6098 7.87421 12.0155 7.54168 12.4844 7.45655C12.603 7.435 12.7287 7.43509 12.873 7.4352H15.1273C15.2715 7.43509 15.3972 7.435 15.5159 7.45655C15.9848 7.54168 16.3905 7.87421 16.6098 8.35307C16.6653 8.47428 16.705 8.60989 16.7505 8.76554L16.8249 9.01941C16.8376 9.06259 16.8411 9.0745 16.8442 9.08415C16.9609 9.45114 17.3236 9.69951 17.6667 9.70939H19.3334C19.6096 9.70939 19.8334 9.96394 19.8334 10.2779C19.8334 10.5919 19.6096 10.8465 19.3334 10.8465H8.66675C8.39061 10.8465 8.16675 10.5919 8.16675 10.2779Z" fill="white"/>
<path fill-rule="evenodd" clip-rule="evenodd" d="M13.738 20.3982H14.2622C16.0658 20.3982 16.9676 20.3982 17.5539 19.824C18.1403 19.2498 18.2003 18.3079 18.3203 16.4241L18.4931 13.7097C18.5582 12.6876 18.5908 12.1765 18.2966 11.8527C18.0025 11.5288 17.5057 11.5288 16.5123 11.5288H11.4879C10.4944 11.5288 9.99769 11.5288 9.70354 11.8527C9.40939 12.1765 9.44194 12.6876 9.50704 13.7097L9.67991 16.4241C9.79988 18.3079 9.85987 19.2498 10.4462 19.824C11.0326 20.3982 11.9344 20.3982 13.738 20.3982ZM12.8634 14.0389C12.8367 13.7577 12.5985 13.5525 12.3313 13.5807C12.0642 13.6088 11.8693 13.8595 11.896 14.1407L12.2201 17.552C12.2468 17.8332 12.485 18.0384 12.7522 18.0103C13.0193 17.9822 13.2142 17.7314 13.1875 17.4502L12.8634 14.0389ZM15.6688 13.5807C15.936 13.6088 16.1309 13.8595 16.1041 14.1407L15.7801 17.552C15.7534 17.8332 15.5151 18.0384 15.248 18.0103C14.9809 17.9822 14.786 17.7314 14.8127 17.4502L15.1368 14.0389C15.1635 13.7577 15.4017 13.5525 15.6688 13.5807Z" fill="white"/>
</svg>
