<svg width="24" height="24" viewBox="0 0 24 24" fill="none" xmlns="http://www.w3.org/2000/svg">
<rect x="1.36133" y="2.0957" width="21.8887" height="20.8008" rx="5.25" fill="#00DAE8" stroke="#00DAE8" stroke-width="1.5"/>
<path d="M9.5907 8.35851C9.5907 8.09852 9.7057 7.86852 9.9357 7.66851C10.1657 7.46851 10.4757 7.31352 10.8657 7.20352C11.2657 7.09352 11.7207 7.03851 12.2307 7.03851C12.9407 7.03851 13.5407 7.15351 14.0307 7.38351C14.5307 7.60352 14.9107 7.91852 15.1707 8.32852C15.4307 8.72852 15.5607 9.19352 15.5607 9.72352C15.5607 10.2635 15.4107 10.7935 15.1107 11.3135C14.8107 11.8235 14.3207 12.3685 13.6407 12.9485L11.4357 14.8835H15.4707C15.5207 14.9535 15.5657 15.0535 15.6057 15.1835C15.6557 15.3135 15.6807 15.4535 15.6807 15.6035C15.6807 15.8635 15.6157 16.0535 15.4857 16.1735C15.3657 16.2935 15.2107 16.3535 15.0207 16.3535H9.7707C9.6107 16.2435 9.4857 16.1035 9.3957 15.9335C9.3157 15.7635 9.2757 15.5735 9.2757 15.3635C9.2757 15.1135 9.3257 14.9035 9.4257 14.7335C9.5257 14.5535 9.6457 14.3985 9.7857 14.2685L12.1707 12.0785C12.7507 11.5685 13.1457 11.1485 13.3557 10.8185C13.5657 10.4785 13.6707 10.1435 13.6707 9.81352C13.6707 9.43352 13.5307 9.12852 13.2507 8.89852C12.9807 8.65852 12.5807 8.53852 12.0507 8.53852C11.6307 8.53852 11.2557 8.60852 10.9257 8.74852C10.5957 8.88852 10.3207 9.03352 10.1007 9.18352C9.9607 9.10352 9.8407 8.99352 9.7407 8.85352C9.6407 8.71352 9.5907 8.54852 9.5907 8.35851Z" fill="white"/>
</svg>
