<svg width="25" height="25" viewBox="0 0 25 25" fill="none" xmlns="http://www.w3.org/2000/svg">
<circle cx="9.50122" cy="6.5" r="4" fill="#8E8E93"/>
<ellipse cx="9.50122" cy="17.501" rx="7" ry="4" fill="#4D4D4D"/>
<path d="M21.4999 17.5005C21.4999 19.1573 19.4643 20.5004 16.979 20.5004C17.7112 19.7001 18.2147 18.6955 18.2147 17.5018C18.2147 16.3068 17.7101 15.3013 16.9765 14.5005C19.4618 14.5005 21.4999 15.8436 21.4999 17.5005Z" fill="#4D4D4D"/>
<path d="M18.4999 6.50073C18.4999 8.15759 17.1567 9.50073 15.4999 9.50073C15.1386 9.50073 14.7922 9.43687 14.4714 9.31981C14.9445 8.48772 15.2147 7.52522 15.2147 6.49962C15.2147 5.47477 14.9449 4.51294 14.4725 3.68127C14.793 3.56446 15.139 3.50073 15.4999 3.50073C17.1567 3.50073 18.4999 4.84388 18.4999 6.50073Z" fill="#4D4D4D"/>
</svg>
