<svg width="24" height="25" viewBox="0 0 24 25" fill="none" xmlns="http://www.w3.org/2000/svg">
<circle cx="9.00122" cy="6.5" r="4" fill="#8E8E93"/>
<ellipse cx="9.00122" cy="17.501" rx="7" ry="4" fill="#4D4D4D"/>
<path d="M20.9999 17.5005C20.9999 19.1573 18.9643 20.5004 16.479 20.5004C17.2112 19.7001 17.7147 18.6955 17.7147 17.5018C17.7147 16.3068 17.2101 15.3013 16.4765 14.5005C18.9618 14.5005 20.9999 15.8436 20.9999 17.5005Z" fill="#4D4D4D"/>
<path d="M17.9999 6.50073C17.9999 8.15759 16.6567 9.50073 14.9999 9.50073C14.6386 9.50073 14.2922 9.43687 13.9714 9.31981C14.4445 8.48772 14.7147 7.52522 14.7147 6.49962C14.7147 5.47477 14.4449 4.51294 13.9725 3.68127C14.293 3.56446 14.639 3.50073 14.9999 3.50073C16.6567 3.50073 17.9999 4.84388 17.9999 6.50073Z" fill="#4D4D4D"/>
</svg>
