<svg width="26" height="24" viewBox="0 0 26 24" fill="none" xmlns="http://www.w3.org/2000/svg">
<path d="M2.06257 3.47279C2.22417 4.09226 2.87123 4.45981 3.50778 4.29375C4.14436 4.12768 4.52941 3.49089 4.36781 2.87141C4.2062 2.25194 3.55915 1.88438 2.92256 2.05045C2.28601 2.21651 1.90097 2.85331 2.06257 3.47279Z" fill="url(#paint0_linear_4044_374)"/>
<path d="M2.06257 3.47279C2.22417 4.09226 2.87123 4.45981 3.50778 4.29375C4.14436 4.12768 4.52941 3.49089 4.36781 2.87141C4.2062 2.25194 3.55915 1.88438 2.92256 2.05045C2.28601 2.21651 1.90097 2.85331 2.06257 3.47279Z" fill="url(#paint1_radial_4044_374)"/>
<path d="M2.06257 3.47279C2.22417 4.09226 2.87123 4.45981 3.50778 4.29375C4.14436 4.12768 4.52941 3.49089 4.36781 2.87141C4.2062 2.25194 3.55915 1.88438 2.92256 2.05045C2.28601 2.21651 1.90097 2.85331 2.06257 3.47279Z" fill="url(#paint2_radial_4044_374)"/>
<path d="M4.18629 3.17688C4.02227 3.35493 3.64937 3.28797 3.35533 3.02846C3.06128 2.76896 2.95668 2.41367 3.12117 2.23743C3.28519 2.05938 3.65809 2.12635 3.95213 2.38585C4.24619 2.64535 4.35032 2.99883 4.18629 3.17688Z" fill="url(#paint3_radial_4044_374)"/>
<path d="M2.06257 3.47279C2.22417 4.09226 2.87123 4.45981 3.50778 4.29375C4.14436 4.12768 4.52941 3.49089 4.36781 2.87141C4.2062 2.25194 3.55915 1.88438 2.92256 2.05045C2.28601 2.21651 1.90097 2.85331 2.06257 3.47279Z" fill="url(#paint4_radial_4044_374)"/>
<path d="M2.51375 2.97012C2.59211 2.65405 2.95488 2.12659 3.61158 2.07121C3.39636 1.99982 3.15908 1.9883 2.92295 2.0499C2.28718 2.21575 1.90155 2.85351 2.06296 3.47224C2.13564 3.75084 2.30629 3.97877 2.53015 4.12905C2.69926 3.68883 2.36797 3.55304 2.51375 2.97012Z" fill="url(#paint5_linear_4044_374)"/>
<path d="M4.37549 2.90771C4.37788 2.92448 4.38026 2.94125 4.38032 2.95669C4.37997 2.98577 4.37403 3.0163 4.36715 3.04321C4.35015 3.09982 4.32058 3.15391 4.28586 3.20354C4.21411 3.30148 4.12184 3.38159 4.02255 3.45C3.97383 3.48396 3.9209 3.51709 3.86845 3.5443C3.81646 3.57332 3.76164 3.59922 3.70638 3.62329C3.65109 3.64738 3.59489 3.66784 3.5368 3.68879C3.48013 3.70744 3.4211 3.72477 3.36395 3.74161C3.30634 3.75664 3.24636 3.77035 3.18733 3.77996C3.12826 3.78957 3.06738 3.79965 3.00737 3.80565C2.94739 3.81163 2.88644 3.81401 2.82737 3.81589C2.76598 3.81645 2.70593 3.81472 2.64683 3.80889C2.52678 3.79769 2.40713 3.77287 2.29669 3.72246C2.24214 3.69611 2.19039 3.66517 2.14744 3.62227C2.12596 3.60083 2.1082 3.57841 2.09367 3.55322C2.08571 3.5379 2.07823 3.5244 2.07398 3.50811C2.20943 3.9056 2.79773 4.098 3.41492 3.93699C4.03212 3.77599 4.45146 3.32072 4.37549 2.90771Z" fill="url(#paint6_radial_4044_374)"/>
<path d="M2.43991 6.5658C2.62501 7.27533 3.36612 7.69631 4.09521 7.50611C4.82434 7.3159 5.26536 6.58653 5.08026 5.877C4.89517 5.16747 4.15405 4.74648 3.42492 4.93669C2.69583 5.12689 2.25481 5.85627 2.43991 6.5658Z" fill="url(#paint7_linear_4044_374)"/>
<path d="M2.43991 6.5658C2.62501 7.27533 3.36612 7.69631 4.09521 7.50611C4.82434 7.3159 5.26536 6.58653 5.08026 5.877C4.89517 5.16747 4.15405 4.74648 3.42492 4.93669C2.69583 5.12689 2.25481 5.85627 2.43991 6.5658Z" fill="url(#paint8_radial_4044_374)"/>
<path d="M2.43991 6.5658C2.62501 7.27533 3.36612 7.69631 4.09521 7.50611C4.82434 7.3159 5.26536 6.58653 5.08026 5.877C4.89517 5.16747 4.15405 4.74648 3.42492 4.93669C2.69583 5.12689 2.25481 5.85627 2.43991 6.5658Z" fill="url(#paint9_radial_4044_374)"/>
<path d="M4.87188 6.22716C4.68402 6.43109 4.2569 6.35439 3.92011 6.05716C3.58332 5.75994 3.46351 5.35299 3.65192 5.15114C3.83978 4.94721 4.26689 5.0239 4.60368 5.32113C4.94049 5.61835 5.05976 6.02323 4.87188 6.22716Z" fill="url(#paint10_radial_4044_374)"/>
<path d="M2.43991 6.5658C2.62501 7.27533 3.36612 7.69631 4.09521 7.50611C4.82434 7.3159 5.26536 6.58653 5.08026 5.877C4.89517 5.16747 4.15405 4.74648 3.42492 4.93669C2.69583 5.12689 2.25481 5.85627 2.43991 6.5658Z" fill="url(#paint11_radial_4044_374)"/>
<path d="M2.95651 5.99021C3.04626 5.62819 3.46176 5.02405 4.21393 4.96062C3.96742 4.87886 3.69565 4.86566 3.4252 4.93621C2.697 5.12618 2.25531 5.85665 2.44019 6.56532C2.52343 6.88443 2.71889 7.14549 2.97529 7.31762C3.16899 6.8134 2.78953 6.65787 2.95651 5.99021Z" fill="url(#paint12_linear_4044_374)"/>
<path d="M5.08838 5.9187C5.09112 5.93791 5.09385 5.95711 5.09392 5.9748C5.09351 6.0081 5.08671 6.04307 5.07883 6.0739C5.05936 6.13873 5.02549 6.20068 4.98572 6.25753C4.90355 6.36971 4.79786 6.46146 4.68413 6.53982C4.62834 6.57872 4.56771 6.61667 4.50763 6.64783C4.44808 6.68107 4.38529 6.71073 4.322 6.73831C4.25868 6.76589 4.19431 6.78932 4.12777 6.81332C4.06286 6.83468 3.99525 6.85453 3.92979 6.87382C3.8638 6.89103 3.79511 6.90674 3.72749 6.91774C3.65984 6.92875 3.5901 6.9403 3.52137 6.94717C3.45267 6.95403 3.38286 6.95675 3.31521 6.9589C3.24489 6.95954 3.17612 6.95757 3.10843 6.95088C2.97092 6.93806 2.83388 6.90963 2.70738 6.85189C2.6449 6.82171 2.58563 6.78627 2.53643 6.73714C2.51184 6.71257 2.49149 6.6869 2.47485 6.65804C2.46573 6.6405 2.45716 6.62503 2.4523 6.60638C2.60744 7.06165 3.28126 7.28203 3.98818 7.09761C4.69509 6.91319 5.17539 6.39174 5.08838 5.9187Z" fill="url(#paint13_radial_4044_374)"/>
<path d="M5.29358 4.24722C5.52681 5.14126 6.46065 5.67171 7.37933 5.43205C8.29807 5.19238 8.85377 4.27334 8.62054 3.3793C8.38731 2.48526 7.45347 1.95479 6.53473 2.19446C5.61605 2.43412 5.06034 3.35317 5.29358 4.24722Z" fill="url(#paint14_linear_4044_374)"/>
<path d="M5.29358 4.24722C5.52681 5.14126 6.46065 5.67171 7.37933 5.43205C8.29807 5.19238 8.85377 4.27334 8.62054 3.3793C8.38731 2.48526 7.45347 1.95479 6.53473 2.19446C5.61605 2.43412 5.06034 3.35317 5.29358 4.24722Z" fill="url(#paint15_radial_4044_374)"/>
<path d="M5.29358 4.24722C5.52681 5.14126 6.46065 5.67171 7.37933 5.43205C8.29807 5.19238 8.85377 4.27334 8.62054 3.3793C8.38731 2.48526 7.45347 1.95479 6.53473 2.19446C5.61605 2.43412 5.06034 3.35317 5.29358 4.24722Z" fill="url(#paint16_radial_4044_374)"/>
<path d="M8.35802 3.82125C8.1213 4.07821 7.58312 3.98157 7.15875 3.60705C6.73438 3.23253 6.58341 2.71976 6.82081 2.46541C7.05753 2.20845 7.59571 2.3051 8.02008 2.67961C8.44447 3.05413 8.59476 3.56429 8.35802 3.82125Z" fill="url(#paint17_radial_4044_374)"/>
<path d="M5.29358 4.24722C5.52681 5.14126 6.46065 5.67171 7.37933 5.43205C8.29807 5.19238 8.85377 4.27334 8.62054 3.3793C8.38731 2.48526 7.45347 1.95479 6.53473 2.19446C5.61605 2.43412 5.06034 3.35317 5.29358 4.24722Z" fill="url(#paint18_radial_4044_374)"/>
<path d="M5.94492 3.522C6.05801 3.06583 6.58156 2.30459 7.52933 2.22467C7.21872 2.12164 6.87628 2.10501 6.53549 2.19391C5.61793 2.43328 5.06138 3.35371 5.29433 4.24667C5.39922 4.64876 5.64551 4.9777 5.96858 5.1946C6.21266 4.55925 5.73452 4.36329 5.94492 3.522Z" fill="url(#paint19_linear_4044_374)"/>
<path d="M8.63135 3.43262C8.6348 3.45682 8.63824 3.48101 8.63833 3.5033C8.63781 3.54526 8.62925 3.58933 8.61932 3.62817C8.59478 3.70987 8.55211 3.78793 8.50199 3.85956C8.39845 4.00091 8.26528 4.11652 8.12198 4.21525C8.05167 4.26427 7.97528 4.31209 7.89957 4.35136C7.82454 4.39324 7.74543 4.43061 7.66568 4.46536C7.58588 4.50012 7.50477 4.52964 7.42094 4.55988C7.33915 4.5868 7.25395 4.61181 7.17148 4.63611C7.08832 4.6578 7.00177 4.6776 6.91657 4.69146C6.83132 4.70533 6.74345 4.71988 6.65684 4.72854C6.57028 4.73717 6.48231 4.7406 6.39707 4.74332C6.30846 4.74412 6.22181 4.74163 6.13652 4.73321C5.96325 4.71706 5.79057 4.68123 5.63118 4.60848C5.55245 4.57045 5.47776 4.5258 5.41578 4.46389C5.38478 4.43293 5.35914 4.40058 5.33817 4.36422C5.32669 4.34212 5.31589 4.32263 5.30976 4.29913C5.50525 4.87279 6.35429 5.15047 7.24504 4.9181C8.13579 4.68572 8.74099 4.02867 8.63135 3.43262Z" fill="url(#paint20_radial_4044_374)"/>
<path d="M22.6509 6.48077C17.406 1.23793 12.5936 1.57046 10.6329 3.28869C9.08236 4.64741 9.15582 7.59625 7.74077 9.09551C6.71979 8.57984 5.70755 8.44818 4.76059 8.55364C1.18803 8.95149 -0.514879 13.3999 1.28705 16.5103C2.62222 18.815 4.73574 20.3425 6.34306 21.4413C10.0098 23.9479 12.9165 23.9999 14.3675 23.9999C17.546 23.9999 32.591 16.417 22.6509 6.48077Z" fill="#005C77"/>
<g clip-path="url(#clip0_4044_374)">
<path d="M14.01 14H12.99C10.34 14 7.8 14.72 5.93 15.99C4.06 17.26 3 18.98 3 20.78V21.2C3 21.68 3.28 22.13 3.78 22.47C4.28 22.81 4.95 23 5.65 23H21.35C22.05 23 22.73 22.81 23.22 22.47C23.72 22.13 24 21.68 24 21.2V20.78C24 18.98 22.94 17.26 21.07 15.99C19.2 14.72 16.66 14 14.01 14Z" fill="#00DAE8"/>
<path d="M23.2198 22.47C23.7198 22.13 23.9998 21.68 23.9998 21.2V20.78C23.9998 18.98 22.9398 17.26 21.0698 15.99C19.1998 14.72 16.6598 14 14.0098 14C14.0098 14 24.0098 18.08 22.2198 22.9C22.3698 22.86 22.5698 22.81 22.7598 22.73C22.9598 22.65 23.0998 22.56 23.2298 22.47H23.2198Z" fill="#00737A" fill-opacity="0.4"/>
<path d="M13.5 12C15.99 12 18 9.99 18 7.5C18 5.01 15.99 3 13.5 3C11.01 3 9 5.01 9 7.5C9 9.99 11.01 12 13.5 12Z" fill="#00DAE8"/>
<path d="M13.5 12C15.99 12 18 9.99 18 7.5C18 5.01 15.99 3 13.5 3C15.39 3.82 16.58 5.71 16.49 7.72C16.41 9.58 15.24 11.25 13.5 12Z" fill="#00737A" fill-opacity="0.4"/>
<path d="M10.5625 18H16.9375C17.245 18 17.5 18.34 17.5 18.75C17.5 19.16 17.245 19.5 16.9375 19.5H10.5625C10.255 19.5 10 19.16 10 18.75C10 18.34 10.255 18 10.5625 18Z" fill="white"/>
</g>
<defs>
<linearGradient id="paint0_linear_4044_374" x1="4.57166" y1="1.75271" x2="-0.772511" y2="7.62386" gradientUnits="userSpaceOnUse">
<stop stop-color="#003C61" stop-opacity="0"/>
<stop offset="1" stop-color="#003C61" stop-opacity="0.7"/>
</linearGradient>
<radialGradient id="paint1_radial_4044_374" cx="0" cy="0" r="1" gradientUnits="userSpaceOnUse" gradientTransform="translate(4.1251 2.60729) rotate(75.379) scale(2.71387 2.78878)">
<stop offset="0.5839" stop-color="#003C61" stop-opacity="0"/>
<stop offset="0.6244" stop-color="#003C61" stop-opacity="0.0730316"/>
<stop offset="0.6809" stop-color="#003C61" stop-opacity="0.1749"/>
<stop offset="0.7469" stop-color="#003C61" stop-opacity="0.2938"/>
<stop offset="0.82" stop-color="#003C61" stop-opacity="0.4256"/>
<stop offset="0.899" stop-color="#003C61" stop-opacity="0.568"/>
<stop offset="0.9818" stop-color="#003C61" stop-opacity="0.7172"/>
<stop offset="1" stop-color="#003C61" stop-opacity="0.75"/>
</radialGradient>
<radialGradient id="paint2_radial_4044_374" cx="0" cy="0" r="1" gradientUnits="userSpaceOnUse" gradientTransform="translate(3.25518 3.40199) rotate(75.379) scale(3.01356 3.09676)">
<stop stop-color="#003C61" stop-opacity="0.2"/>
<stop offset="0.1913" stop-color="#003C61" stop-opacity="0.64"/>
<stop offset="0.458" stop-color="#003C61" stop-opacity="0.74"/>
<stop offset="0.7676" stop-color="#003C61" stop-opacity="0.88"/>
<stop offset="1" stop-color="#003C61" stop-opacity="0.85"/>
</radialGradient>
<radialGradient id="paint3_radial_4044_374" cx="0" cy="0" r="1" gradientUnits="userSpaceOnUse" gradientTransform="translate(3.65463 2.70742) rotate(41.4093) scale(0.588582 0.395486)">
<stop stop-color="white"/>
<stop offset="1" stop-color="white" stop-opacity="0"/>
</radialGradient>
<radialGradient id="paint4_radial_4044_374" cx="0" cy="0" r="1" gradientUnits="userSpaceOnUse" gradientTransform="translate(3.25518 3.40199) rotate(75.379) scale(3.01356 3.09676)">
<stop stop-color="#003C61" stop-opacity="0"/>
<stop offset="0.1913" stop-color="#003C61" stop-opacity="0.1435"/>
<stop offset="0.458" stop-color="#003C61" stop-opacity="0.3435"/>
<stop offset="0.7676" stop-color="#003C61" stop-opacity="0.5757"/>
<stop offset="1" stop-color="#003C61" stop-opacity="0.75"/>
</radialGradient>
<linearGradient id="paint5_linear_4044_374" x1="3.53821" y1="3.14484" x2="0.879149" y2="2.77177" gradientUnits="userSpaceOnUse">
<stop stop-color="#003C61" stop-opacity="0"/>
<stop offset="1" stop-color="#003C61" stop-opacity="0.75"/>
</linearGradient>
<radialGradient id="paint6_radial_4044_374" cx="0" cy="0" r="1" gradientUnits="userSpaceOnUse" gradientTransform="translate(3.93486 3.57497) rotate(73.8968) scale(0.860809 0.370365)">
<stop stop-color="white"/>
<stop offset="1" stop-color="white" stop-opacity="0"/>
</radialGradient>
<linearGradient id="paint7_linear_4044_374" x1="5.31375" y1="4.59566" x2="-0.807314" y2="11.3203" gradientUnits="userSpaceOnUse">
<stop stop-color="#003C61" stop-opacity="0"/>
<stop offset="1" stop-color="#003C61" stop-opacity="0.7"/>
</linearGradient>
<radialGradient id="paint8_radial_4044_374" cx="0" cy="0" r="1" gradientUnits="userSpaceOnUse" gradientTransform="translate(4.80227 5.57449) rotate(75.379) scale(3.10839 3.1942)">
<stop offset="0.5839" stop-color="#003C61" stop-opacity="0"/>
<stop offset="0.6244" stop-color="#003C61" stop-opacity="0.0730316"/>
<stop offset="0.6809" stop-color="#003C61" stop-opacity="0.1749"/>
<stop offset="0.7469" stop-color="#003C61" stop-opacity="0.2938"/>
<stop offset="0.82" stop-color="#003C61" stop-opacity="0.4256"/>
<stop offset="0.899" stop-color="#003C61" stop-opacity="0.568"/>
<stop offset="0.9818" stop-color="#003C61" stop-opacity="0.7172"/>
<stop offset="1" stop-color="#003C61" stop-opacity="0.75"/>
</radialGradient>
<radialGradient id="paint9_radial_4044_374" cx="0" cy="0" r="1" gradientUnits="userSpaceOnUse" gradientTransform="translate(3.8048 6.48548) rotate(75.379) scale(3.45168 3.54696)">
<stop stop-color="#003C61" stop-opacity="0"/>
<stop offset="0.1913" stop-color="#003C61" stop-opacity="0.1435"/>
<stop offset="0.458" stop-color="#003C61" stop-opacity="0.3435"/>
<stop offset="0.7676" stop-color="#003C61" stop-opacity="0.5757"/>
<stop offset="1" stop-color="#003C61" stop-opacity="0.75"/>
</radialGradient>
<radialGradient id="paint10_radial_4044_374" cx="0" cy="0" r="1" gradientUnits="userSpaceOnUse" gradientTransform="translate(4.26293 5.68945) rotate(41.4093) scale(0.674146 0.452978)">
<stop stop-color="white"/>
<stop offset="1" stop-color="white" stop-opacity="0"/>
</radialGradient>
<radialGradient id="paint11_radial_4044_374" cx="0" cy="0" r="1" gradientUnits="userSpaceOnUse" gradientTransform="translate(3.80589 6.48471) rotate(75.379) scale(3.45165 3.54695)">
<stop stop-color="#003C61" stop-opacity="0.2"/>
<stop offset="0.1913" stop-color="#003C61" stop-opacity="0.64"/>
<stop offset="0.458" stop-color="#003C61" stop-opacity="0.74"/>
<stop offset="0.7676" stop-color="#003C61" stop-opacity="0.88"/>
<stop offset="1" stop-color="#003C61" stop-opacity="0.85"/>
</radialGradient>
<linearGradient id="paint12_linear_4044_374" x1="4.12989" y1="6.19033" x2="1.08428" y2="5.76302" gradientUnits="userSpaceOnUse">
<stop stop-color="#003C61" stop-opacity="0"/>
<stop offset="1" stop-color="#003C61" stop-opacity="0.75"/>
</linearGradient>
<radialGradient id="paint13_radial_4044_374" cx="0" cy="0" r="1" gradientUnits="userSpaceOnUse" gradientTransform="translate(4.58369 6.68296) rotate(73.8968) scale(0.985947 0.424206)">
<stop stop-color="white"/>
<stop offset="1" stop-color="white" stop-opacity="0"/>
</radialGradient>
<linearGradient id="paint14_linear_4044_374" x1="8.91475" y1="1.76476" x2="1.20192" y2="10.2381" gradientUnits="userSpaceOnUse">
<stop stop-color="#003C61" stop-opacity="0"/>
<stop offset="1" stop-color="#003C61" stop-opacity="0.7"/>
</linearGradient>
<radialGradient id="paint15_radial_4044_374" cx="0" cy="0" r="1" gradientUnits="userSpaceOnUse" gradientTransform="translate(8.27026 2.99812) rotate(75.379) scale(3.91672 4.02483)">
<stop offset="0.5839" stop-color="#003C61" stop-opacity="0"/>
<stop offset="0.6244" stop-color="#003C61" stop-opacity="0.0730316"/>
<stop offset="0.6809" stop-color="#003C61" stop-opacity="0.1749"/>
<stop offset="0.7469" stop-color="#003C61" stop-opacity="0.2938"/>
<stop offset="0.82" stop-color="#003C61" stop-opacity="0.4256"/>
<stop offset="0.899" stop-color="#003C61" stop-opacity="0.568"/>
<stop offset="0.9818" stop-color="#003C61" stop-opacity="0.7172"/>
<stop offset="1" stop-color="#003C61" stop-opacity="0.75"/>
</radialGradient>
<radialGradient id="paint16_radial_4044_374" cx="0" cy="0" r="1" gradientUnits="userSpaceOnUse" gradientTransform="translate(7.01478 4.14504) rotate(75.379) scale(4.34924 4.46932)">
<stop stop-color="#003C61" stop-opacity="0.2"/>
<stop offset="0.1913" stop-color="#003C61" stop-opacity="0.64"/>
<stop offset="0.458" stop-color="#003C61" stop-opacity="0.74"/>
<stop offset="0.7676" stop-color="#003C61" stop-opacity="0.88"/>
<stop offset="1" stop-color="#003C61" stop-opacity="0.85"/>
</radialGradient>
<radialGradient id="paint17_radial_4044_374" cx="0" cy="0" r="1" gradientUnits="userSpaceOnUse" gradientTransform="translate(7.59072 3.14371) rotate(41.4093) scale(0.849455 0.570774)">
<stop stop-color="white"/>
<stop offset="1" stop-color="white" stop-opacity="0"/>
</radialGradient>
<radialGradient id="paint18_radial_4044_374" cx="0" cy="0" r="1" gradientUnits="userSpaceOnUse" gradientTransform="translate(7.01478 4.14504) rotate(75.379) scale(4.34924 4.46932)">
<stop stop-color="#003C61" stop-opacity="0"/>
<stop offset="0.1913" stop-color="#003C61" stop-opacity="0.1435"/>
<stop offset="0.458" stop-color="#003C61" stop-opacity="0.3435"/>
<stop offset="0.7676" stop-color="#003C61" stop-opacity="0.5757"/>
<stop offset="1" stop-color="#003C61" stop-opacity="0.75"/>
</radialGradient>
<linearGradient id="paint19_linear_4044_374" x1="7.42344" y1="3.77416" x2="3.58582" y2="3.23573" gradientUnits="userSpaceOnUse">
<stop stop-color="#003C61" stop-opacity="0"/>
<stop offset="1" stop-color="#003C61" stop-opacity="0.75"/>
</linearGradient>
<radialGradient id="paint20_radial_4044_374" cx="0" cy="0" r="1" gradientUnits="userSpaceOnUse" gradientTransform="translate(7.99542 4.39561) rotate(73.8968) scale(1.24234 0.534519)">
<stop stop-color="white"/>
<stop offset="1" stop-color="white" stop-opacity="0"/>
</radialGradient>
<clipPath id="clip0_4044_374">
<rect width="21" height="20" fill="white" transform="translate(3 3)"/>
</clipPath>
</defs>
</svg>
