<svg width="26" height="24" viewBox="0 0 26 24" fill="none" xmlns="http://www.w3.org/2000/svg">
<g clip-path="url(#clip0_4044_33797)">
<path d="M14.01 14H12.99C10.34 14 7.8 14.72 5.93 15.99C4.06 17.26 3 18.98 3 20.78V21.2C3 21.68 3.28 22.13 3.78 22.47C4.28 22.81 4.95 23 5.65 23H21.35C22.05 23 22.73 22.81 23.22 22.47C23.72 22.13 24 21.68 24 21.2V20.78C24 18.98 22.94 17.26 21.07 15.99C19.2 14.72 16.66 14 14.01 14Z" fill="#949D9E"/>
<path d="M23.2198 22.47C23.7198 22.13 23.9998 21.68 23.9998 21.2V20.78C23.9998 18.98 22.9398 17.26 21.0698 15.99C19.1998 14.72 16.6598 14 14.0098 14C14.0098 14 24.0098 18.08 22.2198 22.9C22.3698 22.86 22.5698 22.81 22.7598 22.73C22.9598 22.65 23.0998 22.56 23.2298 22.47H23.2198Z" fill="#798586"/>
<path d="M13.5 12C15.99 12 18 9.99 18 7.5C18 5.01 15.99 3 13.5 3C11.01 3 9 5.01 9 7.5C9 9.99 11.01 12 13.5 12Z" fill="#949D9E"/>
<path d="M13.5 12C15.99 12 18 9.99 18 7.5C18 5.01 15.99 3 13.5 3C15.39 3.82 16.58 5.71 16.49 7.72C16.41 9.58 15.24 11.25 13.5 12Z" fill="#798586"/>
<path d="M10.5625 18H16.9375C17.245 18 17.5 18.34 17.5 18.75C17.5 19.16 17.245 19.5 16.9375 19.5H10.5625C10.255 19.5 10 19.16 10 18.75C10 18.34 10.255 18 10.5625 18Z" fill="white"/>
</g>
<defs>
<clipPath id="clip0_4044_33797">
<rect width="21" height="20" fill="white" transform="translate(3 3)"/>
</clipPath>
</defs>
</svg>
