<svg width="32" height="32" viewBox="0 0 32 32" fill="none" xmlns="http://www.w3.org/2000/svg">
<path d="M0 12.8C0 8.31958 0 6.07937 0.871948 4.36808C1.63893 2.86278 2.86278 1.63893 4.36808 0.871948C6.07937 0 8.31958 0 12.8 0H19.2C23.6804 0 25.9206 0 27.6319 0.871948C29.1372 1.63893 30.3611 2.86278 31.1281 4.36808C32 6.07937 32 8.31958 32 12.8V19.2C32 23.6804 32 25.9206 31.1281 27.6319C30.3611 29.1372 29.1372 30.3611 27.6319 31.1281C25.9206 32 23.6804 32 19.2 32H12.8C8.31958 32 6.07937 32 4.36808 31.1281C2.86278 30.3611 1.63893 29.1372 0.871948 27.6319C0 25.9206 0 23.6804 0 19.2V12.8Z" fill="#8B4513"/>
<path fill-rule="evenodd" clip-rule="evenodd" d="M23.0086 14.2172C22.9631 14.2143 22.9135 14.2144 22.8621 14.2144L22.8493 14.2144H20.8345C19.1737 14.2144 17.7526 15.5319 17.7526 17.2501C17.7526 18.9683 19.1737 20.2858 20.8345 20.2858H22.8493L22.8621 20.2858C22.9135 20.2858 22.9631 20.2858 23.0086 20.2829C23.6832 20.24 24.2798 19.708 24.3299 18.9648C24.3332 18.9161 24.3332 18.8636 24.3332 18.8149L24.3332 18.8017V15.6985L24.3332 15.6853C24.3332 15.6366 24.3332 15.5841 24.3299 15.5353C24.2798 14.7922 23.6832 14.2602 23.0086 14.2172ZM20.6558 18.0596C21.0834 18.0596 21.43 17.6972 21.43 17.2501C21.43 16.803 21.0834 16.4406 20.6558 16.4406C20.2282 16.4406 19.8816 16.803 19.8816 17.2501C19.8816 17.6972 20.2282 18.0596 20.6558 18.0596Z" fill="white"/>
<path fill-rule="evenodd" clip-rule="evenodd" d="M22.8616 21.5001C22.9814 21.497 23.072 21.6088 23.0395 21.725C22.8783 22.3017 22.6224 22.7933 22.2117 23.2072C21.6106 23.813 20.8484 24.0818 19.9067 24.2094C18.9917 24.3334 17.8225 24.3334 16.3464 24.3334H14.6493C13.1732 24.3334 12.004 24.3334 11.089 24.2094C10.1473 24.0818 9.38506 23.813 8.78397 23.2072C8.18287 22.6014 7.91611 21.8332 7.7895 20.8841C7.66648 19.9618 7.66649 18.7835 7.6665 17.2958V17.2044C7.66649 15.7167 7.66648 14.5383 7.7895 13.6161C7.91611 12.667 8.18287 11.8988 8.78397 11.293C9.38506 10.6872 10.1473 10.4183 11.089 10.2907C12.004 10.1667 13.1732 10.1667 14.6493 10.1667L16.3464 10.1667C17.8225 10.1667 18.9917 10.1667 19.9067 10.2907C20.8484 10.4183 21.6106 10.6872 22.2117 11.293C22.6224 11.7069 22.8783 12.1984 23.0395 12.7752C23.072 12.8914 22.9814 13.0032 22.8616 13.0001L20.8344 13.0001C18.556 13.0001 16.5477 14.8142 16.5477 17.2501C16.5477 19.686 18.556 21.5001 20.8344 21.5001L22.8616 21.5001ZM10.6786 13.4048C10.3459 13.4048 10.0761 13.6767 10.0761 14.012C10.0761 14.3473 10.3459 14.6191 10.6786 14.6191H13.8914C14.2241 14.6191 14.4938 14.3473 14.4938 14.012C14.4938 13.6767 14.2241 13.4048 13.8914 13.4048H10.6786Z" fill="white"/>
<path d="M12.4804 9.35374L14.1127 8.15113C14.9894 7.50529 16.177 7.50529 17.0536 8.15113L18.6945 9.36006C18.0084 9.33338 17.2422 9.3334 16.4022 9.33342H14.5934C13.8259 9.3334 13.1199 9.33338 12.4804 9.35374Z" fill="white"/>
</svg>
